<?xml version="1.0" encoding="UTF-8"?>
<svg xmlns="http://www.w3.org/2000/svg" xmlns:xlink="http://www.w3.org/1999/xlink" version="1.2" >
<font id="Minecraft Ten">
<font-face  font-family="Minecraft" units-per-em="1000" ascent="750" descent="-250" font-style="normal" font-weight="400" font-stretch="normal" cap-height="700" x-height="700" underline-position="-75" underline-thickness="50" />
<missing-glyph  horiz-adv-x="300" d="" />
<glyph glyph-name="NULL" d="" />
<glyph glyph-name="CR" unicode="&#xd;" horiz-adv-x="250" d="" />
<glyph glyph-name="space" unicode="&#x20;" horiz-adv-x="200" d="" />
<glyph glyph-name="exclam" unicode="&#x21;" horiz-adv-x="240" d="M50 280 L260 280 L260 700 L50 700 L50 280 Z M50 0 L260 0 L260 210 L50 210 L50 0 Z " />
<glyph glyph-name="quotedbl" unicode="&#x22;" horiz-adv-x="520" d="M50 350 L260 350 L260 700 L50 700 L50 350 Z M330 350 L540 350 L540 700 L330 700 L330 350 Z " />
<glyph glyph-name="numbersign" unicode="&#x23;" horiz-adv-x="730" d="M680 420 L680 560 L610 560 L610 700 L400 700 L400 560 L330 560 L330 700 L120 700 L120 560 L50 560 L50 420 L120 420 L120 280 L50 280 L50 140 L120 140 L120 0 L330 0 L330 140 L400 140 L400 0 L610 0 L610 140 L680 140 L680 280 L610 280 L610 420 L680 420 Z M400 280 L330 280 L330 420 L400 420 L400 280 Z " />
<glyph glyph-name="percent" unicode="&#x25;" horiz-adv-x="800" d="M50 0 L260 0 L260 210 L50 210 L50 0 Z M190 140 L400 140 L400 350 L190 350 L190 140 Z M330 350 L540 350 L540 560 L330 560 L330 350 Z M470 490 L680 490 L680 700 L470 700 L470 490 Z M50 490 L260 490 L260 700 L50 700 L50 490 Z M470 0 L680 0 L680 210 L470 210 L470 0 Z " />
<glyph glyph-name="ampersand" unicode="&#x26;" horiz-adv-x="730" d="M50 0 L680 0 L680 140 L540 140 L540 280 L610 280 L610 420 L470 420 L470 700 L120 700 L120 420 L50 419 L50 0 Z M330 420 L260 420 L260 560 L330 560 L330 420 Z M260 280 L330 280 L330 140 L260 140 L260 280 Z " />
<glyph glyph-name="quotesingle" unicode="&#x27;" horiz-adv-x="310" d="M50 350 L260 350 L260 700 L50 700 L50 350 Z " />
<glyph glyph-name="parenleft" unicode="&#x28;" horiz-adv-x="590" d="M50 140 L190 140 L190 0 L540 0 L540 140 L400 140 L400 280 L260 280 L260 420 L401 420 L401 560 L540 560 L540 700 L190 700 L190 560 L50 560 L50 140 Z " />
<glyph glyph-name="parenright" unicode="&#x29;" horiz-adv-x="590" d="M540 560 L400 560 L400 700 L50 700 L50 560 L189 560 L189 420 L330 420 L330 280 L190 280 L190 140 L50 140 L50 0 L400 0 L400 140 L540 140 L540 560 Z " />
<glyph glyph-name="asterisk" unicode="&#x2a;" horiz-adv-x="520" d="M50 560 L120 560 L120 420 L50 420 L50 280 L190 280 L190 350 L330 350 L330 280 L470 280 L470 420 L400 420 L400 560 L470 560 L470 700 L330 700 L330 630 L190 630 L190 700 L50 700 L50 560 Z " />
<glyph glyph-name="plus" unicode="&#x2b;" horiz-adv-x="520" d="M190 420 L50 420 L50 280 L190 280 L190 140 L330 140 L330 280 L470 280 L470 420 L330 420 L330 560 L190 560 L190 420 Z " />
<glyph glyph-name="comma" unicode="&#x2c;" horiz-adv-x="310" d="M120 0 L120 -140 L260 -140 L260 210 L50 210 L50 0 L120 0 Z " />
<glyph glyph-name="hyphen" unicode="&#x2d;" horiz-adv-x="450" d="M50 280 L400 280 L400 420 L50 420 L50 280 Z " />
<glyph glyph-name="period" unicode="&#x2e;" horiz-adv-x="310" d="M50 0 L260 0 L260 210 L50 210 L50 0 Z " />
<glyph glyph-name="slash" unicode="&#x2f;" horiz-adv-x="730" d="M50 0 L260 0 L260 210 L50 210 L50 0 Z M190 140 L400 140 L400 350 L190 350 L190 140 Z M330 350 L540 350 L540 560 L330 560 L330 350 Z M470 490 L680 490 L680 700 L470 700 L470 490 Z " />
<glyph glyph-name="zero" unicode="0" horiz-adv-x="590" d="M50 0 L540 0 L540 700 L50 700 L50 0 Z M330 140 L260 140 L260 560 L330 560 L330 140 Z " />
<glyph glyph-name="one" unicode="1" horiz-adv-x="450" d="M50 490 L190 490 L190 0 L400 0 L400 700 L190 700 L190 630 L50 630 L50 490 Z " />
<glyph glyph-name="two" unicode="2" horiz-adv-x="590" d="M50 0 L540 0 L540 140 L260 140 L260 280 L540 280 L540 700 L50 700 L50 560 L330 560 L330 420 L50 420 L50 0 Z " />
<glyph glyph-name="three" unicode="3" horiz-adv-x="590" d="M330 140 L50 140 L50 0 L540 0 L540 700 L50 700 L50 560 L330 560 L330 420 L120 420 L120 280 L330 280 L330 140 Z " />
<glyph glyph-name="four" unicode="4" horiz-adv-x="730" d="M50 140 L400 140 L400 0 L610 0 L610 140 L680 140 L680 280 L610 280 L610 700 L400 700 L400 630 L260 630 L260 560 L190 560 L190 420 L120 420 L120 280 L50 280 L50 140 Z M260 350 L330 350 L330 489 L400 489 L400 280 L260 280 L260 350 Z " />
<glyph glyph-name="five" unicode="5" horiz-adv-x="590" d="M50 280 L330 280 L330 140 L50 140 L50 0 L540 0 L540 420 L260 420 L260 560 L540 560 L540 700 L50 700 L50 280 Z " />
<glyph glyph-name="six" unicode="6" horiz-adv-x="590" d="M50 0 L540 0 L540 420 L260 420 L260 560 L540 560 L540 700 L50 700 L50 0 Z M330 280 L330 140 L260 140 L260 280 L330 280 Z " />
<glyph glyph-name="seven" unicode="7" horiz-adv-x="590" d="M120 140 L120 0 L330 0 L330 140 L400 140 L400 280 L470 280 L470 420 L540 420 L540 700 L50 700 L50 560 L330 560 L330 420 L260 420 L260 280 L190 280 L190 140 L120 140 Z " />
<glyph glyph-name="eight" unicode="8" horiz-adv-x="590" d="M120 350 L50 350 L50 0 L540 0 L540 350 L470 350 L470 420 L540 420 L540 700 L50 700 L50 420 L120 420 L120 350 Z M330 420 L260 420 L260 560 L330 560 L330 420 Z M260 280 L330 280 L330 140 L260 140 L260 280 Z " />
<glyph glyph-name="nine" unicode="9" horiz-adv-x="590" d="M540 700 L50 700 L50 280 L330 280 L330 140 L50 140 L50 0 L540 0 L540 700 Z M260 420 L260 560 L330 560 L330 420 L260 420 Z " />
<glyph glyph-name="colon" unicode="&#x3a;" horiz-adv-x="310" d="M50 350 L260 350 L260 560 L50 560 L50 350 Z M50 0 L260 0 L260 210 L50 210 L50 0 Z " />
<glyph glyph-name="semicolon" unicode="&#x3b;" horiz-adv-x="310" d="M50 350 L260 350 L260 560 L50 560 L50 350 Z M120 0 L120 -140 L260 -140 L260 210 L50 210 L50 0 L120 0 Z " />
<glyph glyph-name="equal" unicode="&#x3d;" horiz-adv-x="520" d="M50 140 L470 140 L470 280 L50 280 L50 140 Z M50 420 L470 420 L470 560 L50 560 L50 420 Z " />
<glyph glyph-name="question" unicode="&#x3f;" horiz-adv-x="660" d="M50 420 L190 420 L190 560 L330 560 L330 420 L260 420 L260 280 L470 280 L470 350 L610 350 L610 630 L540 630 L540 700 L120 700 L120 630 L50 630 L50 420 Z M260 0 L470 0 L470 210 L260 210 L260 0 Z " />
<glyph glyph-name="A" unicode="A" horiz-adv-x="590" d="M50 0 L260 0 L260 280 L330 280 L330 0 L540 0 L540 700 L50 700 L50 0 Z M330 420 L260 420 L260 560 L330 560 L330 420 Z " />
<glyph glyph-name="B" unicode="B" horiz-adv-x="590" d="M50 0 L540 0 L540 350 L470 350 L470 420 L540 420 L540 700 L50 700 L50 0 Z M330 420 L260 420 L260 560 L330 560 L330 420 Z M260 280 L330 280 L330 140 L260 140 L260 280 Z " />
<glyph glyph-name="C" unicode="C" horiz-adv-x="520" d="M470 140 L260 140 L260 560 L470 560 L470 700 L50 700 L50 0 L470 0 L470 140 Z " />
<glyph glyph-name="D" unicode="D" horiz-adv-x="590" d="M50 0 L470 0 L470 70 L540 70 L540 630 L470 630 L470 700 L50 700 L50 0 Z M330 140 L260 140 L260 560 L330 560 L330 140 Z " />
<glyph glyph-name="E" unicode="E" horiz-adv-x="590" d="M260 280 L470 280 L470 420 L260 420 L260 560 L540 560 L540 700 L50 700 L50 0 L540 0 L540 140 L260 140 L260 280 Z " />
<glyph glyph-name="F" unicode="F" horiz-adv-x="590" d="M260 280 L470 280 L470 420 L260 420 L260 560 L540 560 L540 700 L50 700 L50 0 L260 0 L260 280 Z " />
<glyph glyph-name="G" unicode="G" horiz-adv-x="590" d="M330 140 L260 140 L260 560 L540 560 L540 700 L50 700 L50 0 L540 0 L540 420 L330 420 L330 140 Z " />
<glyph glyph-name="H" unicode="H" horiz-adv-x="590" d="M50 0 L260 0 L260 280 L330 280 L330 0 L540 0 L540 700 L330 700 L330 420 L260 420 L260 700 L50 700 L50 0 Z " />
<glyph glyph-name="I" unicode="I" horiz-adv-x="310" d="M50 0 L260 0 L260 700 L50 700 L50 0 Z " />
<glyph glyph-name="J" unicode="J" horiz-adv-x="590" d="M330 140 L260 140 L260 280 L50 280 L50 0 L540 0 L540 700 L330 700 L330 140 Z " />
<glyph glyph-name="K" unicode="K" horiz-adv-x="590" d="M50 0 L260 0 L260 210 L330 210 L330 0 L540 0 L540 350 L400 350 L400 420 L540 420 L540 700 L330 700 L330 490 L260 490 L260 700 L50 700 L50 0 Z " />
<glyph glyph-name="L" unicode="L" horiz-adv-x="520" d="M50 0 L470 0 L470 140 L260 140 L260 700 L50 700 L50 0 Z " />
<glyph glyph-name="M" unicode="M" horiz-adv-x="800" d="M260 280 L330 280 L330 140 L470 140 L470 280 L540 280 L540 0 L750 0 L750 700 L540 700 L540 560 L470 560 L470 420 L330 420 L330 560 L260 560 L260 700 L50 700 L50 0 L260 0 L260 280 Z " />
<glyph glyph-name="N" unicode="N" horiz-adv-x="660" d="M260 280 L330 280 L330 140 L400 140 L400 0 L610 0 L610 700 L400 700 L400 420 L330 420 L330 560 L260 560 L260 700 L50 700 L50 0 L260 0 L260 280 Z " />
<glyph glyph-name="O" unicode="O" horiz-adv-x="590" d="M50 0 L540 0 L540 700 L50 700 L50 0 Z M330 140 L260 140 L260 560 L330 560 L330 140 Z " />
<glyph glyph-name="P" unicode="P" horiz-adv-x="590" d="M50 0 L260 0 L260 280 L540 280 L540 700 L50 700 L50 0 Z M330 420 L260 420 L260 560 L330 560 L330 420 Z " />
<glyph glyph-name="Q" unicode="Q" horiz-adv-x="610" d="M50 0 L610 0 L610 140 L540 140 L540 700 L50 700 L50 0 Z M330 140 L260 140 L260 560 L330 560 L330 140 Z " />
<glyph glyph-name="R" unicode="R" horiz-adv-x="590" d="M50 0 L260 0 L260 280 L330 280 L330 0 L540 0 L540 350 L470 350 L470 420 L540 420 L540 700 L50 700 L50 0 Z M330 420 L260 420 L260 560 L330 560 L330 420 Z " />
<glyph glyph-name="S" unicode="S" horiz-adv-x="590" d="M50 280 L330 280 L330 140 L50 140 L50 0 L540 0 L540 420 L260 420 L260 560 L540 560 L540 700 L50 700 L50 280 Z " />
<glyph glyph-name="T" unicode="T" horiz-adv-x="590" d="M400 560 L540 560 L540 700 L50 700 L50 560 L190 560 L190 0 L400 0 L400 560 Z " />
<glyph glyph-name="U" unicode="U" horiz-adv-x="590" d="M50 0 L540 0 L540 700 L330 700 L330 140 L260 140 L260 700 L50 700 L50 0 Z " />
<glyph glyph-name="V" unicode="V" horiz-adv-x="590" d="M50 280 L120 280 L120 140 L190 140 L190 0 L400 0 L400 140 L470 140 L470 280 L540 280 L540 700 L330 700 L330 420 L260 420 L260 700 L50 700 L50 280 Z " />
<glyph glyph-name="W" unicode="W" horiz-adv-x="800" d="M260 700 L50 700 L50 140 L120 140 L120 0 L330 0 L330 210 L470 210 L470 0 L680 0 L680 140 L750 140 L750 700 L540 700 L540 350 L470 350 L470 490 L330 490 L330 350 L260 350 L260 700 Z " />
<glyph glyph-name="X" unicode="X" horiz-adv-x="590" d="M50 0 L260 0 L260 210 L330 210 L330 0 L540 0 L540 350 L400 350 L400 420 L540 420 L540 700 L330 700 L330 490 L260 490 L260 700 L50 700 L50 420 L190 420 L190 350 L50 350 L50 0 Z " />
<glyph glyph-name="Y" unicode="Y" horiz-adv-x="590" d="M50 350 L190 350 L190 0 L400 0 L400 350 L540 350 L540 700 L330 700 L330 490 L260 490 L260 700 L50 700 L50 350 Z " />
<glyph glyph-name="Z" unicode="Z" horiz-adv-x="590" d="M50 0 L540 0 L540 140 L260 140 L260 280 L400 280 L400 350 L540 350 L540 700 L50 700 L50 560 L330 560 L330 420 L190 420 L190 350 L50 350 L50 0 Z " />
<glyph glyph-name="underscore" unicode="&#x5f;" horiz-adv-x="800" d="M50 -140 L750 -140 L750 0 L50 0 L50 -140 Z " />
<glyph glyph-name="a" unicode="a" horiz-adv-x="590" d="M50 0 L260 0 L260 280 L330 280 L330 0 L540 0 L540 700 L50 700 L50 0 Z M330 420 L260 420 L260 560 L330 560 L330 420 Z " />
<glyph glyph-name="b" unicode="b" horiz-adv-x="590" d="M50 0 L540 0 L540 350 L470 350 L470 420 L540 420 L540 700 L50 700 L50 0 Z M330 420 L260 420 L260 560 L330 560 L330 420 Z M260 280 L330 280 L330 140 L260 140 L260 280 Z " />
<glyph glyph-name="c" unicode="c" horiz-adv-x="520" d="M470 140 L260 140 L260 560 L470 560 L470 700 L50 700 L50 0 L470 0 L470 140 Z " />
<glyph glyph-name="d" unicode="d" horiz-adv-x="590" d="M50 0 L470 0 L470 70 L540 70 L540 630 L470 630 L470 700 L50 700 L50 0 Z M330 140 L260 140 L260 560 L330 560 L330 140 Z " />
<glyph glyph-name="e" unicode="e" horiz-adv-x="590" d="M260 280 L470 280 L470 420 L260 420 L260 560 L540 560 L540 700 L50 700 L50 0 L540 0 L540 140 L260 140 L260 280 Z " />
<glyph glyph-name="f" unicode="f" horiz-adv-x="590" d="M260 280 L470 280 L470 420 L260 420 L260 560 L540 560 L540 700 L50 700 L50 0 L260 0 L260 280 Z " />
<glyph glyph-name="g" unicode="g" horiz-adv-x="590" d="M330 140 L260 140 L260 560 L540 560 L540 700 L50 700 L50 0 L540 0 L540 420 L330 420 L330 140 Z " />
<glyph glyph-name="h" unicode="h" horiz-adv-x="590" d="M50 0 L260 0 L260 280 L330 280 L330 0 L540 0 L540 700 L330 700 L330 420 L260 420 L260 700 L50 700 L50 0 Z " />
<glyph glyph-name="i" unicode="i" horiz-adv-x="310" d="M50 0 L260 0 L260 700 L50 700 L50 0 Z " />
<glyph glyph-name="j" unicode="j" horiz-adv-x="590" d="M330 140 L260 140 L260 280 L50 280 L50 0 L540 0 L540 700 L330 700 L330 140 Z " />
<glyph glyph-name="k" unicode="k" horiz-adv-x="590" d="M50 0 L260 0 L260 210 L330 210 L330 0 L540 0 L540 350 L400 350 L400 420 L540 420 L540 700 L330 700 L330 490 L260 490 L260 700 L50 700 L50 0 Z " />
<glyph glyph-name="l" unicode="l" horiz-adv-x="520" d="M50 0 L470 0 L470 140 L260 140 L260 700 L50 700 L50 0 Z " />
<glyph glyph-name="m" unicode="m" horiz-adv-x="800" d="M260 280 L330 280 L330 140 L470 140 L470 280 L540 280 L540 0 L750 0 L750 700 L540 700 L540 560 L470 560 L470 420 L330 420 L330 560 L260 560 L260 700 L50 700 L50 0 L260 0 L260 280 Z " />
<glyph glyph-name="n" unicode="n" horiz-adv-x="660" d="M260 280 L330 280 L330 140 L400 140 L400 0 L610 0 L610 700 L400 700 L400 420 L330 420 L330 560 L260 560 L260 700 L50 700 L50 0 L260 0 L260 280 Z " />
<glyph glyph-name="o" unicode="o" horiz-adv-x="590" d="M50 0 L540 0 L540 700 L50 700 L50 0 Z M330 140 L260 140 L260 560 L330 560 L330 140 Z " />
<glyph glyph-name="p" unicode="p" horiz-adv-x="590" d="M50 0 L260 0 L260 280 L540 280 L540 700 L50 700 L50 0 Z M330 420 L260 420 L260 560 L330 560 L330 420 Z " />
<glyph glyph-name="q" unicode="q" horiz-adv-x="610" d="M50 0 L610 0 L610 140 L540 140 L540 700 L50 700 L50 0 Z M330 140 L260 140 L260 560 L330 560 L330 140 Z " />
<glyph glyph-name="r" unicode="r" horiz-adv-x="590" d="M50 0 L260 0 L260 280 L330 280 L330 0 L540 0 L540 350 L470 350 L470 420 L540 420 L540 700 L50 700 L50 0 Z M330 420 L260 420 L260 560 L330 560 L330 420 Z " />
<glyph glyph-name="s" unicode="s" horiz-adv-x="590" d="M50 280 L330 280 L330 140 L50 140 L50 0 L540 0 L540 420 L260 420 L260 560 L540 560 L540 700 L50 700 L50 280 Z " />
<glyph glyph-name="t" unicode="t" horiz-adv-x="590" d="M400 560 L540 560 L540 700 L50 700 L50 560 L190 560 L190 0 L400 0 L400 560 Z " />
<glyph glyph-name="u" unicode="u" horiz-adv-x="590" d="M50 0 L540 0 L540 700 L330 700 L330 140 L260 140 L260 700 L50 700 L50 0 Z " />
<glyph glyph-name="v" unicode="v" horiz-adv-x="590" d="M50 280 L120 280 L120 140 L190 140 L190 0 L400 0 L400 140 L470 140 L470 280 L540 280 L540 700 L330 700 L330 420 L260 420 L260 700 L50 700 L50 280 Z " />
<glyph glyph-name="w" unicode="w" horiz-adv-x="800" d="M260 700 L50 700 L50 140 L120 140 L120 0 L330 0 L330 210 L470 210 L470 0 L680 0 L680 140 L750 140 L750 700 L540 700 L540 350 L470 350 L470 490 L330 490 L330 350 L260 350 L260 700 Z " />
<glyph glyph-name="x" unicode="x" horiz-adv-x="590" d="M50 0 L260 0 L260 210 L330 210 L330 0 L540 0 L540 350 L400 350 L400 420 L540 420 L540 700 L330 700 L330 490 L260 490 L260 700 L50 700 L50 420 L190 420 L190 350 L50 350 L50 0 Z " />
<glyph glyph-name="y" unicode="y" horiz-adv-x="590" d="M50 350 L190 350 L190 0 L400 0 L400 350 L540 350 L540 700 L330 700 L330 490 L260 490 L260 700 L50 700 L50 350 Z " />
<glyph glyph-name="z" unicode="z" horiz-adv-x="590" d="M50 0 L540 0 L540 140 L260 140 L260 280 L400 280 L400 350 L540 350 L540 700 L50 700 L50 560 L330 560 L330 420 L190 420 L190 350 L50 350 L50 0 Z " />
<glyph glyph-name="uni00A0" unicode="&#xa0;" horiz-adv-x="500" d="" />
<glyph glyph-name="copyright" unicode="&#xa9;" horiz-adv-x="800" d="M260 210 L330 210 L330 140 L470 140 L470 210 L540 210 L540 280 L400 280 L400 420 L540 420 L540 490 L470 490 L470 560 L330 560 L330 490 L260 490 L260 210 Z M680 140 L750 140 L750 560 L680 560 L680 630 L610 630 L610 700 L190 700 L190 630 L540 630 L540 560 L610 560 L610 140 L540 140 L540 70 L680 70 L680 140 Z M190 560 L260 560 L260 630 L120 630 L120 560 L50 560 L50 140 L120 140 L120 70 L190 70 L190 0 L610 0 L610 70 L260 70 L260 140 L190 140 L190 560 Z " />
<glyph glyph-name="registered" unicode="&#xae;" horiz-adv-x="730" d="M190 350 L295 350 L295 630 L190 630 L190 350 Z M295 560 L470 560 L470 630 L295 630 L295 560 Z M295 420 L435 420 L435 490 L295 490 L295 420 Z M365 350 L470 350 L470 420 L365 420 L365 350 Z M365 490 L470 490 L470 560 L365 560 L365 490 Z M190 700 L470 700 L470 770 L190 770 L190 700 Z M190 210 L470 210 L470 280 L190 280 L190 210 Z M50 350 L120 350 L120 630 L50 630 L50 350 Z M540 350 L610 350 L610 630 L540 630 L540 350 Z M470 630 L540 630 L540 700 L470 700 L470 630 Z M470 280 L540 280 L540 350 L470 350 L470 280 Z M120 280 L190 280 L190 350 L120 350 L120 280 Z M120 630 L190 630 L190 700 L120 700 L120 630 Z " />
<glyph glyph-name="degree" unicode="&#xb0;" horiz-adv-x="520" d="M50 350 L120 350 L120 280 L400 280 L400 350 L470 350 L470 630 L400 630 L400 700 L120 700 L120 630 L50 630 L50 350 Z M190 560 L330 560 L330 420 L190 420 L190 560 Z " />
<glyph glyph-name="paragraph" unicode="&#xb6;" horiz-adv-x="800" d="M750 700 L120 700 L120 560 L50 560 L50 420 L120 420 L120 280 L260 280 L260 -140 L470 -140 L470 280 L540 280 L540 -140 L750 -140 L750 700 Z M540 420 L470 420 L470 560 L540 560 L540 420 Z " />
<glyph glyph-name="florin" unicode="&#x192;" horiz-adv-x="590" d="M225 490 L260 490 L260 525 L330 525 L330 490 L365 490 L365 385 L330 385 L330 420 L260 420 L260 385 L225 385 L225 490 Z M190 595 L260 595 L260 525 L190 525 L190 595 Z M330 595 L400 595 L400 525 L330 525 L330 595 Z M50 0 L260 0 L260 280 L330 280 L330 0 L540 0 L540 700 L50 700 L50 0 Z " />
<glyph glyph-name="endash" unicode="&#x2013;" horiz-adv-x="520" d="M50 280 L470 280 L470 420 L50 420 L50 280 Z " />
<glyph glyph-name="emdash" unicode="&#x2014;" horiz-adv-x="800" d="M50 280 L750 280 L750 420 L50 420 L50 280 Z " />
<glyph glyph-name="quoteleft" unicode="&#x2018;" horiz-adv-x="380" d="M260 560 L190 560 L190 700 L50 700 L50 350 L260 350 L260 560 Z " />
<glyph glyph-name="quoteright" unicode="&#x2019;" horiz-adv-x="380" d="M50 490 L120 490 L120 350 L260 350 L260 700 L50 700 L50 490 Z " />
<glyph glyph-name="quotedblleft" unicode="&#x201c;" horiz-adv-x="660" d="M540 560 L470 560 L470 700 L330 700 L330 350 L540 350 L540 560 Z M260 560 L190 560 L190 700 L50 700 L50 350 L260 350 L260 560 Z " />
<glyph glyph-name="quotedblright" unicode="&#x201d;" horiz-adv-x="660" d="M50 490 L120 490 L120 350 L260 350 L260 700 L50 700 L50 490 Z M330 490 L400 490 L400 350 L540 350 L540 700 L330 700 L330 490 Z " />
<glyph glyph-name="bullet" unicode="&#x2022;" horiz-adv-x="380" d="M50 210 L330 210 L330 490 L50 490 L50 210 Z " />
<glyph glyph-name="ellipsis" unicode="&#x2026;" horiz-adv-x="870" d="M50 0 L260 0 L260 210 L50 210 L50 0 Z M330 0 L540 0 L540 210 L330 210 L330 0 Z M610 0 L820 0 L820 210 L610 210 L610 0 Z " />
<glyph glyph-name="trademark" unicode="&#x2122;" horiz-adv-x="1010" d="M155 350 L295 350 L295 630 L400 630 L400 700 L50 700 L50 630 L155 630 L155 350 Z M470 350 L610 350 L610 700 L470 700 L470 350 Z M610 490 L680 490 L680 630 L610 630 L610 490 Z M680 420 L750 420 L750 560 L680 560 L680 420 Z M750 490 L820 490 L820 630 L750 630 L750 490 Z M820 350 L960 350 L960 700 L820 700 L820 350 Z " />
</font>
</svg>
