<?xml version="1.0" encoding="utf-8"?>
<!-- Generator: Adobe Illustrator 23.0.6, SVG Export Plug-In . SVG Version: 6.00 Build 0)  -->
<svg version="1.1" id="patch_notes--c" xmlns="http://www.w3.org/2000/svg" xmlns:xlink="http://www.w3.org/1999/xlink" x="0px"
	 y="0px" viewBox="0 0 512 512" style="enable-background:new 0 0 512 512;" xml:space="preserve">

<style type="text/css">
	/*
	Classes Used by IE and MSEdge with Mono Parent Color Fallback for IE
	Chrome, Chromium Edge, and Firefox use the 'fill' Attributes Over the Classes
	==============================================================================  */
	.patch_notes--color1{
		fill: currentColor;
		fill: var(--color-1, currentColor);
	}

	.patch_notes--color2{
		fill: #FFFFFF;
		fill: var(--color-2, #FFFFFF);
	}
</style>
<g id="Stitching_Paths" class="patch_notes--color1" fill="var(--color-1, currentColor)" transform="translate(1 1)">
	<path d="M127,416.2H93.8V383c0-5.7-3.8-9.5-9.5-9.5s-9.5,3.8-9.5,9.5v42.7c0,5.7,3.8,9.5,9.5,9.5H127c5.7,0,9.5-3.8,9.5-9.5
		C136.5,420,132.7,416.2,127,416.2z"/>
	<path d="M84.4,353.6c5.7,0,9.5-3.8,9.5-9.5V274c0-5.7-3.8-9.5-9.5-9.5s-9.5,3.8-9.5,9.5v70.2C74.9,349.8,78.7,353.6,84.4,353.6z"/>
	<path d="M84.4,245.5c5.7,0,9.5-4.7,9.5-9.5v-70.2c0-5.7-3.8-9.5-9.5-9.5s-9.5,3.8-9.5,9.5V236C74.9,241.7,78.7,245.5,84.4,245.5z"
		/>
	<path d="M127,74.9H84.4c-5.7,0-9.5,3.8-9.5,9.5V127c0,5.7,3.8,9.5,9.5,9.5s9.5-3.8,9.5-9.5V93.8H127c5.7,0,9.5-3.8,9.5-9.5
		C136.5,78.7,132.7,74.9,127,74.9z"/>
	<path d="M236,74.9h-70.2c-5.7,0-9.5,3.8-9.5,9.5c0,5.7,3.8,9.5,9.5,9.5H236c4.7,0,9.5-3.8,9.5-9.5C245.5,78.7,241.7,74.9,236,74.9z
		"/>
	<path d="M344.1,74.9H274c-5.7,0-9.5,3.8-9.5,9.5c0,5.7,3.8,9.5,9.5,9.5h70.2c5.7,0,9.5-3.8,9.5-9.5
		C353.6,78.7,349.8,74.9,344.1,74.9z"/>
	<path d="M425.6,74.9H383c-5.7,0-9.5,3.8-9.5,9.5c0,5.7,3.8,9.5,9.5,9.5h33.2V127c0,5.7,3.8,9.5,9.5,9.5c5.7,0,9.5-3.8,9.5-9.5V84.4
		C435.1,78.7,431.3,74.9,425.6,74.9z"/>
	<path d="M425.6,264.5c-5.7,0-9.5,3.8-9.5,9.5v70.2c0,5.7,3.8,9.5,9.5,9.5c5.7,0,9.5-3.8,9.5-9.5V274
		C435.1,268.3,431.3,264.5,425.6,264.5z"/>
	<path d="M425.6,156.4c-5.7,0-9.5,3.8-9.5,9.5V236c0,5.7,3.8,9.5,9.5,9.5c5.7,0,9.5-4.7,9.5-9.5v-70.2
		C435.1,160.2,431.3,156.4,425.6,156.4z"/>
	<path d="M425.6,373.5c-5.7,0-9.5,3.8-9.5,9.5v33.2H383c-5.7,0-9.5,3.8-9.5,9.5c0,5.7,3.8,9.5,9.5,9.5h42.7c5.7,0,9.5-3.8,9.5-9.5
		V383C435.1,377.3,431.3,373.5,425.6,373.5z"/>
	<path d="M344.1,416.2H274c-5.7,0-9.5,3.8-9.5,9.5c0,5.7,3.8,9.5,9.5,9.5h70.2c5.7,0,9.5-3.8,9.5-9.5
		C353.6,420,349.8,416.2,344.1,416.2z"/>
	<path d="M236,416.2h-70.2c-5.7,0-9.5,3.8-9.5,9.5c0,5.7,3.8,9.5,9.5,9.5H236c4.7,0,9.5-3.8,9.5-9.5
		C245.5,420,241.7,416.2,236,416.2z"/>
</g>
<path class="patch_notes--color1" fill="var(--color-1, currentColor)" d="M451,473H61c-12.1,0-22-9.9-22-22V61c0-12.1,9.9-22,22-22H451c12.1,0,22,9.9,22,22V451C473,463.1,463.1,473,451,473z M61,59
	c-1.1,0-2,0.9-2,2V451c0,1.1,0.9,2,2,2H451c1.1,0,2-0.9,2-2V61c0-1.1-0.9-2-2-2H61z"/>
<path class="patch_notes--color1" fill="var(--color-1, currentColor)" id="Warning_Triangle" d="M395,341.3L280.3,142.6c-5.1-8.8-14.2-14-24.3-14c-10.1,0-19.2,5.2-24.3,14L117,341.3
	c-5.1,8.8-5.1,19.3,0,28.1c5.1,8.8,14.2,14,24.3,14h229.4c10.1,0,19.2-5.2,24.3-14C400.1,360.6,400.1,350.1,395,341.3z"/>
<g class="patch_notes--color2" fill="var(--color-2, #FFFFFF)" id="Exclamation_Mark">
	<path d="M256,357.6c-10.1,0-18.3-8.2-18.3-18.3c0-10.1,8.2-18.3,18.3-18.3c10.1,0,18.3,8.2,18.3,18.3
		C274.3,349.4,266.1,357.6,256,357.6z"/>
	<path d="M274.4,279.5c0,10.1-8.2,18.4-18.4,18.4s-18.4-8.2-18.4-18.4v-84.4c0-4.8,3.9-8.7,8.7-8.7h19.4
		c4.8,0,8.7,3.9,8.7,8.7L274.4,279.5L274.4,279.5"/>
</g>
</svg>
