<?xml version="1.0" encoding="utf-8"?>
<!-- Generator: Adobe Illustrator 23.0.6, SVG Export Plug-In . SVG Version: 6.00 Build 0)  -->
<svg version="1.1" id="toast--c" xmlns="http://www.w3.org/2000/svg" xmlns:xlink="http://www.w3.org/1999/xlink" x="0px" y="0px"
	 viewBox="0 0 512 512" style="enable-background:new 0 0 512 512;" xml:space="preserve">

<style type="text/css">
	/*
	Classes Used by IE and MSEdge with Mono Parent Color Fallback for IE
	Chrome, Chromium Edge, and Firefox use the 'fill' Attributes Over the Classes
	==============================================================================  */
	.toast--color1{
		fill: currentColor;
		fill: var(--color-1, currentColor);
	}

	.toast--color2{
		fill: #FFFFFF;
		fill: var(--color-2, #FFFFFF);
	}
</style>
<circle id="Base_Circle" class="toast--color1" fill="var(--color-1, currentColor)" cx="256" cy="256" r="236.1"/>
<g id="Glass">
	<path id="Glass_Bottom" class="toast--color2" fill="var(--color-2, #FFFFFF)" d="M183.4,222.7c-15.1,38.6,1.8,83,41.6,100.8l-19.6,63.3l-36,0.3c-6.6-1.7-13.5,2.1-15.2,8.8
		c-1.8,6.6,2.2,13.5,8.8,15.2c5.6,1.5,93.1,24.9,96.1,25.7c6.6,1.8,13.4-2.1,15.2-8.8c1.8-6.6-2.2-13.5-8.8-15.2l-33-19.7l16.7-63.6
		c45.9,4.7,80.5-27.4,86.4-66.2l8.3-66.5L194.2,195L183.4,222.7z M310.7,260.9c0,6.9-5.6,12.4-12.4,12.4s-12.4-5.6-12.4-12.4
		c0-6.9,5.6-12.4,12.4-12.4S310.7,254.1,310.7,260.9z M287,208.5c6.9,0,12.4,5.6,12.4,12.4c0,6.9-5.6,12.4-12.4,12.4
		s-12.4-5.6-12.4-12.4C274.5,214.1,280.1,208.5,287,208.5z"/>
	<path id="Glass_Top" class="toast--color2" fill="var(--color-2, #FFFFFF)" d="M349.1,100.7L253,75c-6.2-1.6-12.5,1.6-14.8,7.5l-34.9,89.4l143.2,2.4l11.6-59.7
		C359.1,108.3,355.2,102.4,349.1,100.7z"/>
</g>
</svg>
