<?xml version="1.0" encoding="utf-8"?>
<!-- Generator: Adobe Illustrator 23.1.1, SVG Export Plug-In . SVG Version: 6.00 Build 0)  -->
<svg version="1.1" id="Layer_1" xmlns="http://www.w3.org/2000/svg" xmlns:xlink="http://www.w3.org/1999/xlink" x="0px" y="0px"
	 viewBox="0 0 14 14" style="enable-background:new 0 0 14 14;" xml:space="preserve">
<style type="text/css">
	.st0{fill:#93CCFE;}
	.st1{fill:#434243;}
	.st2{fill:#434143;}
	.st3{fill:#403F40;}
	.st4{fill:#3F3E3F;}
	.st5{fill:#3E3D3E;}
	.st6{fill:#7196B7;}
	.st7{fill:#85AED6;}
	.st8{fill:#7496B7;}
	.st9{fill:#81ABD2;}
	.st10{fill:#9ECDFB;}
	.st11{fill:#C7E4FF;}
	.st12{fill:#9ED0FE;}
	.st13{fill:#91BEEA;}
	.st14{fill:#9CCFFE;}
	.st15{fill:#9ACCFB;}
	.st16{fill:#9CD0FE;}
	.st17{fill:#9ACFFE;}
	.st18{fill:#9DD0FE;}
	.st19{fill:#96CDFE;}
	.st20{fill:#97CDFE;}
	.st21{fill:#98CCFD;}
	.st22{fill:#95CCFE;}
	.st23{fill:#96CCFE;}
	.st24{fill:#8FBEEB;}
	.st25{fill:#94CCFE;}
	.st26{fill:#3D3C3D;}
	.st27{fill:#281E0B;}
	.st28{fill:#493615;}
	.st29{fill:#684E1E;}
	.st30{fill:#896727;}
	.st31{fill:#282828;}
	.st32{fill:#969696;}
</style>
<path class="st0" d="M5,1H1v8h4h4V1H5z"/>
<path class="st1" d="M8,1V0H5H2v1h3H8z"/>
<path class="st2" d="M5,0H4v1h1V0z"/>
<path class="st3" d="M6,0H5v1h1V0z"/>
<path class="st4" d="M7,0H6v1h1V0z"/>
<path class="st5" d="M8,0H7v1h1V0z"/>
<path class="st3" d="M3,2V1H2H1v1h1H3z"/>
<path class="st6" d="M4,1H3v1h1V1z"/>
<path class="st7" d="M5,1H4v1h1V1z"/>
<path class="st8" d="M5,1v1h1h1V1H6H5z"/>
<path class="st5" d="M2,3V2H1H0v1h1H2z"/>
<path class="st9" d="M3,2H2v1h1V2z"/>
<path class="st10" d="M4,2H3v1h1V2z"/>
<path class="st11" d="M4,3v1h1V3V2H4V3z"/>
<path class="st12" d="M6,2H5v1h1V2z"/>
<path class="st13" d="M7,2H6v1h1V2z"/>
<path class="st8" d="M8,2H7v1h1V2z"/>
<path class="st14" d="M2,3H1v1h1V3z"/>
<path class="st15" d="M3,4h1V3H3H2v1H3z"/>
<path class="st14" d="M6,3H5v1h1V3z"/>
<path class="st16" d="M7,3H6v1h1V3z"/>
<path class="st13" d="M8,3H7v1h1V3z"/>
<path class="st17" d="M2,4H1v1h1V4z"/>
<path class="st11" d="M6,4H5v1h1V4z"/>
<path class="st14" d="M7,4H6v1h1V4z"/>
<path class="st18" d="M8,4H7v1h1V4z"/>
<path class="st8" d="M8,5h1V4V3H8v1V5z"/>
<path class="st19" d="M2,5H1v1h1V5z"/>
<path class="st20" d="M6,5H5V4H4H3H2v1v1h1h1v1h1V6h1h1h1V5H7H6z"/>
<path class="st21" d="M9,5H8v1h1V5z"/>
<path class="st22" d="M3,6H2H1v1h1h1V6z"/>
<path class="st23" d="M4,6H3v1h1V6z"/>
<path class="st19" d="M7,6H6H5v1h1h1h1V6H7z"/>
<path class="st24" d="M9,6H8v1h1V6z"/>
<path class="st25" d="M5,8V7H4H3H2v1h1h1H5z"/>
<path class="st22" d="M6,7H5v1h1h1h1V7H7H6z"/>
<path class="st25" d="M5,8v1h1h1V8H6H5z"/>
<path class="st26" d="M9,9V8h1V7V6V5V4V3V2H9V1H8H7v1h1v1h1v1v1v1v1H8v1H7v1H6H5H4H3V8H2V7H1V6V5V4V3H0v1v1v1v1v1h1v1h1v1h1h1h1h1h1
	h1V9H9z"/>
<path class="st27" d="M10,8H9v1h1V8z"/>
<path class="st28" d="M9,9H8v1h1V9z"/>
<path class="st29" d="M10,9H9v1h1V9z"/>
<path class="st27" d="M11,9h-1v1h1V9z"/>
<path class="st28" d="M10,10H9v1h1V10z"/>
<path class="st30" d="M11,10h-1v1h1V10z"/>
<path class="st27" d="M12,10h-1v1h1V10z"/>
<path class="st28" d="M11,11h-1v1h1V11z"/>
<path class="st29" d="M12,11h-1v1h1V11z"/>
<path class="st31" d="M13,11h-1v1h1v1h-1v-1h-1v1v1h1h1h1v-1v-1v-1H13z"/>
<path class="st32" d="M13,12h-1v1h1V12z"/>
</svg>
