<?xml version="1.0" encoding="utf-8"?>
<!-- Generator: Adobe Illustrator 24.0.1, SVG Export Plug-In . SVG Version: 6.00 Build 0)  -->
<svg version="1.1" id="Layer_1" xmlns="http://www.w3.org/2000/svg" xmlns:xlink="http://www.w3.org/1999/xlink" x="0px" y="0px"
	 viewBox="0 0 8 8" style="enable-background:new 0 0 8 8;" xml:space="preserve">
<style type="text/css">
	.st0{fill:#13A90F;}
	.st1{fill:#1F5417;}
	.st2{fill:#A5CD9F;}
	.st3{fill:#4CB341;}
	.st4{fill:#9DC79D;}
	.st5{fill:#D2D2D2;}
	.st6{fill:#85DC74;}
	.st7{fill:#7DCC6E;}
	.st8{fill:#4D904A;}
	.st9{fill:#299326;}
	.st10{fill:#5FC559;}
	.st11{fill:#41B736;}
	.st12{fill:#6EC965;}
	.st13{fill:#4C9148;}
	.st14{fill:#70DC5D;}
	.st15{fill:#65BC55;}
	.st16{fill:#47C536;}
	.st17{fill:#385831;}
	.st18{fill:#93D78C;}
	.st19{fill:#579856;}
	.st20{fill:#1E4E18;}
	.st21{fill:#DCDCDC;}
	.st22{fill:#4CCB3D;}
	.st23{fill:#67CF55;}
	.st24{fill:#47B239;}
	.st25{fill:#173A14;}
	.st26{fill:#78CE67;}
	.st27{fill:#89D282;}
	.st28{fill:#65B757;}
	.st29{fill:#94D78E;}
	.st30{fill:#1C4F14;}
	.st31{fill:#1D4C16;}
	.st32{fill:#C3D2C0;}
	.st33{fill:#488C45;}
	.st34{fill:#5ED04C;}
	.st35{fill:#A4D29A;}
	.st36{fill:#51974E;}
	.st37{fill:#1F5518;}
	.st38{fill:#67D755;}
	.st39{fill:#BFD2BB;}
	.st40{fill:#C2E2BB;}
	.st41{fill:#67A166;}
	.st42{fill:#5FBC50;}
	.st43{fill:#51984D;}
	.st44{fill:#82DE70;}
	.st45{fill:#93D284;}
	.st46{fill:#AED0A8;}
	.st47{fill:#3B8E37;}
	.st48{fill:#68CF57;}
</style>
<path class="st0" d="M8,0H0v8h8V0z"/>
<path class="st1" d="M7,2H1v5h6V2z"/>
<path class="st2" d="M1,0H0v1h1V0z"/>
<path class="st3" d="M3,0H2v1h1V0z"/>
<path class="st4" d="M4,0H3v1h1V0z"/>
<path class="st5" d="M5,0H4v1h1V0z"/>
<path class="st6" d="M6,0H5v1h1V0z"/>
<path class="st7" d="M7,0H6v1h1V0z"/>
<path class="st8" d="M8,0H7v1h1V0z"/>
<path class="st9" d="M1,1H0v1h1V1z"/>
<path class="st10" d="M2,1H1v1h1V1z"/>
<path class="st11" d="M3,1H2v1h1V1z"/>
<path class="st12" d="M4,1H3v1h1V1z"/>
<path class="st13" d="M5,1H4v1h1V1z"/>
<path class="st14" d="M6,1H5v1h1V1z"/>
<path class="st15" d="M7,1H6v1h1V1z"/>
<path class="st5" d="M8,1H7v1h1V1z"/>
<path class="st16" d="M1,2H0v1h1V2z"/>
<path class="st17" d="M3,2H2v1h1V2z"/>
<path class="st18" d="M4,2H3v1h1V2z"/>
<path class="st19" d="M5,2H4v1h1V2z"/>
<path class="st20" d="M6,2H5v1h1V2z"/>
<path class="st17" d="M7,2H6v1h1V2z"/>
<path class="st21" d="M8,2H7v1h1V2z"/>
<path class="st22" d="M1,3H0v1h1V3z"/>
<path class="st20" d="M2,3H1v1h1V3z"/>
<path d="M3,3H2v1h1V3z"/>
<path class="st23" d="M4,3H3v1h1V3z"/>
<path class="st24" d="M5,3H4v1h1V3z"/>
<path d="M6,3H5v1h1V3z"/>
<path class="st25" d="M7,3H6v1h1V3z"/>
<path class="st26" d="M8,3H7v1h1V3z"/>
<path class="st27" d="M1,4H0v1h1V4z"/>
<path class="st28" d="M2,4H1v1h1V4z"/>
<path class="st29" d="M3,4H2v1h1V4z"/>
<path class="st30" d="M4,4H3v1h1V4z"/>
<path class="st31" d="M5,4H4v1h1V4z"/>
<path class="st32" d="M6,4H5v1h1V4z"/>
<path class="st33" d="M7,4H6v1h1V4z"/>
<path class="st34" d="M8,4H7v1h1V4z"/>
<path class="st35" d="M1,5H0v1h1V5z"/>
<path class="st36" d="M2,5H1v1h1V5z"/>
<path class="st17" d="M3,5H2v1h1V5z"/>
<path class="st37" d="M6,5H5v1h1V5z"/>
<path class="st38" d="M7,5H6v1h1V5z"/>
<path class="st39" d="M8,5H7v1h1V5z"/>
<path class="st40" d="M1,6H0v1h1V6z"/>
<path class="st41" d="M2,6H1v1h1V6z"/>
<path d="M5,6V5H4H3v1H2v1h1h1h1h1V6H5z"/>
<path class="st42" d="M7,6H6v1h1V6z"/>
<path class="st43" d="M8,6H7v1h1V6z"/>
<path class="st38" d="M1,7H0v1h1V7z"/>
<path class="st44" d="M2,7H1v1h1V7z"/>
<path class="st25" d="M3,7H2v1h1V7z"/>
<path class="st45" d="M4,7H3v1h1V7z"/>
<path class="st46" d="M5,7H4v1h1V7z"/>
<path class="st31" d="M6,7H5v1h1V7z"/>
<path class="st47" d="M7,7H6v1h1V7z"/>
<path class="st48" d="M8,7H7v1h1V7z"/>
</svg>
