<?xml version="1.0" encoding="utf-8"?>
<!-- Generator: Adobe Illustrator 23.1.1, SVG Export Plug-In . SVG Version: 6.00 Build 0)  -->
<svg version="1.1" id="Layer_1" xmlns="http://www.w3.org/2000/svg" xmlns:xlink="http://www.w3.org/1999/xlink" x="0px" y="0px"
	 viewBox="0 0 13 13" style="enable-background:new 0 0 13 13;" xml:space="preserve">
<style type="text/css">
	.st0{fill:#0E3F36;}
	.st1{fill:#33EBCB;}
	.st2{fill:#2BC7AC;}
	.st3{fill:#27B29A;}
	.st4{fill:#493615;}
	.st5{fill:#17172D;}
	.st6{fill:#896727;}
	.st7{fill:#281E0B;}
	.st8{fill:#684E1E;}
</style>
<path class="st0" d="M6,1h1h1h1V0H8H7H6H5H4v1h1H6z"/>
<path class="st0" d="M4,1H3v1h1V1z"/>
<path class="st1" d="M5,1H4v1h1V1z"/>
<path class="st2" d="M6,1H5v1h1V1z"/>
<path class="st3" d="M7,1H6v1h1h1V1H7z"/>
<path class="st2" d="M9,1H8v1h1V1z"/>
<path class="st0" d="M10,1H9v1h1V1z"/>
<path class="st4" d="M11,1h-1v1h1V1z"/>
<path class="st0" d="M5,2H4v1h1V2z"/>
<path class="st5" d="M7,2H6H5v1h1h1h1V2H7z"/>
<path class="st3" d="M10,3V2H9H8v1h1H10z"/>
<path class="st6" d="M11,2h-1v1h1V2z"/>
<path class="st7" d="M11,3h1V2V1h-1v1V3z"/>
<path class="st4" d="M9,3H8v1h1V3z"/>
<path class="st2" d="M10,3H9v1h1V3z"/>
<path class="st5" d="M12,3h-1v1h1V3z"/>
<path class="st4" d="M8,4H7v1h1V4z"/>
<path class="st8" d="M9,4H8v1h1V4z"/>
<path class="st7" d="M10,4H9v1h1V4z"/>
<path class="st3" d="M11,4V3h-1v1v1h1V4z"/>
<path class="st2" d="M12,4h-1v1h1V4z"/>
<path class="st5" d="M12,4v1v1v1v1v1h1V8V7V6V5V4H12z"/>
<path class="st4" d="M7,5H6v1h1V5z"/>
<path class="st6" d="M8,5H7v1h1V5z"/>
<path class="st7" d="M9,5H8v1h1V5z"/>
<path class="st3" d="M11,6v1h1V6V5h-1V6z"/>
<path class="st4" d="M6,6H5v1h1V6z"/>
<path class="st8" d="M7,6H6v1h1V6z"/>
<path class="st7" d="M8,6H7v1h1V6z"/>
<path class="st4" d="M5,7H4v1h1V7z"/>
<path class="st6" d="M6,7H5v1h1V7z"/>
<path class="st7" d="M7,7H6v1h1V7z"/>
<path class="st5" d="M11,7V6V5h-1v1v1v1v1h1V8V7z"/>
<path class="st2" d="M12,7h-1v1h1V7z"/>
<path class="st4" d="M4,8H3v1h1V8z"/>
<path class="st8" d="M5,8H4v1h1V8z"/>
<path class="st7" d="M6,8H5v1h1V8z"/>
<path class="st1" d="M12,8h-1v1h1V8z"/>
<path class="st4" d="M3,9H2v1h1V9z"/>
<path class="st6" d="M4,9H3v1h1V9z"/>
<path class="st7" d="M5,9H4v1h1V9z"/>
<path class="st5" d="M12,9h-1v1h1V9z"/>
<path class="st4" d="M2,10H1v1h1V10z"/>
<path class="st8" d="M3,10H2v1h1V10z"/>
<path class="st7" d="M4,10H3v1h1V10z"/>
<path class="st4" d="M1,11H0v1h1V11z"/>
<path class="st6" d="M2,11H1v1h1V11z"/>
<path class="st7" d="M3,11H2v1h1V11z"/>
<path class="st7" d="M0,12v1h1h1v-1H1H0z"/>
</svg>
