<?xml version="1.0" encoding="utf-8"?>
<!-- Generator: Adobe Illustrator 24.0.1, SVG Export Plug-In . SVG Version: 6.00 Build 0)  -->
<svg version="1.1" id="Layer_1" xmlns="http://www.w3.org/2000/svg" xmlns:xlink="http://www.w3.org/1999/xlink" x="0px" y="0px"
	 viewBox="0 0 14 16" style="enable-background:new 0 0 14 16;" xml:space="preserve">
<style type="text/css">
	.st0{fill:#3A53AC;}
	.st1{fill:#44440F;}
	.st2{fill:#DEDE90;}
	.st3{fill:#CCCC00;}
	.st4{fill:#E1E1E1;}
	.st5{fill:#33330B;}
	.st6{fill:#FFFF00;}
	.st7{fill:#4968D8;}
	.st8{fill:#181616;}
	.st9{fill:#727218;}
	.st10{fill:#B06C29;}
	.st11{fill:#BEBE29;}
</style>
<polygon class="st0" points="11,5 11,4.3 11,3.7 11,3 9,3 9,2 5,2 5,3 3,3 3,3.7 3,4.3 3,5 2,5 2,6 2,7 2,8 12,8 12,7 12,6 12,5 "/>
<path class="st1" d="M7,1h1h1V0H8H7H6H5v1h1H7z"/>
<path class="st1" d="M5,2V1H4H3v1h1H5z"/>
<path class="st2" d="M6,2h1h1h1V1H8H7H6H5v1H6z"/>
<path class="st1" d="M10,2h1V1h-1H9v1H10z"/>
<path class="st1" d="M3,2H2v1h1V2z"/>
<path class="st2" d="M4,3h1V2H4H3v1H4z"/>
<path class="st2" d="M9,2v1h1h1V2h-1H9z"/>
<path class="st1" d="M12,2h-1v1h1V2z"/>
<path class="st3" d="M7,3H6v1h1h1V3H7z"/>
<path class="st4" d="M12,3h-1v1h1V3z"/>
<path class="st1" d="M13,3h-1v1h1V3z"/>
<path class="st1" d="M2,4V3H1v1v1h1V4z"/>
<path class="st2" d="M2,5h1V4V3H2v1V5z"/>
<path class="st2" d="M12,4h-1v1h1V4z"/>
<path class="st5" d="M13,4h-1v1h1V4z"/>
<path class="st6" d="M9,6V5V4H8H7H6H5v1v1h1v1h1h1V6H9z"/>
<path class="st4" d="M12,6v1v1h1V7V6V5h-1V6z"/>
<path class="st5" d="M13,5v1v1v1v1v1v1v1h1v-1v-1V9V8V7V6V5H13z"/>
<path class="st2" d="M1,7v1v1v1h1v1h1v1h1h1v1h1h1h1h1v-1h1h1v-1h1v-1h1V9V8h-1v1h-1v1h-1H9H8V9V8V7H7v1H6v1v1H5H4H3V9H2V8V7V6V5H1
	v1V7z"/>
<path class="st7" d="M6,6H5V5H4v1v1v1h1h1V7V6z"/>
<path class="st0" d="M12,6V5h-1v1v1v1h1V7V6z"/>
<path class="st0" d="M4,8V7V6V5h1V4h1V3h1h1v1h1h1v1h1V4V3h-1H9V2H8H7H6H5v1H4H3v1v1H2v1v1v1h1H4z"/>
<path class="st4" d="M7,7H6v1h1V7z"/>
<path class="st0" d="M9,7H8v1h1V7z"/>
<path class="st7" d="M9,8h1h1V7V6V5h-1V4H9v1v1H8v1h1V8z"/>
<path class="st1" d="M1,8V7V6V5H0v1v1v1v1h1V8z"/>
<path class="st4" d="M3,8H2v1h1V8z"/>
<path class="st8" d="M4,8H3v1h1h1h1V8H5H4z"/>
<path class="st8" d="M10,8H9H8v1h1h1h1V8H10z"/>
<path class="st4" d="M12,8h-1v1h1V8z"/>
<path class="st4" d="M4,9H3v1h1h1h1V9H5H4z"/>
<path class="st4" d="M9,9H8v1h1h1h1V9h-1H9z"/>
<path class="st5" d="M1,10V9H0v1v1v1h1v-1V10z"/>
<path class="st9" d="M2,10H1v1h1V10z"/>
<path class="st9" d="M13,10h-1v1h1V10z"/>
<path class="st2" d="M2,11H1v1h1V11z"/>
<path class="st9" d="M3,11H2v1h1V11z"/>
<path class="st9" d="M12,11h-1v1h1V11z"/>
<path class="st10" d="M13,11h-1v1h1V11z"/>
<path class="st5" d="M2,12H1v1h1V12z"/>
<path class="st2" d="M3,12H2v1h1V12z"/>
<path class="st9" d="M5,12H4H3v1h1h1V12z"/>
<path class="st9" d="M9,12v1h1h1v-1h-1H9z"/>
<path class="st10" d="M12,12h-1v1h1V12z"/>
<path class="st5" d="M13,12h-1v1h1V12z"/>
<path class="st5" d="M3,13H2v1h1V13z"/>
<path class="st4" d="M4,13H3v1h1V13z"/>
<path class="st11" d="M5,13H4v1h1V13z"/>
<path class="st9" d="M8,13H7H6H5v1h1h1h1h1v-1H8z"/>
<path class="st11" d="M10,13H9v1h1V13z"/>
<path class="st10" d="M11,13h-1v1h1V13z"/>
<path class="st5" d="M12,13h-1v1h1V13z"/>
<path class="st5" d="M4,14H3v1h1h1v-1H4z"/>
<path class="st11" d="M8,14H7H6H5v1h1h1h1h1v-1H8z"/>
<path class="st5" d="M9,14v1h1h1v-1h-1H9z"/>
<path class="st5" d="M7,15H6H5v1h1h1h1h1v-1H8H7z"/>
</svg>
