<?xml version="1.0" encoding="utf-8"?>
<!-- Generator: Adobe Illustrator 23.1.1, SVG Export Plug-In . SVG Version: 6.00 Build 0)  -->
<svg version="1.1" id="iso-block-outline-clock--c" xmlns="http://www.w3.org/2000/svg" xmlns:xlink="http://www.w3.org/1999/xlink" x="0px" y="0px"
	 viewBox="0 0 40 40" style="enable-background:new 0 0 40 40;" xml:space="preserve">

<style type="text/css">
	/*
	Classes Used by IE and MSEdge with Mono Parent Color Fallback for IE
	Chrome, Chromium Edge, and Firefox use the 'fill' Attributes Over the Classes
	==============================================================================  */
	.iso-block-outline-clock--color1{
		fill: currentColor;
		fill: var(--color-1, currentColor);
	}
	.iso-block-outline-clock--color2{
		fill: currentColor;
		fill: var(--color-2, currentColor);
	}
</style>
<path class="iso-block-outline-clock--color1" fill="var(--color-1, currentColor)" d="M20,39L3.3,29.5v-19L20,1l16.7,9.5v19L20,39z M6.2,27.8L20,35.6l13.8-7.8V12.2L20,4.4L6.2,12.2V27.8z"/>
<path class="iso-block-outline-clock--color2" fill="var(--color-2, currentColor)" d="M24.3,25.5l-5.9-4.3c-0.2-0.2-0.3-0.4-0.3-0.7V9.1c0-0.5,0.4-0.8,0.8-0.8h2.2c0.5,0,0.8,0.4,0.8,0.8V19l4.6,3.4
	c0.4,0.3,0.5,0.8,0.2,1.2l-1.3,1.8C25.2,25.7,24.7,25.8,24.3,25.5z"/>
</svg>
