<?xml version="1.0" encoding="utf-8"?>
<!-- Generator: Adobe Illustrator 23.1.1, SVG Export Plug-In . SVG Version: 6.00 Build 0)  -->
<svg version="1.1" id="close_box-x-pixel__7x7--c" xmlns="http://www.w3.org/2000/svg" xmlns:xlink="http://www.w3.org/1999/xlink" x="0px" y="0px"
	 viewBox="0 0 11 11" style="enable-background:new 0 0 11 11;" xml:space="preserve">

<style type="text/css">
	/*
	Classes Used by IE and MSEdge with Mono Parent Color Fallback for IE
	Chrome, Chromium Edge, and Firefox use the 'fill' Attributes Over the Classes
	==============================================================================  */
	.close_box-x-pixel__7x7--color1{
		fill: currentColor;
		fill: var(--color-1, currentColor);
	}
	.close_box-x-pixel__7x7--boxclip{
		fill-rule:evenodd;
		clip-rule:evenodd;
	}

</style>
<rect class="close_box-x-pixel__7x7--color1" fill="var(--color-1, currentColor)" x="3" y="3" width="1" height="1"/>
<rect class="close_box-x-pixel__7x7--color1" fill="var(--color-1, currentColor)" x="2" y="2" width="1" height="1"/>
<rect class="close_box-x-pixel__7x7--color1" fill="var(--color-1, currentColor)" x="8" y="8" width="1" height="1"/>
<rect class="close_box-x-pixel__7x7--color1" fill="var(--color-1, currentColor)" x="2" y="8" width="1" height="1"/>
<rect class="close_box-x-pixel__7x7--color1" fill="var(--color-1, currentColor)" x="8" y="2" width="1" height="1"/>
<rect class="close_box-x-pixel__7x7--color1" fill="var(--color-1, currentColor)" x="4" y="4" width="1" height="1"/>
<rect class="close_box-x-pixel__7x7--color1" fill="var(--color-1, currentColor)" x="5" y="5" width="1" height="1"/>
<rect class="close_box-x-pixel__7x7--color1" fill="var(--color-1, currentColor)" x="6" y="6" width="1" height="1"/>
<rect class="close_box-x-pixel__7x7--color1" fill="var(--color-1, currentColor)" x="7" y="7" width="1" height="1"/>
<rect class="close_box-x-pixel__7x7--color1" fill="var(--color-1, currentColor)" x="4" y="6" width="1" height="1"/>
<rect class="close_box-x-pixel__7x7--color1" fill="var(--color-1, currentColor)" x="6" y="4" width="1" height="1"/>
<rect class="close_box-x-pixel__7x7--color1" fill="var(--color-1, currentColor)" x="7" y="3" width="1" height="1"/>
<rect class="close_box-x-pixel__7x7--color1" fill="var(--color-1, currentColor)" x="3" y="7" width="1" height="1"/>
<path class="close_box-x-pixel__7x7--color1 close_box-x-pixel__7x7--boxclip" fill="var(--color-1, currentColor)" fill-rule="evenodd" clip-rule="evenodd" d="M10,1H1v9h9V1z M0,0v11h11V0H0z"/>
</svg>
