<?xml version="1.0" encoding="utf-8"?>
<!-- Generator: Adobe Illustrator 23.1.1, SVG Export Plug-In . SVG Version: 6.00 Build 0)  -->
<svg version="1.1" id="Layer_1" xmlns="http://www.w3.org/2000/svg" xmlns:xlink="http://www.w3.org/1999/xlink" x="0px" y="0px"
	 viewBox="0 0 16 16" style="enable-background:new 0 0 16 16;" xml:space="preserve">
<style type="text/css">
	.st0{fill:#850404;}
	.st1{fill:#BBC0B7;}
	.st2{fill:#650202;}
	.st3{fill:#957546;}
	.st4{fill:#675231;}
	.st5{fill:#43060D;}
	.st6{fill:#423522;}
	.st7{fill:#372A17;}
	.st8{fill:#A4A7A1;}
	.st9{fill:#68676A;}
	.st10{fill:#765E38;}
</style>
<path class="st0" d="M14,2V1h-2v1v1h2V2z"/>
<path class="st1" d="M7,11V8H4.5H2v3h2.5H7z"/>
<path class="st2" d="M14,1h-1v1h1V1z"/>
<path class="st0" d="M9,10H7v2h2V10z"/>
<path class="st0" d="M5,5V4H3v1v1h2V5z"/>
<path class="st3" d="M5,10V8.7V7.3V6H3v1.3v1.3V10H5z"/>
<path class="st4" d="M14,3h-2v2v2h2V5V3z"/>
<path class="st5" d="M14,2h-1v1h1V2z"/>
<path class="st6" d="M13,4v1h1V4V3h-1V4z"/>
<path class="st2" d="M5,4H4v1h1V4z"/>
<path class="st0" d="M5,9v2h1h1V9H6H5z"/>
<path class="st3" d="M13,4V3h-1v1v1h1V4z"/>
<path class="st5" d="M5,5H4v1h1V5z"/>
<path class="st7" d="M13,6v1h1V6V5h-1V6z"/>
<path class="st4" d="M5,6H4v1h1V6z"/>
<path class="st6" d="M4,8v1h1V8V7H4V8z"/>
<path class="st8" d="M6,9h1V8H6H5v1H6z"/>
<path class="st0" d="M11,8V7H9v1v1h2V8z"/>
<path class="st2" d="M11,7h-1v1h1V7z"/>
<path class="st5" d="M11,8h-1v1h1V8z"/>
<path class="st1" d="M3,9V8H2v1v1h1V9z"/>
<path class="st4" d="M4,9H3v1h1V9z"/>
<path class="st7" d="M5,9H4v1h1V9z"/>
<path class="st8" d="M8,9H7v1h1V9z"/>
<path class="st9" d="M9,9H8v1h1V9z"/>
<path class="st8" d="M3,10H2v1h1V10z"/>
<path class="st5" d="M6,10H5v1h1V10z"/>
<path class="st2" d="M7,10H6v1h1V10z"/>
<path class="st2" d="M9,10H8v1h1V10z"/>
<path class="st3" d="M9,11.7V13h2v-1.3v-1.3V9H9v1.3V11.7z"/>
<path class="st4" d="M11,9h-1v1h1V9z"/>
<path class="st6" d="M10,11v1h1v-1v-1h-1V11z"/>
<path class="st9" d="M4,11H3v1h1h1v-1H4z"/>
<path class="st8" d="M7,12v-1H6H5v1h1H7z"/>
<path class="st5" d="M8,11H7v1h1h1v-1H8z"/>
<path class="st8" d="M11,12v1h1v-1v-1h-1V12z"/>
<path class="st9" d="M6,12H5v1h1h1v-1H6z"/>
<path class="st8" d="M9,13v-1H8H7v1h1H9z"/>
<path class="st10" d="M10,12H9v1h1V12z"/>
<path class="st7" d="M11,12h-1v1h1V12z"/>
<path class="st9" d="M8,13H7v1h1h1v-1H8z"/>
<path class="st8" d="M10,13H9v1h1h1v-1H10z"/>
<path class="st9" d="M12,13h-1v1h1V13z"/>
</svg>
