<?xml version="1.0" encoding="utf-8"?>
<!-- Generator: Adobe Illustrator 23.1.1, SVG Export Plug-In . SVG Version: 6.00 Build 0)  -->
<svg version="1.1" id="Layer_1" xmlns="http://www.w3.org/2000/svg" xmlns:xlink="http://www.w3.org/1999/xlink" x="0px" y="0px"
	 viewBox="0 0 14 13" style="enable-background:new 0 0 14 13;" xml:space="preserve">
<style type="text/css">
	.st0{fill:#20C5B5;}
	.st1{fill:#0E3F36;}
	.st2{fill:#FFFFFF;}
	.st3{fill:#A1FBE8;}
	.st4{fill:#4AEDD9;}
	.st5{fill:#1AAAA7;}
	.st6{fill:#082520;}
</style>
<polygon class="st0" points="14,0 9,0 9,3 5,3 5,0 0,0 0,6 3,6 3,9 3,12 11,12 11,9 11,6 14,6 "/>
<path class="st1" d="M13,0h-1h-1h-1H9v1v1h1V1h1h1h1v1v1v1v1h1V4V3V2V1V0H13z"/>
<path class="st2" d="M2,1H1v1h1V1z"/>
<path class="st3" d="M3,1H2v1h1V1z"/>
<path class="st2" d="M11,1h-1v1h1V1z"/>
<path class="st3" d="M12,1h-1v1h1V1z"/>
<path class="st3" d="M2,2H1v1h1V2z"/>
<path class="st0" d="M5,2H4v1h1V2z"/>
<path class="st1" d="M6,2H5v1h1V2z"/>
<path class="st1" d="M9,2H8v1h1V2z"/>
<path class="st0" d="M10,2H9v1h1V2z"/>
<path class="st3" d="M11,2h-1v1h1V2z"/>
<path class="st4" d="M11,2v1h-1H9v1H8v1H7H6v1H5v1v1H4V7H3v1v1h1v1h1h1h1h1h1V9h1V8V7h1V6V5V4h1h1V3V2V1h-1v1H11z"/>
<path class="st3" d="M5,3H4v1h1V3z"/>
<path class="st0" d="M6,3H5v1h1V3z"/>
<path class="st1" d="M7,4h1V3H7H6v1H7z"/>
<path class="st0" d="M9,3H8v1h1V3z"/>
<path class="st1" d="M1,4V3V2V1h1h1h1v1h1V1V0H4H3H2H1H0v1v1v1v1v1h1V4z"/>
<path class="st5" d="M2,4H1v1h1V4z"/>
<path class="st0" d="M3,4H2v1h1V4z"/>
<path class="st4" d="M4,4V3V2V1H3v1H2v1H1v1h1h1v1h1V4z"/>
<path class="st2" d="M5,4H4v1h1V4z"/>
<path class="st0" d="M12,4h-1v1h1V4z"/>
<path class="st5" d="M13,4h-1v1h1V4z"/>
<path class="st6" d="M1,5H0v1h1h1V5H1z"/>
<path class="st5" d="M3,5H2v1h1V5z"/>
<path class="st5" d="M12,5h-1v1h1V5z"/>
<path class="st6" d="M12,5v1h1h1V5h-1H12z"/>
<path class="st6" d="M11,7v1v1v1v1h1v-1V9V8V7V6h-1V7z"/>
<path class="st3" d="M4,8h1V7V6h1V5h1h1V4H7H6H5v1H4H3v1v1h1V8z"/>
<path class="st0" d="M10,8v1H9v1H8H7H6H5H4v1h1v1h1h1h1h1v-1h1v-1h1V9V8V7h-1V8z"/>
<path class="st6" d="M3,9V8V7V6H2v1v1v1v1v1h1v-1V9z"/>
<path class="st0" d="M4,9H3v1h1V9z"/>
<path class="st5" d="M4,10H3v1h1V10z"/>
<path class="st5" d="M11,10h-1v1h1V10z"/>
<path class="st6" d="M4,11H3v1h1V11z"/>
<path class="st5" d="M5,11H4v1h1V11z"/>
<path class="st5" d="M10,11H9v1h1V11z"/>
<path class="st6" d="M11,11h-1v1h1V11z"/>
<path class="st6" d="M8,12H7H6H5H4v1h1h1h1h1h1h1v-1H9H8z"/>
</svg>
