<?xml version="1.0" encoding="iso-8859-1"?>
<!-- Generator: Adobe Illustrator 23.0.3, SVG Export Plug-In . SVG Version: 6.00 Build 0)  -->
<svg version="1.1" id="expand_icon--c" xmlns="http://www.w3.org/2000/svg" xmlns:xlink="http://www.w3.org/1999/xlink" x="0px" y="0px"
	 viewBox="0 0 12 12" style="enable-background:new 0 0 12 12;" xml:space="preserve">
<style type="text/css">
	/*
	Classes Used by IE and MSEdge with Mono Parent Color Fallback for IE
	Chrome, Chromium Edge, and Firefox use the 'fill' Attributes Over the Classes
	==============================================================================  */
	.expand_icon--color1{
		fill: currentColor;
		fill: var(--color-1, currentColor);
	}
</style>
<g>
	<polygon class="expand_icon--color1" fill="var(--expand_icon--color1, currentColor)" points="11,0 10,0 9,0 8,0 8,1 9,1 9,2 8,2 8,3 7,3 7,4 7,5 8,5 9,5 9,4 10,4 10,3 11,3 11,4 12,4
		12,3 12,2 12,1 12,0 	"/>
	<polygon class="expand_icon--color1" fill="var(--expand_icon--color1, currentColor)" points="4,2 3,2 3,1 4,1 4,0 3,0 2,0 1,0 0,0 0,1 0,2 0,3 0,4 1,4 1,3 2,3 2,4 3,4 3,5 4,5 5,5 5,4
		5,3 4,3 	"/>
	<polygon class="expand_icon--color1" fill="var(--expand_icon--color1, currentColor)" points="3,7 3,8 2,8 2,9 1,9 1,8 0,8 0,9 0,10 0,11 0,12 1,12 2,12 3,12 4,12 4,11 3,11 3,10 4,10
		4,9 5,9 5,8 5,7 4,7 	"/>
	<polygon class="expand_icon--color1" fill="var(--expand_icon--color1, currentColor)" points="11,9 10,9 10,8 9,8 9,7 8,7 7,7 7,8 7,9 8,9 8,10 9,10 9,11 8,11 8,12 9,12 10,12 11,12
		12,12 12,11 12,10 12,9 12,8 11,8 	"/>
</g>
</svg>
