<?xml version="1.0" encoding="utf-8"?>
<!-- Generator: Adobe Illustrator 23.1.1, SVG Export Plug-In . SVG Version: 6.00 Build 0)  -->
<svg version="1.1" id="gear-mono--c" xmlns="http://www.w3.org/2000/svg" xmlns:xlink="http://www.w3.org/1999/xlink" x="0px" y="0px"
	 viewBox="0 0 40 40" style="enable-background:new 0 0 40 40;" xml:space="preserve">

<style type="text/css">
	/*
	Classes Used by IE and MSEdge with Mono Parent Color Fallback for IE
	Chrome, Chromium Edge, and Firefox use the 'fill' Attributes Over the Classes
	==============================================================================  */
	.gear-mono--color1{
		fill: currentColor;
		fill: var(--color-1, currentColor);
	}
</style>
<path class="gear-mono--color1" fill="var(--color-1, currentColor)" d="M35,17h-3v-3h3v-3V8h-3V5h-3h-3v3h-3V5V2h-3h-3v3v3h-3V5h-3H8v3H5v3v3h3v3H5H2v3v3h3h3v3H5v3v3h3v3h3h3v-3h3v3v3h3h3v-3v-3
	h3v3h3h3v-3h3v-3v-3h-3v-3h3h3v-3v-3H35z M20,26h-3v-3h-3v-3v-3h3v-3h3h3v3h3v3v3h-3v3H20z"/>
</svg>
