<?xml version="1.0" encoding="utf-8"?>
<!-- Generator: Adobe Illustrator 24.0.1, SVG Export Plug-In . SVG Version: 6.00 Build 0)  -->
<svg version="1.1" id="gift--c" xmlns="http://www.w3.org/2000/svg" xmlns:xlink="http://www.w3.org/1999/xlink" x="0px" y="0px"
	 viewBox="0 0 200 200" style="enable-background:new 0 0 200 200;" xml:space="preserve">

<style type="text/css">
	/*
	Classes Used by IE and MSEdge with Mono Parent Color Fallback for IE
	Chrome, Chromium Edge, and Firefox use the 'fill' Attributes Over the Classes
	==============================================================================  */
	.gift--color1{
		fill: currentColor;
		fill: var(--color-1, currentColor);
	}
	.gift-Inner_Edges-opacity{opacity:0.5;}
</style>
<g id="gift" class="gift--color1" fill="var(--color-1, currentColor)">
	<path id="Inner_Edges" class="gift-Inner_Edges-opacity" opacity="0.5" d="M182.2,43.3c-1.4-0.9-3.2-0.9-4.8-0.2l-76.6,38.3l-0.2-0.1l-0.1,0l-68-34l0,0L23.8,43
		c-1.2-0.7-2.7-0.7-4-0.2L19.4,43c-1.2,0.6-2,1.7-2.4,3c0,0,0,0.1,0,0.1c0,0.2-0.1,0.3-0.1,0.5c0,0.1,0,0.1,0,0.2c0,0.2,0,0.5,0,0.7
		c0,1.9,1.1,3.5,2.6,4.4l7.2,3.6v-0.1l34.6,17.4l34.7,17.4v101.7c0,1.8,0.9,3.3,2.3,4.2c0.9,0.5,1.8,0.7,2.6,0.7
		c0.7,0,1.4-0.2,2.1-0.4l0.4-0.2c1.4-0.9,2.3-2.5,2.3-4.2V90l76.3-38.2c1.6-0.9,2.6-2.4,2.6-4.3C184.5,45.8,183.6,44.2,182.2,43.3z"
		/>
	<path id="Lid_Split" d="M176.2,74l-74.9,36c-0.4,0.2-1.6,0.4-1.9,0.2L24.3,74c-1.6-0.7-2.6-0.2-2.6,1.4v5.3c0,1.6,1.2,3.3,2.6,4.1
		l74.9,36.1c1.1,0.5,1.4,0.2,2.5-0.4l74.6-35.8c1.6-0.7,2.6-2.5,2.6-4.1v-5.3C179.1,74,177.8,73.3,176.2,74z"/>
	<path id="Border_1_" d="M99.4,199c-1.1,0-2.1-0.2-3.2-0.7l-79-39.7c-2.3-1.2-3.9-3.5-3.9-6.2V47.4c0-2.6,1.4-4.9,3.9-6.2L96.4,1.7
		c1.9-1.1,4.2-1.1,6.2,0l79.1,39.5c2.3,1.2,3.9,3.5,3.9,6.2v105.1c0,2.6-1.4,4.9-3.9,6.2l-79.1,39.5C101.5,198.6,100.4,199,99.4,199
		z M27.3,148.2l72.1,36.1l72.1-36.1V51.8L99.4,15.7L27.3,51.8V148.2z"/>
	<polygon id="Wrap_Ribbon" points="117,45 140.6,32.3 123.7,22.5 99.4,35.6 77.5,23.8 60.5,33.5 81.9,45 50.6,61.9 50.6,164.9
		67.6,174.7 67.6,71.6 99.4,54.5 133.6,72.9 133.6,176 150.6,166.2 150.6,63.1 	"/>
	<path id="Bow" d="M142.3,49.7l8.6-5.3l-19.1-1.2c3.6-2.3,6.8-5.2,9.1-8.7c10.4-16-6-32.9-19-29c-10.1,3.1-17.2,15.8-21.5,26
		c-1,0.8-1.9,1.8-2.6,2.8C95.9,37,93,38.7,89.8,39c-2.4,0.2-4.8,1.1-7,2.8c-0.8,0.6-1.4,1.3-2,2C69.6,44.1,52,46.2,45,55.8
		c-7.9,11,2.7,31.9,21.2,27.4c10.1-2.5,17.9-11.3,22.9-18.8c1.3,0.2,2.6,0.2,3.9-0.1l-1.5,18.4l10.1-11.4l9.2,8.4l-2.3-25.2
		c0.2,0,0.3,0,0.5-0.1c1.9-0.1,3.8-0.7,5.6-1.7c0.9-0.5,1.7-1.1,2.4-1.8l30.2,3.4L142.3,49.7z"/>
</g>
</svg>
