<?xml version="1.0" encoding="utf-8"?>
<!-- Generator: Adobe Illustrator 23.1.1, SVG Export Plug-In . SVG Version: 6.00 Build 0)  -->
<svg version="1.1" id="Layer_1" xmlns="http://www.w3.org/2000/svg" xmlns:xlink="http://www.w3.org/1999/xlink" x="0px" y="0px"
	 viewBox="0 0 16 16" style="enable-background:new 0 0 16 16;" xml:space="preserve">
<style type="text/css">
	.st0{fill:#966C4A;}
	.st1{fill:#6BAB41;}
	.st2{fill:#74B44A;}
	.st3{fill:#76B64C;}
	.st4{fill:#73B349;}
	.st5{fill:#66A63C;}
	.st6{fill:#6FAF45;}
	.st7{fill:#5F9F35;}
	.st8{fill:#6CAC42;}
	.st9{fill:#7EBE54;}
	.st10{fill:#6AAA40;}
	.st11{fill:#67A73D;}
	.st12{fill:#69A93F;}
	.st13{fill:#61A137;}
	.st14{fill:#509026;}
	.st15{fill:#6DAD43;}
	.st16{fill:#75B54B;}
	.st17{fill:#8AB95A;}
	.st18{fill:#81B051;}
	.st19{fill:#83B253;}
	.st20{fill:#68A83E;}
	.st21{fill:#62A238;}
	.st22{fill:#93C263;}
	.st23{fill:#90BF60;}
	.st24{fill:#8DBC5D;}
	.st25{fill:#593D29;}
	.st26{fill:#9CCB6C;}
	.st27{fill:#64A43A;}
	.st28{fill:#70B046;}
	.st29{fill:#7FBF55;}
	.st30{fill:#92C162;}
	.st31{fill:#97C667;}
	.st32{fill:#57972D;}
	.st33{fill:#60A036;}
	.st34{fill:#6C6C6C;}
	.st35{fill:#71B147;}
	.st36{fill:#79553A;}
	.st37{fill:#B9855C;}
	.st38{fill:#878787;}
	.st39{fill:#745844;}
</style>
<path class="st0" d="M0,2v7v7h8h8V9V2H8H0z"/>
<path class="st1" d="M16,0H0v2h16V0z"/>
<path class="st2" d="M1,0H0v1h1V0z"/>
<path class="st3" d="M2,0H1v1h1V0z"/>
<path class="st4" d="M3,0H2v1h1V0z"/>
<path class="st5" d="M4,1h1V0H4H3v1H4z"/>
<path class="st6" d="M6,0H5v1h1V0z"/>
<path class="st7" d="M7,0H6v1h1V0z"/>
<path class="st8" d="M8,0H7v1h1V0z"/>
<path class="st9" d="M9,0H8v1h1V0z"/>
<path class="st3" d="M10,0H9v1h1V0z"/>
<path class="st10" d="M11,0h-1v1h1V0z"/>
<path class="st11" d="M12,0h-1v1h1V0z"/>
<path class="st12" d="M13,0h-1v1h1V0z"/>
<path class="st13" d="M14,0h-1v1h1V0z"/>
<path class="st14" d="M15,0h-1v1h1V0z"/>
<path class="st15" d="M16,0h-1v1h1V0z"/>
<path class="st16" d="M1,1H0v1h1V1z"/>
<path class="st8" d="M2,1H1v1h1V1z"/>
<path class="st17" d="M3,1H2v1h1V1z"/>
<path class="st18" d="M4,1H3v1h1V1z"/>
<path class="st19" d="M5,1H4v1h1V1z"/>
<path class="st20" d="M7,1H6v1h1V1z"/>
<path class="st21" d="M8,1H7v1h1V1z"/>
<path class="st7" d="M9,1H8v1h1V1z"/>
<path class="st22" d="M10,1H9v1h1V1z"/>
<path class="st23" d="M11,1h-1v1h1V1z"/>
<path class="st4" d="M12,1h-1v1h1V1z"/>
<path class="st13" d="M13,1h-1v1h1V1z"/>
<path class="st8" d="M14,1h-1v1h1V1z"/>
<path class="st11" d="M15,1h-1v1h1V1z"/>
<path class="st24" d="M1,2H0v1h1V2z"/>
<path class="st25" d="M2,2H1v1h1V2z"/>
<path class="st26" d="M3,2H2v1h1V2z"/>
<path class="st27" d="M4,2H3v1h1V2z"/>
<path class="st12" d="M5,2H4v1h1V2z"/>
<path class="st25" d="M5,3v1h1h1h1V3V2H7v1H6V2V1H5v1V3z"/>
<path class="st28" d="M7,2H6v1h1V2z"/>
<path class="st2" d="M9,2H8v1h1V2z"/>
<path class="st29" d="M10,2H9v1h1V2z"/>
<path class="st30" d="M11,2h-1v1h1V2z"/>
<path class="st31" d="M12,2h-1v1h1V2z"/>
<path class="st25" d="M13,2h-1v1h1V2z"/>
<path class="st32" d="M14,2h-1v1h1V2z"/>
<path class="st33" d="M15,2h-1v1h1V2z"/>
<path class="st25" d="M16,2h-1v1h1V2z"/>
<path class="st25" d="M1,3H0v1h1V3z"/>
<path class="st34" d="M2,3H1v1h1V3z"/>
<path class="st25" d="M4,3H3H2v1h1h1V3z"/>
<path class="st35" d="M5,3H4v1h1V3z"/>
<path class="st7" d="M9,3H8v1h1V3z"/>
<path class="st15" d="M11,3h-1v1h1V3z"/>
<path class="st25" d="M12,3h-1v1h1V3z"/>
<path class="st25" d="M13,3v1h1v1h1V4V3h-1H13z"/>
<path class="st36" d="M15,4v1h1V4V3h-1V4z"/>
<path class="st0" d="M1,4H0v1h1V4z"/>
<path class="st36" d="M2,4H1v1h1V4z"/>
<path class="st37" d="M4,4H3v1h1V4z"/>
<path class="st25" d="M5,4H4v1h1V4z"/>
<path class="st36" d="M7,5h1V4H7H6v1H7z"/>
<path class="st34" d="M12,4h-1v1h1V4z"/>
<path class="st0" d="M14,4h-1v1h1V4z"/>
<path class="st36" d="M1,5H0v1h1V5z"/>
<path class="st25" d="M2,5H1v1h1V5z"/>
<path class="st0" d="M3,5V4H2v1v1h1h1V5H3z"/>
<path class="st36" d="M5,5H4v1h1V5z"/>
<path class="st0" d="M6,5V4H5v1v1h1V5z"/>
<path class="st25" d="M7,5H6v1h1h1h1V5h1h1V4h-1V3H9v1H8v1H7z"/>
<path class="st36" d="M9,5v1v1h1V6h1V5h-1H9z"/>
<path class="st25" d="M12,5h-1v1h1V5z"/>
<path class="st36" d="M13,5V4V3h-1v1v1v1v1v1h-1v1h-1H9V8H8v1H7v1h1h1h1h1h1V9h1h1V8V7h-1V6h1v1h1V6V5h-1H13z"/>
<path class="st37" d="M16,5h-1v1h1V5z"/>
<path class="st37" d="M1,6H0v1h1V6z"/>
<path class="st38" d="M5,6H4v1h1V6z"/>
<path class="st37" d="M8,6H7v1h1h1V6H8z"/>
<path class="st37" d="M10,6v1h1h1V6h-1H10z"/>
<path class="st0" d="M14,6h-1v1h1V6z"/>
<path class="st0" d="M15,7h-1v1h1h1V7V6h-1V7z"/>
<path class="st37" d="M4,7H3H2v1h1h1V7z"/>
<path class="st0" d="M5,8v1h1V8V7H5H4v1H5z"/>
<path class="st36" d="M7,7V6H6H5v1h1v1v1h1V8h1V7H7z"/>
<path class="st0" d="M9,7H8v1h1V7z"/>
<path class="st25" d="M10,7H9v1h1V7z"/>
<path class="st0" d="M10,7v1H9v1h1h1V8h1V7h-1H10z"/>
<path class="st0" d="M1,8H0v1h1V8z"/>
<path class="st36" d="M1,9h1h1V8H2V7h1h1V6H3H2H1v1H0v1h1V9z"/>
<path class="st0" d="M4,8H3v1h1V8z"/>
<path class="st25" d="M8,8H7v1h1V8z"/>
<path class="st25" d="M15,8h-1v1h1V8z"/>
<path class="st36" d="M16,8h-1v1h1V8z"/>
<path class="st25" d="M3,9H2v1h1V9z"/>
<path class="st36" d="M4,10h1V9V8H4v1H3v1H4z"/>
<path class="st25" d="M5,9v1h1h1V9H6H5z"/>
<path class="st37" d="M14,10V9h-1h-1v1h1H14z"/>
<path class="st36" d="M15,9h-1v1h1V9z"/>
<path class="st0" d="M16,9h-1v1h1V9z"/>
<path class="st36" d="M1,10V9H0v1v1h1V10z"/>
<path class="st0" d="M2,10V9H1v1v1h1V10z"/>
<path class="st37" d="M5,11v-1H4H3v1h1H5z"/>
<path class="st36" d="M6,10H5v1h1V10z"/>
<path class="st37" d="M7,10H6v1h1V10z"/>
<path class="st25" d="M9,10H8v1h1V10z"/>
<path class="st37" d="M10,11h1v-1h-1H9v1H10z"/>
<path class="st25" d="M12,10h-1v1h1V10z"/>
<path class="st0" d="M14,10h-1h-1v1h1v1h1v-1V10z"/>
<path class="st38" d="M15,10h-1v1h1V10z"/>
<path class="st36" d="M16,10h-1v1h1V10z"/>
<path class="st0" d="M1,11H0v1h1V11z"/>
<path class="st36" d="M3,12v-1v-1H2v1H1v1h1H3z"/>
<path class="st37" d="M6,11H5v1h1V11z"/>
<path class="st36" d="M7,11H6v1h1V11z"/>
<path class="st0" d="M7,12h1v-1v-1H7v1V12z"/>
<path class="st34" d="M9,11H8v1h1V11z"/>
<path class="st0" d="M9,11v1h1h1v-1h-1H9z"/>
<path class="st25" d="M13,11h-1v1h1V11z"/>
<path class="st36" d="M15,11h-1v1h1V11z"/>
<path class="st25" d="M16,11h-1v1h1V11z"/>
<path class="st25" d="M2,12H1v1h1V12z"/>
<path class="st0" d="M3,12H2v1h1V12z"/>
<path class="st0" d="M6,13v-1H5v-1H4H3v1h1v1h1H6z"/>
<path class="st37" d="M7,12H6v1h1V12z"/>
<path class="st36" d="M12,12v-1h-1v1h-1H9H8H7v1h1v1h1v-1h1h1h1v1v1h1h1v-1h-1v-1h1v-1h-1H12z"/>
<path class="st37" d="M14,12v1h1h1v-1h-1H14z"/>
<path class="st36" d="M1,13v-1H0v1v1h1V13z"/>
<path class="st0" d="M2,13H1v1h1V13z"/>
<path class="st36" d="M4,14v-1v-1H3v1H2v1h1H4z"/>
<path class="st39" d="M5,13H4v1h1V13z"/>
<path class="st36" d="M6,13H5v1h1V13z"/>
<path class="st0" d="M6,14h1h1v-1H7H6V14z"/>
<path class="st25" d="M10,13H9v1h1V13z"/>
<path class="st37" d="M11,13h-1v1h1V13z"/>
<path class="st25" d="M12,13h-1v1h1V13z"/>
<path class="st37" d="M14,13h-1v1h1V13z"/>
<path class="st0" d="M1,14H0v1v1h1v-1V14z"/>
<path class="st36" d="M2,14H1v1v1h1v-1V14z"/>
<path class="st25" d="M3,14H2v1h1V14z"/>
<path class="st37" d="M4,14H3v1h1V14z"/>
<path class="st36" d="M5,14H4v1h1V14z"/>
<path class="st25" d="M6,14H5v1h1V14z"/>
<path class="st36" d="M7,14H6v1h1V14z"/>
<path class="st25" d="M8,14H7v1h1V14z"/>
<path class="st37" d="M8,14v1h1h1v-1H9H8z"/>
<path class="st0" d="M12,14h-1v1h1V14z"/>
<path class="st37" d="M3,15H2v1h1V15z"/>
<path class="st0" d="M4,15H3v1h1h1v-1H4z"/>
<path class="st36" d="M6,15H5v1h1V15z"/>
<path class="st38" d="M7,15H6v1h1V15z"/>
<path class="st36" d="M8,15H7v1h1V15z"/>
<path class="st0" d="M9,15H8v1h1h1v-1H9z"/>
<path class="st36" d="M11,15v-1h-1v1v1h1h1v-1H11z"/>
<path class="st0" d="M13,15h-1v1h1h1v-1H13z"/>
<path class="st36" d="M15,15h-1v1h1V15z"/>
<path class="st25" d="M16,15h-1v1h1V15z"/>
</svg>
