<?xml version="1.0" encoding="utf-8"?>
<!-- Generator: Adobe Illustrator 24.0.3, SVG Export Plug-In . SVG Version: 6.00 Build 0)  -->
<svg version="1.1" id="Layer_1" xmlns="http://www.w3.org/2000/svg" xmlns:xlink="http://www.w3.org/1999/xlink" x="0px" y="0px"
	 viewBox="0 0 10 10" style="enable-background:new 0 0 10 10;" xml:space="preserve">
<style type="text/css">
	.st0{fill:#F2DABA;}
	.st1{fill:#E59947;}
	.st2{fill:#E58D3F;}
	.st3{fill:#DC933C;}
	.st4{fill:#EBD3B3;}
	.st5{fill:#E4CBA9;}
	.st6{fill:#FBFBFB;}
	.st7{fill:#236224;}
	.st8{fill:#F2DDC2;}
	.st9{fill:#EED6B6;}
	.st10{fill:#EFD9BB;}
	.st11{fill:#F2DBBD;}
	.st12{fill:#EED7B9;}
	.st13{fill:#EFBBB1;}
</style>
<g>
	<path d="M9,0H8H7H6H5H4H3H2H1H0v1v1v1v1v1v1v1v1v1v1h1h1h1h1h1h1h1h1h1h1V9V8V7V6V5V4V3V2V1V0H9z M9,2v1v1v1v1v1v1v1H8H7H6H5H4H3H2
		H1V8V7V6V5V4V3V2V1h1h1h1h1h1h1h1h1V2z"/>
	<polygon class="st0" points="1,1 1,9 5,9 9,9 9,1 5,1 	"/>
	<polygon class="st1" points="8,1 7,1 5,1 4,1 1,1 1,3 1,4 1,5 4,5 4,4 5,4 5,3 7,3 7,4 8,4 8,5 9,5 9,4 9,3 9,1 	"/>
	<rect x="2" y="1" class="st2" width="1" height="1"/>
	<rect x="3" y="1" class="st1" width="1" height="1"/>
	<polygon class="st2" points="5,2 6,2 6,1 5,1 4,1 4,2 	"/>
	<rect x="7" y="1" class="st2" width="1" height="1"/>
	<rect x="8" y="1" class="st1" width="1" height="1"/>
	<rect x="1" y="2" class="st2" width="1" height="1"/>
	<rect x="2" y="2" class="st1" width="1" height="1"/>
	<rect x="3" y="2" class="st2" width="1" height="1"/>
	<rect x="4" y="2" class="st1" width="1" height="1"/>
	<rect x="5" y="2" class="st3" width="1" height="1"/>
	<polygon class="st1" points="6,3 7,3 7,4 8,4 8,3 8,2 7,2 7,1 6,1 6,2 	"/>
	<polygon class="st2" points="8,3 8,4 9,4 9,3 9,2 8,2 	"/>
	<rect x="1" y="3" class="st1" width="1" height="1"/>
	<rect x="2" y="3" class="st2" width="1" height="1"/>
	<rect x="3" y="3" class="st1" width="1" height="1"/>
	<rect x="4" y="3" class="st3" width="1" height="1"/>
	<polygon class="st4" points="5,4 6,4 7,4 7,3 6,3 5,3 	"/>
	<polygon class="st3" points="3,5 4,5 4,4 3,4 2,4 1,4 1,5 2,5 	"/>
	<rect x="4" y="4" class="st4" width="1" height="1"/>
	<rect x="5" y="4" class="st0" width="1" height="1"/>
	<polygon class="st5" points="6,4 6,5 7,5 8,5 8,4 7,4 	"/>
	<rect x="8" y="4" class="st1" width="1" height="1"/>
	<rect x="1" y="5" class="st5" width="1" height="1"/>
	<rect x="2" y="5" class="st6" width="1" height="1"/>
	<rect x="3" y="5" class="st7" width="1" height="1"/>
	<rect x="4" y="5" class="st0" width="1" height="1"/>
	<rect x="5" y="5" class="st8" width="1" height="1"/>
	<rect x="6" y="5" class="st7" width="1" height="1"/>
	<rect x="7" y="5" class="st6" width="1" height="1"/>
	<rect x="8" y="5" class="st5" width="1" height="1"/>
	<rect x="1" y="6" class="st9" width="1" height="1"/>
	<rect x="2" y="6" class="st10" width="1" height="1"/>
	<polygon class="st0" points="4,6 3,6 3,7 3,8 4,8 4,7 	"/>
	<rect x="4" y="6" class="st8" width="1" height="1"/>
	<rect x="5" y="6" class="st0" width="1" height="1"/>
	<rect x="6" y="6" class="st11" width="1" height="1"/>
	<rect x="7" y="6" class="st12" width="1" height="1"/>
	<rect x="8" y="6" class="st0" width="1" height="1"/>
	<rect x="2" y="7" class="st8" width="1" height="1"/>
	<polygon class="st13" points="5,7 4,7 4,8 5,8 6,8 6,7 	"/>
	<polygon class="st0" points="6,7 6,8 7,8 8,8 8,7 7,7 	"/>
	<rect x="8" y="7" class="st4" width="1" height="1"/>
	<polygon class="st0" points="2,8 2,7 1,7 1,8 1,9 2,9 3,9 3,8 	"/>
	<rect x="3" y="8" class="st8" width="1" height="1"/>
	<polygon class="st0" points="5,8 4,8 4,9 5,9 6,9 6,8 	"/>
	<polygon class="st8" points="7,8 6,8 6,9 7,9 8,9 8,8 	"/>
	<rect x="8" y="8" class="st0" width="1" height="1"/>
</g>
</svg>
