<?xml version="1.0" encoding="utf-8"?>
<!-- Generator: Adobe Illustrator 24.0.3, SVG Export Plug-In . SVG Version: 6.00 Build 0)  -->
<svg version="1.1" id="Layer_1" xmlns="http://www.w3.org/2000/svg" xmlns:xlink="http://www.w3.org/1999/xlink" x="0px" y="0px"
	 viewBox="0 0 15 15" style="enable-background:new 0 0 15 15;" xml:space="preserve">
<style type="text/css">
	.st0{fill:#4A3B63;}
	.st1{fill:#040404;}
	.st2{fill:#6D4C91;}
	.st3{fill:#634072;}
	.st4{fill:#47374E;}
	.st5{fill:#2D2133;}
	.st6{fill:#E713F5;}
	.st7{fill:#F428F5;}
	.st8{fill:#D805EF;}
	.st9{fill:#C002E0;}
	.st10{fill:#F544F5;}
	.st11{fill:#322438;}
	.st12{fill:#F566F5;}
	.st13{fill:#DE0AF1;}
	.st14{fill:#BD02DB;}
	.st15{fill:#F221F5;}
	.st16{fill:#CD04E8;}
	.st17{fill:#D908EE;}
	.st18{fill:#C902E5;}
	.st19{fill:#EA15F5;}
	.st20{fill:#F54AF5;}
	.st21{fill:#E10CF2;}
	.st22{fill:#F536F5;}
	.st23{fill:#F56EF5;}
	.st24{fill:#BD02DD;}
	.st25{fill:#F55DF5;}
	.st26{fill:#D406EB;}
	.st27{fill:#F53DF5;}
	.st28{fill:#F593F5;}
	.st29{fill:#EE1DF5;}
	.st30{fill:#F2DABA;}
	.st31{fill:#E59947;}
	.st32{fill:#E58D3F;}
	.st33{fill:#DC933C;}
	.st34{fill:#EBD3B3;}
	.st35{fill:#E4CBA9;}
	.st36{fill:#FBFBFB;}
	.st37{fill:#236224;}
	.st38{fill:#F2DDC2;}
	.st39{fill:#EED6B6;}
	.st40{fill:#EFD9BB;}
	.st41{fill:#F2DBBD;}
	.st42{fill:#EED7B9;}
	.st43{fill:#EFBBB1;}
</style>
<g>
	<rect x="1" y="1" class="st0" width="9" height="12"/>
	<path class="st1" d="M10,0H9H8H7H6H5H4H3H2H1H0v1v1v1v1v1v1v1v1v1v1v1v1v1v1h1h1h1h1h1h1h1h1h1h1h1v-1v-1v-1v-1V9V8V7V6V5V4V3V2V1
		V0H10z M10,2v1v1v1v1v1v1v1v1v1v1v1H9H8H7H6H5H4H3H2H1v-1v-1v-1V9V8V7V6V5V4V3V2V1h1h1h1h1h1h1h1h1h1V2z"/>
	<rect x="3" y="1" class="st2" width="1" height="1"/>
	<rect x="4" y="1" class="st0" width="1" height="1"/>
	<rect x="5" y="1" class="st2" width="1" height="1"/>
	<rect x="6" y="1" class="st3" width="1" height="1"/>
	<rect x="7" y="1" class="st2" width="1" height="1"/>
	<rect x="8" y="1" class="st3" width="1" height="1"/>
	<rect x="9" y="1" class="st4" width="1" height="1"/>
	<polygon class="st4" points="2,2 2,1 1,1 1,2 1,3 2,3 	"/>
	<rect x="8" y="2" class="st4" width="1" height="1"/>
	<polygon class="st5" points="9,3 9,4 8,4 8,5 8,6 8,7 8,8 9,8 9,9 9,10 9,11 9,12 8,12 7,12 6,12 5,12 4,12 3,12 2,12 2,11 3,11 
		3,10 3,9 3,8 3,7 3,6 3,5 3,4 3,3 4,3 5,3 6,3 7,3 8,3 8,2 7,2 6,2 5,2 4,2 3,2 2,2 2,3 1,3 1,4 2,4 2,5 1,5 1,6 1,7 1,8 1,9 1,10 
		1,11 1,12 1,13 2,13 3,13 4,13 5,13 6,13 7,13 8,13 9,13 10,13 10,12 10,11 10,10 10,9 10,8 10,7 10,6 10,5 10,4 10,3 10,2 9,2 	
		"/>
	<rect x="3" y="3" class="st6" width="1" height="1"/>
	<rect x="4" y="3" class="st7" width="1" height="1"/>
	<rect x="5" y="3" class="st8" width="1" height="1"/>
	<rect x="6" y="3" class="st9" width="1" height="1"/>
	<rect x="7" y="3" class="st10" width="1" height="1"/>
	<rect x="8" y="3" class="st11" width="1" height="1"/>
	<rect x="1" y="4" class="st4" width="1" height="1"/>
	<rect x="3" y="4" class="st12" width="1" height="1"/>
	<rect x="4" y="4" class="st13" width="1" height="1"/>
	<rect x="5" y="4" class="st6" width="1" height="1"/>
	<rect x="6" y="4" class="st10" width="1" height="1"/>
	<rect x="7" y="4" class="st9" width="1" height="1"/>
	<rect x="3" y="5" class="st14" width="1" height="1"/>
	<rect x="4" y="5" class="st15" width="1" height="1"/>
	<rect x="5" y="5" class="st9" width="1" height="1"/>
	<rect x="6" y="5" class="st16" width="1" height="1"/>
	<rect x="7" y="5" class="st6" width="1" height="1"/>
	<rect x="3" y="6" class="st17" width="1" height="1"/>
	<rect x="4" y="6" class="st18" width="1" height="1"/>
	<rect x="5" y="6" class="st19" width="1" height="1"/>
	<rect x="6" y="6" class="st20" width="1" height="1"/>
	<rect x="7" y="6" class="st21" width="1" height="1"/>
	<rect x="3" y="7" class="st14" width="1" height="1"/>
	<rect x="4" y="7" class="st22" width="1" height="1"/>
	<rect x="5" y="7" class="st16" width="1" height="1"/>
	<rect x="6" y="7" class="st23" width="1" height="1"/>
	<rect x="7" y="7" class="st24" width="1" height="1"/>
	<rect x="3" y="8" class="st10" width="1" height="1"/>
	<rect x="4" y="8" class="st19" width="1" height="1"/>
	<rect x="5" y="8" class="st13" width="1" height="1"/>
	<rect x="6" y="8" class="st6" width="1" height="1"/>
	<rect x="7" y="8" class="st25" width="1" height="1"/>
	<rect x="3" y="9" class="st26" width="1" height="1"/>
	<rect x="4" y="9" class="st17" width="1" height="1"/>
	<rect x="5" y="9" class="st27" width="1" height="1"/>
	<rect x="6" y="9" class="st21" width="1" height="1"/>
	<rect x="7" y="9" class="st18" width="1" height="1"/>
	<polygon class="st4" points="8,10 8,11 7,11 7,12 8,12 9,12 9,11 9,10 9,9 9,8 8,8 8,9 	"/>
	<rect x="3" y="10" class="st16" width="1" height="1"/>
	<rect x="4" y="10" class="st28" width="1" height="1"/>
	<rect x="5" y="10" class="st29" width="1" height="1"/>
	<rect x="6" y="10" class="st22" width="1" height="1"/>
	<rect x="7" y="10" class="st17" width="1" height="1"/>
	<polygon class="st4" points="3,11 2,11 2,12 3,12 4,12 4,11 	"/>
	<rect x="4" y="11" class="st3" width="1" height="1"/>
	<rect x="5" y="11" class="st4" width="1" height="1"/>
	<rect x="6" y="11" class="st3" width="1" height="1"/>
</g>
<g>
	<path d="M14,5h-1h-1h-1h-1H9H8H7H6H5v1v1v1v1v1v1v1v1v1v1h1h1h1h1h1h1h1h1h1h1v-1v-1v-1v-1v-1V9V8V7V6V5H14z M14,7v1v1v1v1v1v1v1
		h-1h-1h-1h-1H9H8H7H6v-1v-1v-1v-1V9V8V7V6h1h1h1h1h1h1h1h1V7z"/>
	<polygon class="st30" points="6,6 6,14 10,14 14,14 14,6 10,6 	"/>
	<polygon class="st31" points="13,6 12,6 10,6 9,6 6,6 6,8 6,9 6,10 9,10 9,9 10,9 10,8 12,8 12,9 13,9 13,10 14,10 14,9 14,8 14,6 
			"/>
	<rect x="7" y="6" class="st32" width="1" height="1"/>
	<rect x="8" y="6" class="st31" width="1" height="1"/>
	<polygon class="st32" points="10,7 11,7 11,6 10,6 9,6 9,7 	"/>
	<rect x="12" y="6" class="st32" width="1" height="1"/>
	<rect x="13" y="6" class="st31" width="1" height="1"/>
	<rect x="6" y="7" class="st32" width="1" height="1"/>
	<rect x="7" y="7" class="st31" width="1" height="1"/>
	<rect x="8" y="7" class="st32" width="1" height="1"/>
	<rect x="9" y="7" class="st31" width="1" height="1"/>
	<rect x="10" y="7" class="st33" width="1" height="1"/>
	<polygon class="st31" points="11,8 12,8 12,9 13,9 13,8 13,7 12,7 12,6 11,6 11,7 	"/>
	<polygon class="st32" points="13,8 13,9 14,9 14,8 14,7 13,7 	"/>
	<rect x="6" y="8" class="st31" width="1" height="1"/>
	<rect x="7" y="8" class="st32" width="1" height="1"/>
	<rect x="8" y="8" class="st31" width="1" height="1"/>
	<rect x="9" y="8" class="st33" width="1" height="1"/>
	<polygon class="st34" points="10,9 11,9 12,9 12,8 11,8 10,8 	"/>
	<polygon class="st33" points="8,10 9,10 9,9 8,9 7,9 6,9 6,10 7,10 	"/>
	<rect x="9" y="9" class="st34" width="1" height="1"/>
	<rect x="10" y="9" class="st30" width="1" height="1"/>
	<polygon class="st35" points="11,9 11,10 12,10 13,10 13,9 12,9 	"/>
	<rect x="13" y="9" class="st31" width="1" height="1"/>
	<rect x="6" y="10" class="st35" width="1" height="1"/>
	<rect x="7" y="10" class="st36" width="1" height="1"/>
	<rect x="8" y="10" class="st37" width="1" height="1"/>
	<rect x="9" y="10" class="st30" width="1" height="1"/>
	<rect x="10" y="10" class="st38" width="1" height="1"/>
	<rect x="11" y="10" class="st37" width="1" height="1"/>
	<rect x="12" y="10" class="st36" width="1" height="1"/>
	<rect x="13" y="10" class="st35" width="1" height="1"/>
	<rect x="6" y="11" class="st39" width="1" height="1"/>
	<rect x="7" y="11" class="st40" width="1" height="1"/>
	<polygon class="st30" points="9,11 8,11 8,12 8,13 9,13 9,12 	"/>
	<rect x="9" y="11" class="st38" width="1" height="1"/>
	<rect x="10" y="11" class="st30" width="1" height="1"/>
	<rect x="11" y="11" class="st41" width="1" height="1"/>
	<rect x="12" y="11" class="st42" width="1" height="1"/>
	<rect x="13" y="11" class="st30" width="1" height="1"/>
	<rect x="7" y="12" class="st38" width="1" height="1"/>
	<polygon class="st43" points="10,12 9,12 9,13 10,13 11,13 11,12 	"/>
	<polygon class="st30" points="11,12 11,13 12,13 13,13 13,12 12,12 	"/>
	<rect x="13" y="12" class="st34" width="1" height="1"/>
	<polygon class="st30" points="7,13 7,12 6,12 6,13 6,14 7,14 8,14 8,13 	"/>
	<rect x="8" y="13" class="st38" width="1" height="1"/>
	<polygon class="st30" points="10,13 9,13 9,14 10,14 11,14 11,13 	"/>
	<polygon class="st38" points="12,13 11,13 11,14 12,14 13,14 13,13 	"/>
	<rect x="13" y="13" class="st30" width="1" height="1"/>
</g>
</svg>
