<?xml version="1.0" encoding="utf-8"?>
<!-- Generator: Adobe Illustrator 23.1.1, SVG Export Plug-In . SVG Version: 6.00 Build 0)  -->
<svg version="1.1" id="Layer_1" xmlns="http://www.w3.org/2000/svg" xmlns:xlink="http://www.w3.org/1999/xlink" x="0px" y="0px"
	 viewBox="0 0 15 19" style="enable-background:new 0 0 15 19;" xml:space="preserve">
<style type="text/css">
	.st0{fill:#3F3F3F;}
	.st1{fill:#FFFDD6;}
	.st2{fill:#E8E57D;}
	.st3{fill:#FFFCB1;}
	.st4{fill:#2E58DA;}
	.st5{fill:#FFFFFF;}
	.st6{fill:#81807E;}
	.st7{fill:#999896;}
</style>
<path class="st0" d="M6,1h1h1h1h1h1V0h-1H9H8H7H6H5H4v1h1H6z"/>
<path class="st1" d="M14,9.4V8.1V6.9V5.6V4.3V3H1v1.3v1.3v1.3v1.3v1.3v1.3V12h13v-1.3V9.4z"/>
<path class="st0" d="M4,1H3v1h1V1z"/>
<path class="st2" d="M5,1H4v1h1V1z"/>
<path class="st1" d="M9,1H8H7H6H5v1h1h1h1h1h1h1V1h-1H9z"/>
<path class="st0" d="M12,1h-1v1h1V1z"/>
<path class="st0" d="M3,2H2v1h1V2z"/>
<path class="st2" d="M4,2H3v1h1V2z"/>
<path class="st1" d="M5,2H4v1h1V2z"/>
<path class="st3" d="M11,2h-1v1h1V2z"/>
<path class="st1" d="M12,2h-1v1h1V2z"/>
<path class="st0" d="M13,2h-1v1h1V2z"/>
<path class="st0" d="M2,3H1v1h1V3z"/>
<path class="st2" d="M3,3H2v1h1V3z"/>
<path class="st4" d="M9,2H6v3h3V2z"/>
<path class="st0" d="M6,4v1h1h1h1V4V3V2H8H7H6v1V4z M8,3v1H7V3H8z"/>
<path class="st5" d="M9,4h1h1V3h-1V2H9v1V4z"/>
<path class="st3" d="M12,3h-1v1h-1H9v1H8H7H6V4V3V2H5v1H4H3v1H2v1v1v1v1v1v1v1h1v1h1v1h1v1h1v1h1h1v-1h1h1v-1h1v-1h1v-1h1v-1V9V8V7
	V6V5V4h-1V3z M8,13H7H6v-1v-1v-1V9V8V7V6h1h1h1v1v1v1v1v1v1v1H8z"/>
<path class="st1" d="M13,3h-1v1h1V3z"/>
<path class="st0" d="M14,3h-1v1h1V3z"/>
<path class="st0" d="M14,4v1v1v1v1v1v1v1h1v-1V9V8V7V6V5V4H14z"/>
<path class="st0" d="M1,9V8V7V6V5V4H0v1v1v1v1v1v1v1h1v-1V9z"/>
<path class="st2" d="M2,10V9V8V7V6V5V4H1v1v1v1v1v1v1v1h1V10z"/>
<path class="st4" d="M9,10.2V8.8V7.4V6H6v1.4v1.4v1.4v1.4V13h3v-1.4V10.2z"/>
<path class="st0" d="M2,11H1v1h1V11z"/>
<path class="st2" d="M3,11H2v1h1V11z"/>
<path class="st0" d="M9,11v-1V9V8V7V6H8H7H6v1v1v1v1v1v1v1h1h1h1v-1V11z M7,12v-1v-1V9V8V7h1v1v1v1v1v1H7z"/>
<path class="st1" d="M13,11h-1v1h1V11z"/>
<path class="st0" d="M14,11h-1v1h1V11z"/>
<path class="st0" d="M3,12H2v1h1V12z"/>
<path class="st2" d="M4,12H3v1h1V12z"/>
<path class="st1" d="M12,12h-1v1h1V12z"/>
<path class="st0" d="M13,12h-1v1h1V12z"/>
<path class="st0" d="M4,13H3v1h1V13z"/>
<path class="st2" d="M5,13H4v1h1V13z"/>
<path class="st1" d="M11,13h-1v1h1V13z"/>
<path class="st0" d="M12,13h-1v1h1V13z"/>
<path class="st2" d="M6,14H5v1h1V14z"/>
<path class="st1" d="M8,14v1h1h1v-1H9H8z"/>
<path class="st0" d="M10,15v1v1v1h1v-1v-1v-1v-1h-1V15z"/>
<path class="st6" d="M8,15H7H6H5v1h1h1h1h1h1v-1H9H8z"/>
<path class="st0" d="M5,16v-1v-1H4v1v1v1v1h1v-1V16z"/>
<path class="st7" d="M8,16H7H6H5v1h1h1h1h1h1v-1H9H8z"/>
<path class="st6" d="M9,17H8H7H6H5v1h1h1h1h1h1v-1H9z"/>
<path class="st0" d="M8,18H7H6H5v1h1h1h1h1h1v-1H9H8z"/>
</svg>
