<?xml version="1.0" encoding="utf-8"?>
<!-- Generator: Adobe Illustrator 23.1.1, SVG Export Plug-In . SVG Version: 6.00 Build 0)  -->
<svg version="1.1" id="Layer_1" xmlns="http://www.w3.org/2000/svg" xmlns:xlink="http://www.w3.org/1999/xlink" x="0px" y="0px"
	 viewBox="0 0 9 12" style="enable-background:new 0 0 9 12;" xml:space="preserve">
<style type="text/css">
	.st0{fill:#FFFDD6;}
	.st1{fill:#E8E57D;}
	.st2{fill:#FFFCB1;}
	.st3{fill:#FFFFFF;}
	.st4{fill:#2E58DA;}
	.st5{fill:#999896;}
	.st6{fill:#81807E;}
</style>
<path d="M4,1h1h1h1V0H6H5H4H3H2v1h1H4z"/>
<path class="st0" d="M8,5.2V3.8V2.4V1H1v1.4v1.4v1.4v1.4V8h7V6.6V5.2z"/>
<path d="M2,1H1v1h1V1z"/>
<path class="st1" d="M3,1H2v1h1V1z"/>
<path class="st0" d="M4,1H3v1h1V1z"/>
<path class="st2" d="M5,1H4v1h1V1z"/>
<path class="st3" d="M6,1H5v1v1h1h1V2H6V1z"/>
<path class="st0" d="M7,1H6v1h1V1z"/>
<path d="M8,1H7v1h1V1z"/>
<path class="st4" d="M5,2H4v1h1V2z"/>
<path d="M8,2v1v1v1v1v1h1V6V5V4V3V2H8z"/>
<path class="st2" d="M5,3H4V2H3H2v1v1v1v1v1h1v1h1v1h1V8h1V7h1V6V5V4V3H6H5z M4,7V6V5V4h1v1v1v1H4z"/>
<path d="M1,5V4V3V2H0v1v1v1v1v1h1V6V5z"/>
<path class="st4" d="M5,5V4H4v1v1v1h1V6V5z"/>
<path class="st1" d="M2,6V5V4V3V2H1v1v1v1v1v1h1V6z"/>
<path d="M2,7H1v1h1V7z"/>
<path class="st1" d="M3,7H2v1h1V7z"/>
<path class="st0" d="M7,7H6v1h1V7z"/>
<path d="M8,7H7v1h1V7z"/>
<path class="st1" d="M4,8H3v1h1V8z"/>
<path class="st0" d="M6,8H5v1h1V8z"/>
<path d="M6,9v1v1h1v-1V9V8H6V9z"/>
<path d="M3,9V8H2v1v1v1h1v-1V9z"/>
<path class="st5" d="M4,9H3v1h1h1h1V9H5H4z"/>
<path class="st6" d="M5,10H4H3v1h1h1h1v-1H5z"/>
<path d="M4,11H3v1h1h1h1v-1H5H4z"/>
</svg>
