<?xml version="1.0" encoding="iso-8859-1"?>
<!-- Generator: Adobe Illustrator 23.0.3, SVG Export Plug-In . SVG Version: 6.00 Build 0)  -->
<svg version="1.1" id="Layer_1" xmlns="http://www.w3.org/2000/svg" xmlns:xlink="http://www.w3.org/1999/xlink" x="0px" y="0px"
	 viewBox="0 0 16 16" style="enable-background:new 0 0 16 16;" xml:space="preserve">
<g>
	<rect x="8" y="1" style="fill:#473E53;" width="1" height="1"/>
	<rect x="7" y="2" style="fill:#464968;" width="1" height="1"/>
	<polygon style="fill:#564B63;" points="9,3 8,3 7,3 7,4 8,4 9,4 	"/>
	<rect x="8" y="4" style="fill:#473E53;" width="1" height="1"/>
	<rect x="6" y="5" style="fill:#473E53;" width="1" height="1"/>
	<polygon style="fill:#464968;" points="8,6 9,6 9,5 8,5 7,5 7,6 	"/>
	<rect x="9" y="5" style="fill:#473E53;" width="1" height="1"/>
	<rect x="6" y="6" style="fill:#8B5230;" width="1" height="1"/>
	<polygon style="fill:#6E2F21;" points="8,6 7,6 7,7 8,7 9,7 9,6 	"/>
	<rect x="9" y="6" style="fill:#8B5230;" width="1" height="1"/>
	<rect x="5" y="7" style="fill:#473E53;" width="1" height="1"/>
	<polygon style="fill:#63587E;" points="7,8 8,8 9,8 10,8 10,7 9,7 8,7 7,7 6,7 6,8 	"/>
	<rect x="10" y="7" style="fill:#473E53;" width="1" height="1"/>
	<rect x="5" y="8" style="fill:#6E2F21;" width="1" height="1"/>
	<rect x="6" y="8" style="fill:#C36322;" width="1" height="1"/>
	<polygon style="fill:#F09149;" points="8,9 9,9 9,8 8,8 7,8 7,9 	"/>
	<rect x="9" y="8" style="fill:#C36322;" width="1" height="1"/>
	<rect x="10" y="8" style="fill:#6E2F21;" width="1" height="1"/>
	<rect x="5" y="9" style="fill:#8B5230;" width="1" height="1"/>
	<rect x="6" y="9" style="fill:#F09149;" width="1" height="1"/>
	<polygon style="fill:#F9C966;" points="7,9 7,10 8,10 9,10 9,9 8,9 	"/>
	<rect x="9" y="9" style="fill:#F09149;" width="1" height="1"/>
	<rect x="10" y="9" style="fill:#8B5230;" width="1" height="1"/>
	<rect x="7" y="10" style="fill:#FFFFD5;" width="1" height="1"/>
	<rect x="8" y="10" style="fill:#FDFD8B;" width="1" height="1"/>
	<polygon style="fill:#F9C966;" points="9,11 9,12 10,12 10,11 10,10 9,10 	"/>
	<polygon style="fill:#AA6339;" points="10,11 10,12 11,12 11,11 11,10 10,10 	"/>
	<polygon style="fill:#AA6339;" points="6,11 6,10 5,10 5,11 5,12 6,12 	"/>
	<polygon style="fill:#F9C966;" points="7,11 7,10 6,10 6,11 6,12 7,12 	"/>
	<rect x="7" y="11" style="fill:#FDFD8B;" width="1" height="1"/>
	<rect x="8" y="11" style="fill:#FFFFD5;" width="1" height="1"/>
	<rect x="5" y="12" style="fill:#814023;" width="1" height="1"/>
	<rect x="6" y="12" style="fill:#F09149;" width="1" height="1"/>
	<polygon style="fill:#F9C966;" points="8,12 7,12 7,13 8,13 9,13 9,12 	"/>
	<rect x="9" y="12" style="fill:#F09149;" width="1" height="1"/>
	<rect x="10" y="12" style="fill:#814023;" width="1" height="1"/>
	<rect x="5" y="13" style="fill:#473E53;" width="1" height="1"/>
	<polygon style="fill:#63587E;" points="9,13 8,13 7,13 6,13 6,14 7,14 8,14 9,14 10,14 10,13 	"/>
	<rect x="10" y="13" style="fill:#473E53;" width="1" height="1"/>
</g>
</svg>
