<?xml version="1.0" encoding="utf-8"?>
<!-- Generator: Adobe Illustrator 24.1.2, SVG Export Plug-In . SVG Version: 6.00 Build 0)  -->
<svg version="1.1" id="Layer_1" xmlns="http://www.w3.org/2000/svg" xmlns:xlink="http://www.w3.org/1999/xlink" x="0px" y="0px"
	 viewBox="0 0 11 11" style="enable-background:new 0 0 11 11;" xml:space="preserve">
<style type="text/css">
	.st0{fill:#FFDC18;}
	.st1{fill:#B17818;}
	.st2{fill:#FFFCCD;}
	.st3{fill:#402A00;}
	.st4{fill:#432B05;}
	.st5{fill:#3F2704;}
	.st6{fill:#FFFED9;}
	.st7{fill:#FFDC16;}
	.st8{fill:#FFE263;}
	.st9{fill:#CC9915;}
	.st10{fill:#4E2F09;}
	.st11{fill:#3C2400;}
</style>
<polygon class="st0" points="9,2 9,1 2,1 2,2 1,2 1,4.3 1,6.7 1,9 2,9 2,10 9,10 9,9 10,9 10,6.7 10,4.3 10,2 "/>
<path class="st1" d="M7,8H6H5H4H3v3h1h1h1h1h1V8H7z"/>
<path class="st2" d="M4,3h1h1h1h1V0H7H6H5H4H3v3H4z"/>
<path class="st3" d="M5.5,1h1.2H8V0H6.8H5.5H4.2H3v1h1.2H5.5z"/>
<path class="st4" d="M8,0H7v1h1V0z"/>
<path class="st4" d="M3,1H2v1h1V1z"/>
<path class="st5" d="M9,1H8v1h1V1z"/>
<path class="st4" d="M2,2H1v1h1V2z"/>
<path class="st6" d="M3,2H2v1h1V2z"/>
<path class="st7" d="M6,8H5H4H3v1h1h1h1h1V8H6z"/>
<path class="st0" d="M6,7H5V6V5H4v1v1v1h1h1h1V7V6V5H6v1V7z"/>
<path class="st7" d="M4,4h1h1h1V3H6H5V2H4H3v1h1V4z"/>
<path class="st7" d="M3,3H2v1h1V3z"/>
<path class="st0" d="M6,4H5v1h1V4z"/>
<path class="st7" d="M3,8V7H2V6V5V4H1v1v1v1v1h1H3z"/>
<path class="st0" d="M3,8H2v1h1V8z"/>
<path class="st0" d="M9,8H1v1h8V8z"/>
<path class="st7" d="M9,4H8v1v1v1v1h1V7h1V6V5V4V3H9V4z"/>
<path class="st8" d="M7,2H6H5v1h1h1h1v1h1V3V2H8H7z"/>
<path class="st5" d="M10,2H9v1h1V2z"/>
<path class="st6" d="M2,3H1v1h1V3z"/>
<path class="st5" d="M10,3v1v1v1v1v1h1V7V6V5V4V3H10z"/>
<path class="st9" d="M5,6v1h1V6V5H5V6z"/>
<path class="st5" d="M1,6V5V4V3H0v1v1v1v1v1h1V7V6z"/>
<path class="st9" d="M8,6V5V4V3H7v1H6v1h1v1v1v1h1V7V6z"/>
<path class="st9" d="M4,7V6V5h1V4H4V3H3v1v1v1v1v1h1V7z"/>
<path class="st1" d="M10,7H9v1h1V7z"/>
<path class="st10" d="M2,8H1v1h1V8z"/>
<path class="st1" d="M9,8H8v1h1V8z"/>
<path class="st4" d="M10,8H9v1h1V8z"/>
<path class="st11" d="M3,9H2v1h1V9z"/>
<path class="st3" d="M9,9H8v1h1V9z"/>
<path class="st11" d="M6,10H5H4H3v1h1h1h1h1h1v-1H7H6z"/>
</svg>
