<?xml version="1.0" encoding="utf-8"?>
<!-- Generator: Adobe Illustrator 24.0.3, SVG Export Plug-In . SVG Version: 6.00 Build 0)  -->
<svg version="1.1" id="Layer_1" xmlns="http://www.w3.org/2000/svg" xmlns:xlink="http://www.w3.org/1999/xlink" x="0px" y="0px"
	 viewBox="0 0 25 27" style="enable-background:new 0 0 25 27;" xml:space="preserve">
<style type="text/css">
	.st0{display:none;}
	.st1{display:inline;fill:#FED639;}
	.st2{display:inline;fill:#9C4F16;}
	.st3{display:inline;fill:#8F7E39;fill-opacity:0.9961;}
	.st4{display:inline;fill:#907E39;}
	.st5{display:inline;fill:#CFB347;}
	.st6{display:inline;fill:#F6D03A;}
	.st7{display:inline;fill:#C7AF4D;}
	.st8{display:inline;fill:#EFCA3D;}
	.st9{display:inline;fill:#AB9438;}
	.st10{display:inline;fill:#DFBE39;}
	.st11{display:inline;fill:#A38E39;}
	.st12{display:inline;fill:#D5B539;}
	.st13{display:inline;fill:#FDD439;}
	.st14{display:inline;fill:#9F8A38;}
	.st15{display:inline;fill:#C8AB38;}
	.st16{display:inline;fill:#F8D039;}
	.st17{display:inline;fill:#9D8938;}
	.st18{display:inline;fill:#BEA238;}
	.st19{display:inline;fill:#F1CC38;}
	.st20{display:inline;fill:#9C8838;fill-opacity:0.9961;}
	.st21{display:inline;fill:#CEB038;}
	.st22{display:inline;fill:#FDE99A;fill-opacity:0.9961;}
	.st23{display:inline;fill:#9C5016;}
	.st24{display:inline;fill:#D2B338;}
	.st25{display:inline;fill:#FEDC52;}
	.st26{display:inline;fill:#FED842;}
	.st27{display:inline;fill:#FEEA9B;}
	.st28{display:inline;fill:#AD9C58;}
	.st29{display:inline;fill:#CCB148;}
	.st30{display:inline;fill:#F4CF3B;}
	.st31{fill:#907E39;}
	.st32{fill:#FDE99A;}
	.st33{fill:#FED639;}
	.st34{fill:#9C4F16;}
	.st35{display:none;fill:#9C4F16;}
</style>
<g id="Raster_Conversion" class="st0">
	<polygon class="st1" points="24,8 23,8 23,7 23,6 23,5 22,5 21,5 21,4 20,4 19,4 19,3 18,3 17,3 17,2 16,2 16,1 15,1 14,1 14,0 
		13,0 12,0 11,0 11,1 10,1 9,1 9,2 8,2 8,3 7,3 6,3 6,4 5,4 4,4 4,6 3,6 2,6 2,7 2,8 1,9 1,10 1,11 1,12 1,13 1,14 1,15 1,16 1,17 
		1,18 1,19 1,20 1,21 1,22 2,22 3,22 3,23 4,23 5,23 5,24 6,24 7,24 7,25 8,25 9,25 9,26 10,26 11,26 15,26 15,25 16,25 17,25 
		17,24 18,24 19,24 19,23 20,23 21,23 21,22 22,22 23,22 23,21 24,21 25,21 25,20 25,19 25,18 25,17 25,16 25,15 25,14 25,13 25,12 
		25,11 25,10 25,9 25,8 	"/>
	<polygon class="st2" points="11,9 11,10 11,11 11,12 11,13 11,14 11,15 11,16 11,17 11,18 11,19 11,20 12,20 12,19 13,19 13,18 
		14,17 15,17 15,16 16,16 16,15 17,15 17,14 18,14 18,13 17,13 17,12 16,12 16,11 15,11 15,10 14,10 13,9 13,8 12,8 12,7 11,7 11,8 
			"/>
	<rect x="9" y="1" class="st3" width="7" height="1"/>
	<polygon class="st4" points="13,1 13,0 12,0 11,0 11,1 12,1 	"/>
	<rect x="13" y="0" class="st3" width="1" height="1"/>
	<polygon class="st4" points="11,2 11,1 10,1 9,1 9,2 10,2 	"/>
	<rect x="11" y="1" class="st5" width="1" height="1"/>
	<rect x="12" y="1" class="st6" width="1" height="1"/>
	<rect x="13" y="1" class="st5" width="1" height="1"/>
	<rect x="14" y="1" class="st4" width="1" height="1"/>
	<polygon class="st4" points="9,3 9,2 8,2 7,2 7,3 8,3 	"/>
	<rect x="9" y="2" class="st7" width="1" height="1"/>
	<rect x="10" y="2" class="st8" width="1" height="1"/>
	<rect x="14" y="2" class="st8" width="1" height="1"/>
	<rect x="15" y="2" class="st7" width="1" height="1"/>
	<rect x="16" y="2" class="st4" width="1" height="1"/>
	<rect x="17" y="2" class="st3" width="1" height="1"/>
	<polygon class="st4" points="7,4 7,3 6,3 5,3 5,4 6,4 	"/>
	<rect x="7" y="3" class="st9" width="1" height="1"/>
	<rect x="8" y="3" class="st10" width="1" height="1"/>
	<rect x="16" y="3" class="st10" width="1" height="1"/>
	<rect x="17" y="3" class="st9" width="1" height="1"/>
	<rect x="18" y="3" class="st4" width="1" height="1"/>
	<rect x="18" y="3" class="st3" width="2" height="1"/>
	<rect x="4" y="4" class="st4" width="1" height="1"/>
	<rect x="5" y="4" class="st11" width="1" height="1"/>
	<rect x="6" y="4" class="st12" width="1" height="1"/>
	<rect x="7" y="4" class="st13" width="1" height="1"/>
	<rect x="17" y="4" class="st13" width="1" height="1"/>
	<rect x="18" y="4" class="st12" width="1" height="1"/>
	<rect x="19" y="4" class="st11" width="1" height="1"/>
	<rect x="20" y="4" class="st3" width="1" height="1"/>
	<rect x="2" y="5" class="st4" width="1" height="1"/>
	<rect x="3" y="5" class="st14" width="1" height="1"/>
	<rect x="4" y="5" class="st15" width="1" height="1"/>
	<rect x="5" y="5" class="st16" width="1" height="1"/>
	<rect x="19" y="5" class="st16" width="1" height="1"/>
	<rect x="20" y="5" class="st15" width="1" height="1"/>
	<rect x="21" y="5" class="st14" width="1" height="1"/>
	<rect x="22" y="5" class="st3" width="1" height="1"/>
	<rect x="1" y="6" class="st17" width="1" height="1"/>
	<rect x="2" y="6" class="st18" width="1" height="1"/>
	<rect x="3" y="6" class="st19" width="1" height="1"/>
	<rect x="21" y="6" class="st19" width="1" height="1"/>
	<rect x="22" y="6" class="st18" width="1" height="1"/>
	<rect x="23" y="6" class="st20" width="1" height="1"/>
	<rect x="1" y="7" class="st21" width="1" height="1"/>
	<rect x="24" y="7" class="st22" width="1" height="1"/>
	<rect x="24" y="8" class="st22" width="1" height="1"/>
	<rect x="13" y="9" class="st23" width="1" height="1"/>
	<rect x="24" y="9" class="st22" width="1" height="1"/>
	<rect x="14" y="10" class="st23" width="1" height="1"/>
	<rect x="24" y="10" class="st22" width="1" height="1"/>
	<rect x="15" y="11" class="st23" width="1" height="1"/>
	<rect x="24" y="11" class="st22" width="1" height="1"/>
	<rect x="16" y="12" class="st23" width="1" height="1"/>
	<rect x="24" y="12" class="st22" width="1" height="1"/>
	<rect x="17" y="13" class="st23" width="1" height="1"/>
	<rect x="24" y="13" class="st22" width="1" height="1"/>
	<rect x="16" y="14" class="st23" width="1" height="1"/>
	<rect x="24" y="14" class="st22" width="1" height="1"/>
	<rect x="15" y="15" class="st23" width="1" height="1"/>
	<rect x="24" y="15" class="st22" width="1" height="1"/>
	<rect x="14" y="16" class="st23" width="1" height="1"/>
	<rect x="24" y="16" class="st22" width="1" height="1"/>
	<rect x="13" y="17" class="st23" width="1" height="1"/>
	<rect x="24" y="17" class="st22" width="1" height="1"/>
	<polygon class="st24" points="2,18 2,17 2,16 2,15 2,14 2,13 2,12 2,11 2,10 2,9 2,8 1,8 1,9 1,10 1,11 1,12 1,13 1,14 1,15 1,16 
		1,17 1,18 1,19 2,19 	"/>
	<rect x="24" y="18" class="st22" width="1" height="1"/>
	<polygon class="st4" points="1,19 1,18 1,17 1,16 1,15 1,14 1,13 1,12 1,11 1,10 1,9 1,8 1,7 0,7 0,8 0,9 0,10 0,11 0,12 0,13 
		0,14 0,15 0,16 0,17 0,18 0,19 0,20 0,21 1,21 1,20 	"/>
	<rect x="1" y="19" class="st21" width="1" height="1"/>
	<polygon class="st25" points="24,19 24,18 24,17 24,16 24,15 24,14 24,13 24,12 24,11 24,10 24,9 24,8 24,7 23,7 23,8 23,9 23,10 
		23,11 23,12 23,13 23,14 23,15 23,16 23,17 23,18 23,19 23,20 23,21 24,21 24,20 	"/>
	<rect x="24" y="19" class="st22" width="1" height="1"/>
	<rect x="1" y="20" class="st17" width="1" height="1"/>
	<polygon class="st26" points="21,20 21,21 22,21 23,21 23,20 22,20 	"/>
	<rect x="24" y="20" class="st22" width="1" height="1"/>
	<polygon class="st26" points="19,21 19,22 20,22 21,22 21,21 20,21 	"/>
	<rect x="21" y="21" class="st25" width="1" height="1"/>
	<rect x="22" y="21" class="st27" width="1" height="1"/>
	<rect x="23" y="21" class="st22" width="1" height="1"/>
	<polygon class="st26" points="17,22 17,23 18,23 19,23 19,22 18,22 	"/>
	<rect x="19" y="22" class="st25" width="1" height="1"/>
	<rect x="20" y="22" class="st27" width="1" height="1"/>
	<rect x="21" y="22" class="st22" width="1" height="1"/>
	<polygon class="st26" points="15,23 15,24 16,24 17,24 17,23 16,23 	"/>
	<rect x="17" y="23" class="st25" width="1" height="1"/>
	<rect x="18" y="23" class="st27" width="1" height="1"/>
	<rect x="19" y="23" class="st22" width="1" height="1"/>
	<polygon class="st28" points="8,24 8,23 7,23 6,23 6,22 5,22 4,22 4,21 3,21 2,21 1,21 1,22 2,22 3,22 3,23 4,23 5,23 5,24 6,24 
		7,24 7,25 8,25 9,25 9,24 	"/>
	<rect x="9" y="24" class="st7" width="1" height="1"/>
	<polygon class="st26" points="13,24 13,25 14,25 15,25 15,24 14,24 	"/>
	<rect x="15" y="24" class="st25" width="1" height="1"/>
	<rect x="16" y="24" class="st27" width="1" height="1"/>
	<rect x="17" y="24" class="st22" width="1" height="1"/>
	<polygon class="st28" points="10,25 9,25 9,26 10,26 11,26 11,25 	"/>
	<rect x="11" y="25" class="st29" width="1" height="1"/>
	<polygon class="st30" points="13,25 12,25 12,26 12,27 13,27 13,26 	"/>
	<rect x="13" y="25" class="st25" width="1" height="1"/>
	<rect x="14" y="25" class="st27" width="1" height="1"/>
	<rect x="15" y="25" class="st22" width="1" height="1"/>
	<rect x="11" y="26" class="st28" width="1" height="1"/>
	<rect x="13" y="26" class="st22" width="1" height="1"/>
</g>
<path id="OuterBottomRight" class="st31" d="M12.5,0l12.1,6.5v14L12.5,27L0.4,20.5v-14L12.5,0z"/>
<path id="OuterTopLeft_2_" class="st32" d="M0.4,20.5v-14L12.5,0l12.1,6.5l-1.9,0.9L2.3,19.6L0.4,20.5z"/>
<path id="Inner" class="st33" d="M12.5,1.9l10.2,5.6v12.1l-10.2,5.6L2.3,19.6V7.4L12.5,1.9z"/>
<path id="Arrow_Right_3Pwidth" class="st34" d="M9.9,20h2.6v-2.6h2.6v-2.6h2.6v-2.6h-2.6V9.7h-2.6V7.1H9.9V20z"/>
<path id="Arrow_Left_3Pwidth" class="st35" d="M15.1,7.1h-2.6v2.6H9.9v2.6H7.3v2.6h2.6v2.5h2.6V20h2.6V7.1z"/>
<path id="Arrow_4Pwidth" class="st35" d="M9.8,8.9v1.9v1.9v1.9v1.9v1.9V20h1.9v-1.9h1.9v-1.9h1.9v-1.9h1.9v-1.9h-1.9v-1.9h-1.9V8.9
	h-1.9V7H9.8V8.9z"/>
</svg>
