<?xml version="1.0" encoding="utf-8"?>
<!-- Generator: Adobe Illustrator 23.1.1, SVG Export Plug-In . SVG Version: 6.00 Build 0)  -->
<svg version="1.1" id="paperclip--c" xmlns="http://www.w3.org/2000/svg" xmlns:xlink="http://www.w3.org/1999/xlink" x="0px" y="0px"
	 viewBox="0 0 7 14" style="enable-background:new 0 0 7 14;" xml:space="preserve">

<style type="text/css">
	/*
	Classes Used by IE and MSEdge with Mono Parent Color Fallback for IE
	Chrome, Chromium Edge, and Firefox use the 'fill' Attributes Over the Classes
	==============================================================================  */
	.paperclip--color1{
		fill: currentColor;
		fill: var(--color-1, currentColor);
	}
</style>
<g class="paperclip--color1" fill="var(--color-1, currentColor)" x="0" y="0" width="7" height="14" >
	<path d="M3,1h1V0H3H2H1v1h1H3z"/>
	<path d="M4,3v1v1v1v1v1v1v1v1h1v-1V9V8V7V6V5V4V3V2V1H4v1V3z"/>
	<path d="M6,3v1v1v1v1v1v1v1v1v1h1v-1v-1V9V8V7V6V5V4V3H6z"/>
	<path d="M3,9V8V7V6V5V4V3V2H2v1v1v1v1v1v1v1v1v1h1v-1V9z"/>
	<path d="M1,10V9V8V7V6V5V4V3V2V1H0v1v1v1v1v1v1v1v1v1v1v1h1v-1V10z"/>
	<path d="M4,11H3v1h1V11z"/>
	<path d="M2,12H1v1h1V12z"/>
	<path d="M6,12H5v1h1V12z"/>
	<path d="M3,13H2v1h1h1h1v-1H4H3z"/>
</g>
</svg>
