<?xml version="1.0" encoding="utf-8"?>
<!-- Generator: Adobe Illustrator 23.1.1, SVG Export Plug-In . SVG Version: 6.00 Build 0)  -->
<svg version="1.1" id="Layer_1" xmlns="http://www.w3.org/2000/svg" xmlns:xlink="http://www.w3.org/1999/xlink" x="0px" y="0px"
	 viewBox="0 0 14 4" style="enable-background:new 0 0 14 4;" xml:space="preserve">
<style type="text/css">
	.st0{fill:#7B959C;}
	.st1{fill:#D4DDDF;}
	.st2{fill:#576E74;}
	.st3{fill:#FCFDFD;}
	.st4{fill:#BBC8CC;}
</style>
<path class="st0" d="M2,1h0.5H3V0.5V0H2.5H2H1.5H1v0.5V1h0.5H2z"/>
<path class="st1" d="M1,1v1v1h1h1V2V1H2H1z"/>
<path class="st2" d="M3,1v0.5V2v0.5V3h0.5H4V2.5V2V1.5V1H3.5H3z"/>
<path class="st3" d="M1,2h0.5H2V1.5V1H1.5H1v0.5V2z"/>
<path class="st0" d="M1,2V1.5V1H0.5H0v0.5V2v0.5V3h0.5H1V2.5V2z"/>
<path class="st4" d="M3,2H2.5H2v0.5V3h0.5H3V2.5V2z"/>
<path class="st1" d="M2,3V2.5V2H1.5H1v0.5V3h0.5H2z"/>
<path class="st2" d="M2,3H1.5H1v0.5V4h0.5H2h0.5H3V3.5V3H2.5H2z"/>
<path class="st0" d="M7,1h0.5H8V0.5V0H7.5H7H6.5H6v0.5V1h0.5H7z"/>
<path class="st1" d="M6,1v1v1h1h1V2V1H7H6z"/>
<path class="st2" d="M8,1v0.5V2v0.5V3h0.5H9V2.5V2V1.5V1H8.5H8z"/>
<path class="st3" d="M6,2h0.5H7V1.5V1H6.5H6v0.5V2z"/>
<path class="st0" d="M6,2V1.5V1H5.5H5v0.5V2v0.5V3h0.5H6V2.5V2z"/>
<path class="st4" d="M8,2H7.5H7v0.5V3h0.5H8V2.5V2z"/>
<path class="st1" d="M7,3V2.5V2H6.5H6v0.5V3h0.5H7z"/>
<path class="st2" d="M7,3H6.5H6v0.5V4h0.5H7h0.5H8V3.5V3H7.5H7z"/>
<path class="st0" d="M12,1h0.5H13V0.5V0h-0.5H12h-0.5H11v0.5V1h0.5H12z"/>
<path class="st1" d="M11,1v1v1h1h1V2V1h-1H11z"/>
<path class="st2" d="M13,1v0.5V2v0.5V3h0.5H14V2.5V2V1.5V1h-0.5H13z"/>
<path class="st3" d="M11,2h0.5H12V1.5V1h-0.5H11v0.5V2z"/>
<path class="st0" d="M11,2V1.5V1h-0.5H10v0.5V2v0.5V3h0.5H11V2.5V2z"/>
<path class="st4" d="M13,2h-0.5H12v0.5V3h0.5H13V2.5V2z"/>
<path class="st1" d="M12,3V2.5V2h-0.5H11v0.5V3h0.5H12z"/>
<path class="st2" d="M12,3h-0.5H11v0.5V4h0.5H12h0.5H13V3.5V3h-0.5H12z"/>
</svg>
