<?xml version="1.0" encoding="utf-8"?>
<!-- Generator: Adobe Illustrator 23.1.1, SVG Export Plug-In . SVG Version: 6.00 Build 0)  -->
<svg version="1.1" id="printer_icon--c" xmlns="http://www.w3.org/2000/svg" xmlns:xlink="http://www.w3.org/1999/xlink" x="0px" y="0px"
	 viewBox="0 0 30 30" style="enable-background:new 0 0 30 30;" xml:space="preserve">

<style type="text/css">
	/*
	Classes Used by IE and MSEdge with Mono Parent Color Fallback for IE
	Chrome, Chromium Edge, and Firefox use the 'fill' Attributes Over the Classes
	==============================================================================  */
	.printer_icon--color1{
		fill: currentColor;
		fill: var(--color-1, currentColor);
	}
</style>
<path class="printer_icon--color1" fill="var(--color-1, currentColor)" d="M29,13.7c-0.7-0.7-1.5-1-2.4-1h-1.2V8.1c0-0.5-0.1-1-0.4-1.6c-0.2-0.6-0.5-1-0.9-1.4l-2.7-2.7C21.1,2,20.6,1.8,20,1.5
	c-0.6-0.2-1.1-0.4-1.6-0.4H6.3c-0.5,0-0.9,0.2-1.2,0.5C4.8,2,4.6,2.4,4.6,2.9v9.8H3.5c-0.9,0-1.8,0.3-2.4,1c-0.7,0.7-1,1.5-1,2.4
	v7.5c0,0.2,0.1,0.3,0.2,0.4c0.1,0.1,0.2,0.2,0.4,0.2h4v2.9c0,0.5,0.2,0.9,0.5,1.2c0.3,0.3,0.7,0.5,1.2,0.5h17.3
	c0.5,0,0.9-0.2,1.2-0.5c0.3-0.3,0.5-0.7,0.5-1.2v-2.9h4c0.2,0,0.3-0.1,0.4-0.2c0.1-0.1,0.2-0.2,0.2-0.4v-7.5
	C30,15.2,29.7,14.4,29,13.7z M23.1,26.5H6.9v-4.6h16.2V26.5z M23.1,15H6.9V3.5h11.5v2.9c0,0.5,0.2,0.9,0.5,1.2
	c0.3,0.3,0.7,0.5,1.2,0.5h2.9V15z M27.4,17c-0.2,0.2-0.5,0.3-0.8,0.3c-0.3,0-0.6-0.1-0.8-0.3c-0.2-0.2-0.3-0.5-0.3-0.8
	c0-0.3,0.1-0.6,0.3-0.8c0.2-0.2,0.5-0.3,0.8-0.3s0.6,0.1,0.8,0.3c0.2,0.2,0.3,0.5,0.3,0.8C27.7,16.5,27.6,16.7,27.4,17z"/>
</svg>
