<?xml version="1.0" encoding="utf-8"?>
<!-- Generator: Adobe Illustrator 23.1.1, SVG Export Plug-In . SVG Version: 6.00 Build 0)  -->
<svg version="1.1" id="Layer_1" xmlns="http://www.w3.org/2000/svg" xmlns:xlink="http://www.w3.org/1999/xlink" x="0px" y="0px"
	 viewBox="0 0 15 12" style="enable-background:new 0 0 15 12;" xml:space="preserve">
<style type="text/css">
	.st0{fill:#008421;}
	.st1{fill:#13DD46;}
</style>
<path class="st0" d="M6,11H5v1h1V11z"/>
<path class="st0" d="M7,10H6v1h1V10z"/>
<path class="st0" d="M5,10H4v1h1V10z"/>
<path class="st0" d="M8,9H7v1h1V9z"/>
<path class="st0" d="M4,9H3v1h1V9z"/>
<path class="st0" d="M9,8H8v1h1V8z"/>
<path class="st0" d="M3,8H2v1h1V8z"/>
<path class="st0" d="M10,7H9v1h1V7z"/>
<path class="st0" d="M6,7H5v1h1V7z"/>
<path class="st0" d="M2,7H1v1h1V7z"/>
<path class="st0" d="M11,6h-1v1h1V6z"/>
<path class="st0" d="M7,6H6v1h1V6z"/>
<path class="st0" d="M5,6H4v1h1V6z"/>
<path class="st0" d="M1,6H0v1h1V6z"/>
<path class="st0" d="M12,5h-1v1h1V5z"/>
<path class="st0" d="M8,5H7v1h1V5z"/>
<path class="st0" d="M4,5H3v1h1V5z"/>
<path class="st0" d="M2,5H1v1h1V5z"/>
<path class="st0" d="M13,4h-1v1h1V4z"/>
<path class="st0" d="M9,4H8v1h1V4z"/>
<path class="st0" d="M3,4H2v1h1V4z"/>
<path class="st0" d="M14,3h-1v1h1V3z"/>
<path class="st0" d="M10,3H9v1h1V3z"/>
<path class="st0" d="M11,2h-1v1h1V2z"/>
<path class="st0" d="M14,2v1h1V2V1h-1V2z"/>
<path class="st1" d="M12,1v1h-1v1h-1v1H9v1H8v1H7v1H6v1H5V7H4V6H3V5H2v1H1v1h1v1h1v1h1v1h1v1h1v-1h1V9h1V8h1V7h1V6h1V5h1V4h1V3h1V2
	V1h-1H12z"/>
<path class="st0" d="M12,1h-1v1h1V1z"/>
<path class="st0" d="M13,1h1V0h-1h-1v1H13z"/>
</svg>
