<?xml version="1.0" encoding="utf-8"?>
<!-- Generator: Adobe Illustrator 24.0.1, SVG Export Plug-In . SVG Version: 6.00 Build 0)  -->
<svg version="1.1" id="hammer" xmlns="http://www.w3.org/2000/svg" xmlns:xlink="http://www.w3.org/1999/xlink" x="0px" y="0px"
	 viewBox="0 0 14 19" style="enable-background:new 0 0 14 19;" xml:space="preserve">
<style type="text/css">
	.st0{fill:#050504;}
	.st1{fill:#E09B5A;}
	.st2{fill:#8A5A36;}
	.st3{fill:#870101;}
	.st4{fill:#BD0303;}
	.st5{fill:#640101;}
	.st6{fill:#FD1818;}
</style>
<path class="st0" d="M13,1h-1h-1h-1H9V0H8H7H6H5v1H4H3H2H1H0v1v1v1v1v1v1v1v1h1h1h1h1h1v1v1v1v1v1v1v1v1v1v1h1h1h1h1v-1v-1v-1v-1v-1
	v-1v-1v-1v-1V9h1h1h1h1h1V8V7V6V5V4V3V2V1H13z"/>
<path class="st1" d="M8,1H6v1h2V1z"/>
<path class="st2" d="M8,1H7v1h1V1z"/>
<path class="st3" d="M10.6,2H9.4H8.2H7H5.8H4.6H3.4H2.2H1v2v2v2h1.2h1.2h1.2h1.2H7h1.2h1.2h1.2h1.2H13V6V4V2h-1.2H10.6z"/>
<path class="st4" d="M12,3v1h1V3V2h-1V3z"/>
<path class="st5" d="M12,5v1v1h-1h-1H9H8H7H6H5H4H3H2v1h1h1h1h1h1h1h1h1h1h1h1V7V6V5V4h-1V5z"/>
<path class="st6" d="M2,6V5V4h1h1h1h1h1h1h1h1h1h1V3V2h-1h-1H9H8H7H6H5H4H3H2H1v1v1v1v1v1h1V6z"/>
<path class="st4" d="M2,7H1v1h1V7z"/>
<path class="st1" d="M8,16.9v-1.1v-1.1v-1.1v-1.1v-1.1v-1.1V9.1V8H6v1.1v1.1v1.1v1.1v1.1v1.1v1.1v1.1V18h2V16.9z"/>
<path class="st2" d="M7,9v1v1v1v1v1v1v1v1H6v1h1h1v-1v-1v-1v-1v-1v-1v-1v-1V9V8H7V9z"/>
</svg>
