<?xml version="1.0" encoding="utf-8"?>
<!-- Generator: Adobe Illustrator 23.1.1, SVG Export Plug-In . SVG Version: 6.00 Build 0)  -->
<svg version="1.1" id="refresh_arrows--c" xmlns="http://www.w3.org/2000/svg" xmlns:xlink="http://www.w3.org/1999/xlink" x="0px" y="0px"
	 viewBox="0 0 12 7" style="enable-background:new 0 0 12 7;" xml:space="preserve">

<style type="text/css">
	/*
	Classes Used by IE and MSEdge with Mono Parent Color Fallback for IE
	Chrome, Chromium Edge, and Firefox use the 'fill' Attributes Over the Classes
	==============================================================================  */
	.refresh_arrows--color1{
		fill: currentColor;
		fill: var(--color-1, currentColor);
	}
</style>
<g class="refresh_arrows--color1" fill="var(--color-1, currentColor)" x="0" y="0" width="12" height="7">
	<path d="M7,0H6v1h1h1V0H7z"/>
	<path d="M9,1H8v1h1V1z"/>
	<path d="M3,3h1h1V2H4V1H3V0H2v1H1v1H0v1h1h1v1v1h1V4V3z"/>
	<path d="M11,4h-1V3V2H9v1v1H8H7v1h1v1h1v1h1V6h1V5h1V4H11z"/>
	<path d="M4,5H3v1h1V5z"/>
	<path d="M4,6v1h1h1V6H5H4z"/>
</g>
</svg>
