<?xml version="1.0" encoding="utf-8"?>
<!-- Generator: Adobe Illustrator 23.1.1, SVG Export Plug-In . SVG Version: 6.00 Build 0)  -->
<svg version="1.1" id="Layer_1" xmlns="http://www.w3.org/2000/svg" xmlns:xlink="http://www.w3.org/1999/xlink" x="0px" y="0px"
	 viewBox="0 0 13 13" style="enable-background:new 0 0 13 13;" xml:space="preserve">
<style type="text/css">
	.st0{fill:#C70420;}
	.st1{fill:#2E0005;}
	.st2{fill:#F4CDD2;}
	.st3{fill:#EDB1BA;}
	.st4{fill:#E9A5AF;}
	.st5{fill:#D34D5F;}
	.st6{fill:#F3C8CE;}
	.st7{fill:#C4172F;}
	.st8{fill:#C5182F;}
	.st9{fill:#C51830;}
	.st10{fill:#CC3949;}
	.st11{fill:#C5192F;}
	.st12{fill:#EAA5AF;}
	.st13{fill:#F7D4D9;}
	.st14{fill:#EC97A2;}
	.st15{fill:#DD2F46;}
	.st16{fill:#940115;}
	.st17{fill:#D14D59;}
	.st18{fill:#AE0B18;}
	.st19{fill:#C4172E;}
	.st20{fill:#F9DFE3;}
	.st21{fill:#CF142E;}
	.st22{fill:#CE1425;}
	.st23{fill:#900114;}
	.st24{fill:#BA061D;}
	.st25{fill:#8A0612;}
	.st26{fill:#F7CFD5;}
	.st27{fill:#C7031F;}
	.st28{fill:#C7021F;}
	.st29{fill:#890011;}
	.st30{fill:#910915;}
	.st31{fill:#57000A;}
	.st32{fill:#7B0510;}
	.st33{fill:#D41E37;}
	.st34{fill:#C7001C;}
	.st35{fill:#B70019;}
	.st36{fill:#5C000B;}
	.st37{fill:#982530;}
	.st38{fill:#4D0009;}
	.st39{fill:#74040F;}
	.st40{fill:#C5172F;}
	.st41{fill:#C7001D;}
	.st42{fill:#73000E;}
	.st43{fill:#5A000B;}
	.st44{fill:#9C323D;}
	.st45{fill:#490009;}
	.st46{fill:#69020D;}
	.st47{fill:#D24D5F;}
	.st48{fill:#CA3949;}
	.st49{fill:#950216;}
	.st50{fill:#CE1829;}
	.st51{fill:#8F0012;}
	.st52{fill:#5D000B;}
	.st53{fill:#9C343E;}
	.st54{fill:#67020D;}
	.st55{fill:#52000A;}
	.st56{fill:#D14F5B;}
	.st57{fill:#920A17;}
	.st58{fill:#95101C;}
	.st59{fill:#9C333D;}
	.st60{fill:#68020D;}
	.st61{fill:#500009;}
	.st62{fill:#B00D1A;}
	.st63{fill:#B8041C;}
	.st64{fill:#7E0312;}
	.st65{fill:#5A010C;}
	.st66{fill:#480007;}
	.st67{fill:#4F0008;}
	.st68{fill:#870612;}
	.st69{fill:#5F010B;}
</style>
<polygon class="st0" points="11,3 11,2 10,2 10,1 3,1 3,2 2,2 2,3 1,3 1,10 2,10 2,11 3,11 3,12 10,12 10,11 11,11 11,10 12,10 
	12,3 "/>
<path class="st1" d="M6,1h1h1h1V0H8H7H6H5H4v1h1H6z"/>
<path class="st1" d="M4,1H3v1h1V1z"/>
<path class="st2" d="M5,1H4v1h1V1z"/>
<path class="st3" d="M6,1H5v1h1V1z"/>
<path class="st4" d="M7,1H6v1h1V1z"/>
<path class="st5" d="M7,1v1h1h1V1H8H7z"/>
<path class="st1" d="M10,1H9v1h1V1z"/>
<path class="st1" d="M3,2H2v1h1V2z"/>
<path class="st6" d="M4,2H3v1h1V2z"/>
<path class="st7" d="M5,2H4v1h1V2z"/>
<path class="st8" d="M6,2H5v1h1V2z"/>
<path class="st9" d="M6,3h1h1V2H7H6V3z"/>
<path class="st10" d="M9,2H8v1h1V2z"/>
<path class="st11" d="M10,2H9v1h1V2z"/>
<path class="st1" d="M11,2h-1v1h1V2z"/>
<path class="st1" d="M2,3H1v1h1V3z"/>
<path class="st12" d="M3,3H2v1h1V3z"/>
<path class="st7" d="M4,3H3v1h1V3z"/>
<path class="st13" d="M5,3H4v1h1V3z"/>
<path class="st14" d="M6,3H5v1h1V3z"/>
<path class="st15" d="M7,4h1V3H7H6v1H7z"/>
<path class="st16" d="M9,3H8v1h1V3z"/>
<path class="st17" d="M10,3H9v1h1V3z"/>
<path class="st18" d="M11,3h-1v1h1V3z"/>
<path class="st1" d="M12,3h-1v1h1V3z"/>
<path class="st2" d="M2,4H1v1h1V4z"/>
<path class="st19" d="M3,4H2v1h1V4z"/>
<path class="st20" d="M4,4H3v1h1V4z"/>
<path class="st21" d="M8,4H7v1h1V4z"/>
<path class="st22" d="M9,4H8v1h1V4z"/>
<path class="st23" d="M10,4H9v1h1V4z"/>
<path class="st24" d="M11,4h-1v1h1V4z"/>
<path class="st25" d="M12,4h-1v1h1V4z"/>
<path class="st1" d="M12,4v1v1v1v1v1h1V8V7V6V5V4H12z"/>
<path class="st7" d="M3,5H2v1h1V5z"/>
<path class="st26" d="M4,5H3v1h1V5z"/>
<path class="st27" d="M6,5H5v1h1V5z"/>
<path class="st28" d="M8,5H7v1h1V5z"/>
<path class="st29" d="M9,5H8v1h1V5z"/>
<path class="st30" d="M10,5H9v1h1V5z"/>
<path class="st31" d="M11,5h-1v1h1V5z"/>
<path class="st32" d="M12,5h-1v1h1V5z"/>
<path class="st4" d="M2,6V5H1v1v1h1V6z"/>
<path class="st15" d="M4,6H3v1v1h1V7V6z"/>
<path class="st33" d="M4,7h1V6V5h1h1V4H6H5H4v1v1V7z"/>
<path class="st0" d="M6,6H5v1h1V6z"/>
<path class="st34" d="M7,6H6v1h1V6z"/>
<path class="st35" d="M8,6H7v1h1V6z"/>
<path class="st36" d="M9,6H8v1h1V6z"/>
<path class="st37" d="M10,6H9v1h1V6z"/>
<path class="st38" d="M11,6h-1v1h1V6z"/>
<path class="st39" d="M12,6h-1v1h1V6z"/>
<path class="st1" d="M1,7V6V5V4H0v1v1v1v1v1h1V8V7z"/>
<path class="st5" d="M2,7H1v1h1V7z"/>
<path class="st40" d="M3,7V6H2v1v1h1V7z"/>
<path class="st21" d="M5,7H4v1h1V7z"/>
<path class="st41" d="M6,7H5v1h1V7z"/>
<path class="st35" d="M7,7H6v1h1V7z"/>
<path class="st42" d="M8,7H7v1h1V7z"/>
<path class="st43" d="M9,7H8v1h1V7z"/>
<path class="st44" d="M10,7H9v1h1V7z"/>
<path class="st45" d="M11,7h-1v1h1V7z"/>
<path class="st46" d="M12,7h-1v1h1V7z"/>
<path class="st47" d="M2,8H1v1h1V8z"/>
<path class="st48" d="M3,8H2v1h1V8z"/>
<path class="st49" d="M4,8H3v1h1V8z"/>
<path class="st50" d="M5,8H4v1h1V8z"/>
<path class="st51" d="M6,8H5v1h1V8z"/>
<path class="st52" d="M7,8H6v1h1V8z"/>
<path class="st36" d="M8,8H7v1h1V8z"/>
<path class="st53" d="M9,8H8v1h1V8z"/>
<path class="st38" d="M10,8H9v1h1V8z"/>
<path class="st54" d="M11,8h-1v1h1V8z"/>
<path class="st55" d="M12,8h-1v1h1V8z"/>
<path class="st1" d="M2,9H1v1h1V9z"/>
<path class="st11" d="M3,9H2v1h1V9z"/>
<path class="st56" d="M4,9H3v1h1V9z"/>
<path class="st16" d="M5,9H4v1h1V9z"/>
<path class="st57" d="M6,9H5v1h1V9z"/>
<path class="st58" d="M7,9H6v1h1V9z"/>
<path class="st59" d="M8,9H7v1h1V9z"/>
<path class="st45" d="M9,9H8v1h1V9z"/>
<path class="st60" d="M10,9H9v1h1V9z"/>
<path class="st61" d="M11,9h-1v1h1V9z"/>
<path class="st1" d="M12,9h-1v1h1V9z"/>
<path class="st1" d="M3,10H2v1h1V10z"/>
<path class="st62" d="M4,10H3v1h1V10z"/>
<path class="st63" d="M5,10H4v1h1V10z"/>
<path class="st64" d="M6,10H5v1h1V10z"/>
<path class="st65" d="M7,10H6v1h1V10z"/>
<path class="st66" d="M8,10H7v1h1V10z"/>
<path class="st54" d="M9,10H8v1h1V10z"/>
<path class="st67" d="M10,10H9v1h1V10z"/>
<path class="st1" d="M11,10h-1v1h1V10z"/>
<path class="st1" d="M4,11H3v1h1V11z"/>
<path class="st68" d="M5,11H4v1h1V11z"/>
<path class="st32" d="M6,11H5v1h1V11z"/>
<path class="st39" d="M7,11H6v1h1V11z"/>
<path class="st69" d="M8,11H7v1h1V11z"/>
<path class="st61" d="M9,11H8v1h1V11z"/>
<path class="st1" d="M10,11H9v1h1V11z"/>
<path class="st1" d="M7,12H6H5H4v1h1h1h1h1h1v-1H8H7z"/>
</svg>
