<?xml version="1.0" encoding="utf-8"?>
<!-- Generator: Adobe Illustrator 23.1.1, SVG Export Plug-In . SVG Version: 6.00 Build 0)  -->
<svg version="1.1" id="spyglass_flat--c" xmlns="http://www.w3.org/2000/svg" xmlns:xlink="http://www.w3.org/1999/xlink" x="0px" y="0px"
	 viewBox="0 0 9 9" style="enable-background:new 0 0 9 9;" xml:space="preserve">

<style type="text/css">
	/*
	Classes Used by IE and MSEdge with Mono Parent Color Fallback for IE
	Chrome, Chromium Edge, and Firefox use the 'fill' Attributes Over the Classes
	==============================================================================  */
	.spyglass_flat--color1{
		fill: currentColor;
		fill: var(--color-1, currentColor);
	}
</style>
<g class="spyglass_flat--color1" fill="var(--color-1, currentColor)" x="0" y="0" >
	<path d="M4,1h1V0H4H3H2v1h1H4z"/>
	<path d="M2,1H1v1h1V1z"/>
	<path d="M6,1H5v1h1V1z"/>
	<path d="M1,3V2H0v1v1v1h1V4V3z"/>
	<path d="M6,4v1h1V4V3V2H6v1V4z"/>
	<path d="M2,5H1v1h1V5z"/>
	<path d="M6,5H5v1h1V5z"/>
	<path d="M3,6H2v1h1h1h1V6H4H3z"/>
	<path d="M7,6H6v1h1V6z"/>
	<path d="M8,7H7v1h1V7z"/>
	<path d="M9,8H8v1h1V8z"/>
</g>
</svg>
