<?xml version="1.0" encoding="utf-8"?>
<!-- Generator: Adobe Illustrator 23.1.1, SVG Export Plug-In . SVG Version: 6.00 Build 0)  -->
<svg version="1.1" id="Layer_1" xmlns="http://www.w3.org/2000/svg" xmlns:xlink="http://www.w3.org/1999/xlink" x="0px" y="0px"
	 viewBox="0 0 17 17" style="enable-background:new 0 0 17 17;" xml:space="preserve">
<style type="text/css">
	.st0{fill:#2E2E2E;}
	.st1{fill:#3A6ACB;}
</style>
<path class="st0" d="M16,0h-1h-1h-1h-1h-1h-1H9H8H7H6H5H4H3H2H1H0v1v1v1h1V2V1h1h1h1h1h1h1h1h1h1h1h1h1h1h1h1v1v1h1V2V1V0H16z"/>
<path class="st1" d="M16,1h-1h-1h-1h-1h-1h-1H9H8H7H6H5H4H3H2H1v1v1h1v1h1v1h1v1h1v1h1v1h1v1v1v1v1v1v1v1h1v1h1v-1h1v-1v-1v-1v-1v-1
	V9V8h1V7h1V6h1V5h1V4h1V3h1V2V1z"/>
<path class="st0" d="M2,3H1v1h1V3z"/>
<path class="st0" d="M16,3h-1v1h1V3z"/>
<path class="st0" d="M3,4H2v1h1V4z"/>
<path class="st0" d="M15,4h-1v1h1V4z"/>
<path class="st0" d="M4,5H3v1h1V5z"/>
<path class="st0" d="M14,5h-1v1h1V5z"/>
<path class="st0" d="M5,6H4v1h1V6z"/>
<path class="st0" d="M13,6h-1v1h1V6z"/>
<path class="st0" d="M6,7H5v1h1V7z"/>
<path class="st0" d="M12,7h-1v1h1V7z"/>
<path class="st0" d="M10,9v1v1v1v1v1v1h1v-1v-1v-1v-1v-1V9V8h-1V9z"/>
<path class="st0" d="M7,13v-1v-1v-1V9V8H6v1v1v1v1v1v1v1h1v-1V13z"/>
<path class="st0" d="M8,15H7v1h1V15z"/>
<path class="st0" d="M10,15H9v1h1V15z"/>
<path class="st0" d="M9,16H8v1h1V16z"/>
</svg>
