<?xml version="1.0" encoding="utf-8"?>
<!-- Generator: Adobe Illustrator 23.1.1, SVG Export Plug-In . SVG Version: 6.00 Build 0)  -->
<svg version="1.1" id="Layer_1" xmlns="http://www.w3.org/2000/svg" xmlns:xlink="http://www.w3.org/1999/xlink" x="0px" y="0px"
	 viewBox="0 0 9 10" style="enable-background:new 0 0 9 10;" xml:space="preserve">
<style type="text/css">
	.st0{fill:#000202;}
	.st1{fill:#5099C5;}
	.st2{fill:#5198C4;}
	.st3{fill:#416174;}
	.st4{fill:#327196;}
	.st5{fill:#DAE9F2;}
</style>
<path class="st0" d="M4,1h1h1h1V0H6H5H4H3H2v1h1H4z"/>
<path class="st1" d="M7,2H2v7h5V2z"/>
<path class="st0" d="M2,1H1v1h1V1z"/>
<path class="st0" d="M8,1H7v1h1V1z"/>
<path class="st1" d="M6.4,2H3v1.3h3.4V2z"/>
<path class="st2" d="M5,2H4v1h1h1v1H5v1v1v1H4V6V5V4H3V3H2v1v1v1v1h1v1h1h1h1V7h1V6V5V4V3V2H6H5z"/>
<path class="st0" d="M8,2v1v1v1v1v1v1h1V7V6V5V4V3V2H8z"/>
<path class="st3" d="M4,4v1v1v1h1V6V5V4h1V3H5H4H3v1H4z"/>
<path class="st0" d="M1,6V5V4V3V2H0v1v1v1v1v1v1h1V7V6z"/>
<path class="st4" d="M8,6V5V4V3V2H7v1v1v1v1v1H6v1H5H4H3H2v1h1h1h1h1h1V8h1V7V6z"/>
<path class="st5" d="M2,7V6V5V4V3h1V2h1h1h1h1V1H6H5H4H3H2v1H1v1v1v1v1v1v1h1V7z"/>
<path class="st0" d="M2,8H1v1h1V8z"/>
<path class="st0" d="M8,8H7v1h1V8z"/>
<path class="st0" d="M5,9H4H3H2v1h1h1h1h1h1V9H6H5z"/>
</svg>
