<?xml version="1.0" encoding="iso-8859-1"?>
<!-- Generator: Adobe Illustrator 23.0.3, SVG Export Plug-In . SVG Version: 6.00 Build 0)  -->
<svg version="1.1" id="Layer_1" xmlns="http://www.w3.org/2000/svg" xmlns:xlink="http://www.w3.org/1999/xlink" x="0px" y="0px"
	 viewBox="0 0 14 15" style="enable-background:new 0 0 14 15;" xml:space="preserve">
<g>
	<rect x="7" width="1" height="1"/>
	<polygon points="6,2 6,1 5,1 4,1 4,2 5,2 	"/>
	<rect x="8" y="1" width="1" height="1"/>
	<polygon points="4,3 4,2 3,2 2,2 2,3 3,3 	"/>
	<rect x="4" y="2" style="fill:#FEE100;" width="1" height="1"/>
	<rect x="5" y="2" style="fill:#FFF69C;" width="1" height="1"/>
	<rect x="6" y="2" width="1" height="1"/>
	<rect x="2" y="3" style="fill:#FEE100;" width="1" height="1"/>
	<rect x="3" y="3" style="fill:#FEEF78;" width="1" height="1"/>
	<rect x="4" y="3" style="fill:#7D6904;" width="1" height="1"/>
	<rect x="5" y="3" style="fill:#FEE100;" width="1" height="1"/>
	<rect x="6" y="3" style="fill:#FFF69C;" width="1" height="1"/>
	<rect x="7" y="3" width="1" height="1"/>
	<polygon points="12,4 12,3 11,3 10,3 10,4 11,4 	"/>
	<polygon points="2,4 2,3 1,3 1,4 1,5 2,5 	"/>
	<rect x="2" y="4" style="fill:#7D6904;" width="1" height="1"/>
	<rect x="3" y="4" style="fill:#FEE100;" width="1" height="1"/>
	<rect x="4" y="4" style="fill:#FEEF78;" width="1" height="1"/>
	<rect x="5" y="4" style="fill:#7D6904;" width="1" height="1"/>
	<rect x="6" y="4" style="fill:#FEE100;" width="1" height="1"/>
	<rect x="7" y="4" style="fill:#FFF69C;" width="1" height="1"/>
	<polygon points="9,5 9,6 9,7 10,7 10,6 10,5 10,4 9,4 8,4 8,5 	"/>
	<rect x="10" y="4" style="fill:#FEEF78;" width="1" height="1"/>
	<polygon style="fill:#DDB907;" points="11,5 11,6 11,7 11,8 12,8 12,7 12,6 12,5 12,4 11,4 	"/>
	<rect x="1" y="5" style="fill:#FEE100;" width="1" height="1"/>
	<rect x="2" y="5" style="fill:#FFE946;" width="1" height="1"/>
	<rect x="3" y="5" style="fill:#7D6904;" width="1" height="1"/>
	<rect x="4" y="5" style="fill:#FEE100;" width="1" height="1"/>
	<rect x="5" y="5" style="fill:#FEEF78;" width="1" height="1"/>
	<rect x="6" y="5" style="fill:#7D6904;" width="1" height="1"/>
	<rect x="7" y="5" style="fill:#FEE100;" width="1" height="1"/>
	<rect x="8" y="5" style="fill:#FFF69C;" width="1" height="1"/>
	<polygon points="12,6 12,7 12,8 13,8 13,7 13,6 13,5 13,4 12,4 12,5 	"/>
	<rect x="1" y="6" style="fill:#7D6904;" width="1" height="1"/>
	<rect x="2" y="6" style="fill:#FEE100;" width="1" height="1"/>
	<rect x="3" y="6" style="fill:#FFE946;" width="1" height="1"/>
	<rect x="4" y="6" style="fill:#7D6904;" width="1" height="1"/>
	<rect x="5" y="6" style="fill:#FEE100;" width="1" height="1"/>
	<rect x="6" y="6" style="fill:#FEEF78;" width="1" height="1"/>
	<rect x="7" y="6" style="fill:#7D6904;" width="1" height="1"/>
	<polygon points="1,7 1,6 1,5 0,5 0,6 0,7 0,8 0,9 1,9 1,8 	"/>
	<rect x="1" y="7" style="fill:#F0D547;" width="1" height="1"/>
	<rect x="2" y="7" style="fill:#7D6904;" width="1" height="1"/>
	<rect x="3" y="7" style="fill:#FEE100;" width="1" height="1"/>
	<rect x="4" y="7" style="fill:#FFE946;" width="1" height="1"/>
	<rect x="5" y="7" style="fill:#7D6904;" width="1" height="1"/>
	<rect x="6" y="7" style="fill:#FEE100;" width="1" height="1"/>
	<rect x="7" y="7" style="fill:#B19406;" width="1" height="1"/>
	<rect x="1" y="8" style="fill:#FEE100;" width="1" height="1"/>
	<rect x="2" y="8" style="fill:#F0D547;" width="1" height="1"/>
	<rect x="3" y="8" style="fill:#7D6904;" width="1" height="1"/>
	<rect x="4" y="8" style="fill:#FEE100;" width="1" height="1"/>
	<rect x="5" y="8" style="fill:#FFE946;" width="1" height="1"/>
	<rect x="6" y="8" style="fill:#B19406;" width="1" height="1"/>
	<polygon style="fill:#DDB907;" points="12,9 12,10 13,10 13,9 13,8 12,8 	"/>
	<polygon points="13,8 13,9 13,10 13,11 13,12 14,12 14,11 14,10 14,9 14,8 	"/>
	<rect x="1" y="9" width="1" height="1"/>
	<rect x="2" y="9" style="fill:#FEE100;" width="1" height="1"/>
	<rect x="3" y="9" style="fill:#F0D547;" width="1" height="1"/>
	<rect x="4" y="9" style="fill:#7D6904;" width="1" height="1"/>
	<rect x="5" y="9" style="fill:#B19406;" width="1" height="1"/>
	<rect x="2" y="10" width="1" height="1"/>
	<polygon style="fill:#FEE100;" points="5,11 5,12 6,12 6,13 7,13 8,13 9,13 10,13 10,12 11,12 11,11 12,11 12,10 12,9 12,8 11,8 
		11,7 11,6 11,5 10,5 10,6 10,7 9,7 9,6 8,6 8,7 8,8 7,8 7,9 6,9 6,10 5,10 4,10 3,10 3,11 4,11 	"/>
	<polygon style="fill:#B19406;" points="13,10 12,10 12,11 12,12 13,12 13,11 	"/>
	<rect y="11" width="1" height="1"/>
	<rect x="3" y="11" width="1" height="1"/>
	<rect x="4" y="11" style="fill:#DDB907;" width="1" height="1"/>
	<rect x="11" y="11" style="fill:#DDB907;" width="1" height="1"/>
	<rect x="1" y="12" width="1" height="1"/>
	<rect x="4" y="12" width="1" height="1"/>
	<rect x="5" y="12" style="fill:#DDB907;" width="1" height="1"/>
	<rect x="10" y="12" style="fill:#DDB907;" width="1" height="1"/>
	<rect x="11" y="12" style="fill:#B19406;" width="1" height="1"/>
	<rect x="12" y="12" width="1" height="1"/>
	<polygon points="6,13 5,13 5,14 6,14 7,14 7,13 	"/>
	<polygon style="fill:#DDB907;" points="9,14 9,13 8,13 7,13 7,14 8,14 	"/>
	<rect x="9" y="13" style="fill:#B19406;" width="1" height="1"/>
	<polygon points="10,13 10,14 11,14 12,14 12,13 11,13 	"/>
	<polygon points="8,14 7,14 7,15 8,15 9,15 10,15 10,14 9,14 	"/>
</g>
</svg>
