<?xml version="1.0" encoding="iso-8859-1"?>
<!-- Generator: Adobe Illustrator 23.0.3, SVG Export Plug-In . SVG Version: 6.00 Build 0)  -->
<svg version="1.1" id="Layer_1" xmlns="http://www.w3.org/2000/svg" xmlns:xlink="http://www.w3.org/1999/xlink" x="0px" y="0px"
	 viewBox="0 0 13 14" style="enable-background:new 0 0 13 14;" xml:space="preserve">
<g>
	<rect x="6" width="1" height="1"/>
	<rect x="5" y="1" width="1" height="1"/>
	<rect x="6" y="1" style="fill:#FFF69C;" width="1" height="1"/>
	<rect x="7" y="1" width="1" height="1"/>
	<polygon style="fill:#E7C000;" points="7,3 7,4 8,4 8,3 8,2 7,2 	"/>
	<polygon points="5,3 5,2 4,2 4,3 4,4 5,4 	"/>
	<polygon style="fill:#FEEF78;" points="5,4 6,4 6,3 6,2 5,2 5,3 	"/>
	<polygon points="8,4 9,4 9,3 9,2 8,2 8,3 	"/>
	<polygon points="2,5 3,5 4,5 4,4 3,4 2,4 1,4 0,4 0,5 0,6 1,6 1,5 	"/>
	<rect x="4" y="4" style="fill:#FFE946;" width="1" height="1"/>
	<rect x="8" y="4" style="fill:#E7C000;" width="1" height="1"/>
	<polygon points="12,4 11,4 10,4 9,4 9,5 10,5 11,5 12,5 12,6 13,6 13,5 13,4 	"/>
	<polygon style="fill:#FEE100;" points="8,5 8,4 7,4 7,3 7,2 6,2 6,3 6,4 5,4 5,5 4,5 4,6 3,6 3,7 4,7 4,8 5,8 5,9 4,9 4,10 4,11 
		5,11 5,10 6,10 6,9 7,9 7,10 8,10 8,11 9,11 9,10 9,9 9,8 9,7 10,7 10,6 9,6 8,6 	"/>
	<rect x="8" y="5" style="fill:#FFE52C;" width="1" height="1"/>
	<polygon style="fill:#E7C000;" points="11,5 10,5 9,5 9,6 10,6 11,6 12,6 12,5 	"/>
	<rect x="1" y="6" width="1" height="1"/>
	<polygon style="fill:#FFE946;" points="3,6 4,6 4,5 3,5 2,5 1,5 1,6 2,6 2,7 3,7 	"/>
	<rect x="10" y="6" style="fill:#DDB907;" width="1" height="1"/>
	<rect x="11" y="6" width="1" height="1"/>
	<rect x="2" y="7" width="1" height="1"/>
	<rect x="3" y="7" style="fill:#FFE946;" width="1" height="1"/>
	<rect x="9" y="7" style="fill:#DDB907;" width="1" height="1"/>
	<rect x="10" y="7" width="1" height="1"/>
	<rect x="3" y="8" width="1" height="1"/>
	<rect x="4" y="8" style="fill:#FFE946;" width="1" height="1"/>
	<rect x="9" y="8" width="1" height="1"/>
	<rect x="6" y="9" style="fill:#DDB907;" width="1" height="1"/>
	<polygon style="fill:#FFE946;" points="9,10 9,11 10,11 10,10 10,9 9,9 	"/>
	<polygon points="3,10 3,9 2,9 2,10 2,11 3,11 	"/>
	<polygon style="fill:#FFE946;" points="3,11 4,11 4,10 4,9 3,9 3,10 	"/>
	<rect x="5" y="10" style="fill:#DDB907;" width="1" height="1"/>
	<rect x="6" y="10" width="1" height="1"/>
	<rect x="7" y="10" style="fill:#DDB907;" width="1" height="1"/>
	<polygon points="10,11 11,11 11,10 11,9 10,9 10,10 	"/>
	<rect x="2" y="11" style="fill:#FFE946;" width="1" height="1"/>
	<rect x="3" y="11" style="fill:#FEE100;" width="1" height="1"/>
	<rect x="4" y="11" style="fill:#DDB907;" width="1" height="1"/>
	<rect x="5" y="11" width="1" height="1"/>
	<rect x="7" y="11" width="1" height="1"/>
	<rect x="8" y="11" style="fill:#DDB907;" width="1" height="1"/>
	<rect x="9" y="11" style="fill:#FEE100;" width="1" height="1"/>
	<rect x="10" y="11" style="fill:#FFE946;" width="1" height="1"/>
	<polygon style="fill:#DDB907;" points="3,12 2,12 2,13 3,13 4,13 4,12 	"/>
	<rect x="4" y="12" width="1" height="1"/>
	<rect x="8" y="12" width="1" height="1"/>
	<polygon style="fill:#DDB907;" points="11,13 11,12 10,12 9,12 9,13 10,13 	"/>
	<polygon points="11,13 10,13 9,13 9,14 10,14 11,14 12,14 12,13 12,12 12,11 11,11 11,12 	"/>
	<polygon points="2,13 2,12 2,11 1,11 1,12 1,13 1,14 2,14 3,14 4,14 4,13 3,13 	"/>
</g>
</svg>
