<?xml version="1.0" encoding="iso-8859-1"?>
<!-- Generator: Adobe Illustrator 23.0.3, SVG Export Plug-In . SVG Version: 6.00 Build 0)  -->
<svg version="1.1" id="Layer_1" xmlns="http://www.w3.org/2000/svg" xmlns:xlink="http://www.w3.org/1999/xlink" x="0px" y="0px"
	 viewBox="0 0 14 14" style="enable-background:new 0 0 14 14;" xml:space="preserve">
<g>
	<polygon points="8,1 8,0 7,0 6,0 6,1 7,1 	"/>
	<rect x="5" y="1" width="1" height="1"/>
	<rect x="6" y="1" style="fill:#DFBC0C;" width="1" height="1"/>
	<rect x="7" y="1" style="fill:#DFBD0C;" width="1" height="1"/>
	<rect x="8" y="1" width="1" height="1"/>
	<polygon points="13,1 12,1 12,2 13,2 13,3 13,4 13,5 13,6 13,7 13,8 13,9 13,10 13,11 13,12 13,13 12,13 11,13 10,13 9,13 8,13 
		7,13 6,13 5,13 4,13 3,13 2,13 1,13 1,12 1,11 1,10 1,9 1,8 1,7 1,6 1,5 1,4 1,3 1,2 2,2 2,1 1,1 0,1 0,2 0,3 0,4 0,5 0,6 0,7 0,8 
		0,9 0,10 0,11 0,12 0,13 0,14 1,14 2,14 3,14 4,14 5,14 6,14 7,14 8,14 9,14 10,14 11,14 12,14 13,14 14,14 14,13 14,12 14,11 
		14,10 14,9 14,8 14,7 14,6 14,5 14,4 14,3 14,2 14,1 	"/>
	<rect x="1" y="2" style="fill:#FFE82F;" width="1" height="1"/>
	<rect x="2" y="2" width="1" height="1"/>
	<rect x="4" y="2" width="1" height="1"/>
	<rect x="5" y="2" style="fill:#DEBC08;" width="1" height="1"/>
	<rect x="6" y="2" style="fill:#FFF897;" width="1" height="1"/>
	<rect x="7" y="2" style="fill:#F8FFBF;" width="1" height="1"/>
	<rect x="8" y="2" style="fill:#DEBC08;" width="1" height="1"/>
	<rect x="9" y="2" width="1" height="1"/>
	<rect x="11" y="2" width="1" height="1"/>
	<rect x="12" y="2" style="fill:#E1C010;" width="1" height="1"/>
	<rect x="2" y="3" style="fill:#DFBE09;" width="1" height="1"/>
	<rect x="3" y="3" width="1" height="1"/>
	<rect x="4" y="3" style="fill:#DDBA0A;" width="1" height="1"/>
	<rect x="5" y="3" style="fill:#FFF897;" width="1" height="1"/>
	<rect x="6" y="3" style="fill:#FFF35A;" width="1" height="1"/>
	<rect x="7" y="3" style="fill:#FFF352;" width="1" height="1"/>
	<rect x="8" y="3" style="fill:#FFF897;" width="1" height="1"/>
	<rect x="9" y="3" style="fill:#DDBB09;" width="1" height="1"/>
	<rect x="10" y="3" width="1" height="1"/>
	<rect x="11" y="3" style="fill:#DFBD0B;" width="1" height="1"/>
	<rect x="12" y="3" style="fill:#FEEF78;" width="1" height="1"/>
	<rect x="2" y="4" style="fill:#FFF69D;" width="1" height="1"/>
	<rect x="3" y="4" style="fill:#DDB907;" width="1" height="1"/>
	<rect x="4" y="4" style="fill:#FFF897;" width="1" height="1"/>
	<rect x="5" y="4" style="fill:#FFEF52;" width="1" height="1"/>
	<rect x="8" y="4" style="fill:#FFED4B;" width="1" height="1"/>
	<rect x="9" y="4" style="fill:#FFFAA7;" width="1" height="1"/>
	<rect x="10" y="4" style="fill:#DCBA06;" width="1" height="1"/>
	<rect x="11" y="4" style="fill:#FFF69C;" width="1" height="1"/>
	<rect x="12" y="4" style="fill:#FFF293;" width="1" height="1"/>
	<polygon style="fill:#FFF5A3;" points="2,5 2,4 2,3 1,3 1,4 1,5 1,6 2,6 	"/>
	<rect x="2" y="5" style="fill:#F5D61A;" width="1" height="1"/>
	<rect x="3" y="5" style="fill:#FFF897;" width="1" height="1"/>
	<rect x="4" y="5" style="fill:#FFED41;" width="1" height="1"/>
	<rect x="5" y="5" style="fill:#FFED5B;" width="1" height="1"/>
	<polygon style="fill:#FFF061;" points="7,6 7,5 7,4 6,4 6,5 6,6 	"/>
	<polygon style="fill:#FFEF5D;" points="7,6 8,6 8,5 8,4 7,4 7,5 	"/>
	<rect x="8" y="5" style="fill:#FFE956;" width="1" height="1"/>
	<rect x="9" y="5" style="fill:#FFED3B;" width="1" height="1"/>
	<rect x="10" y="5" style="fill:#FFF897;" width="1" height="1"/>
	<rect x="11" y="5" style="fill:#F5D819;" width="1" height="1"/>
	<polygon style="fill:#FFEF8E;" points="12,6 12,7 12,8 13,8 13,7 13,6 13,5 12,5 	"/>
	<rect x="2" y="6" style="fill:#FBD620;" width="1" height="1"/>
	<rect x="5" y="6" style="fill:#FFEE5C;" width="1" height="1"/>
	<polygon style="fill:#4AEDD1;" points="7,7 8,7 8,6 7,6 6,6 6,7 	"/>
	<rect x="8" y="6" style="fill:#FFEA5A;" width="1" height="1"/>
	<rect x="9" y="6" style="fill:#FFEA42;" width="1" height="1"/>
	<polygon style="fill:#FFE535;" points="10,7 10,8 11,8 11,7 11,6 10,6 	"/>
	<rect x="11" y="6" style="fill:#FBD71F;" width="1" height="1"/>
	<polygon style="fill:#FFEF8E;" points="2,7 2,6 1,6 1,7 1,8 2,8 	"/>
	<rect x="2" y="7" style="fill:#FFDA24;" width="1" height="1"/>
	<polygon style="fill:#FFE639;" points="4,7 4,6 3,6 3,7 3,8 4,8 	"/>
	<polygon style="fill:#FFEA48;" points="4,8 5,8 5,7 5,6 4,6 4,7 	"/>
	<rect x="5" y="7" style="fill:#FFEF5C;" width="1" height="1"/>
	<rect x="6" y="7" style="fill:#45DCC2;" width="1" height="1"/>
	<rect x="7" y="7" style="fill:#3EC5AE;" width="1" height="1"/>
	<rect x="8" y="7" style="fill:#FFEB5A;" width="1" height="1"/>
	<rect x="9" y="7" style="fill:#FFE947;" width="1" height="1"/>
	<rect x="11" y="7" style="fill:#FFDA22;" width="1" height="1"/>
	<rect x="1" y="8" style="fill:#FFE767;" width="1" height="1"/>
	<rect x="2" y="8" style="fill:#FADB21;" width="1" height="1"/>
	<rect x="3" y="8" style="fill:#FFE83D;" width="1" height="1"/>
	<rect x="4" y="8" style="fill:#FFED4A;" width="1" height="1"/>
	<rect x="5" y="8" style="fill:#FFF05A;" width="1" height="1"/>
	<rect x="6" y="8" style="fill:#FFF663;" width="1" height="1"/>
	<rect x="7" y="8" style="fill:#FFF45F;" width="1" height="1"/>
	<rect x="8" y="8" style="fill:#FFEF53;" width="1" height="1"/>
	<rect x="9" y="8" style="fill:#FFEC44;" width="1" height="1"/>
	<rect x="10" y="8" style="fill:#FFE63A;" width="1" height="1"/>
	<rect x="11" y="8" style="fill:#FFDC21;" width="1" height="1"/>
	<rect x="12" y="8" style="fill:#FFE666;" width="1" height="1"/>
	<rect x="1" y="9" style="fill:#F4DC50;" width="1" height="1"/>
	<polygon style="fill:#EBCB13;" points="10,9 9,9 8,9 7,9 6,9 5,9 4,9 3,9 2,9 2,10 3,10 4,10 5,10 6,10 7,10 8,10 9,10 10,10 
		11,10 12,10 12,9 11,9 	"/>
	<rect x="12" y="9" style="fill:#F4DC50;" width="1" height="1"/>
	<rect x="1" y="10" style="fill:#F8E779;" width="1" height="1"/>
	<rect x="2" y="10" style="fill:#FDE55C;" width="1" height="1"/>
	<rect x="3" y="10" style="fill:#FFF181;" width="1" height="1"/>
	<rect x="4" y="10" style="fill:#FFF493;" width="1" height="1"/>
	<rect x="5" y="10" style="fill:#FFF6A0;" width="1" height="1"/>
	<rect x="6" y="10" style="fill:#FFFBAA;" width="1" height="1"/>
	<rect x="7" y="10" style="fill:#FFFAA9;" width="1" height="1"/>
	<rect x="8" y="10" style="fill:#FFF69F;" width="1" height="1"/>
	<rect x="9" y="10" style="fill:#FFF490;" width="1" height="1"/>
	<rect x="10" y="10" style="fill:#FFEF82;" width="1" height="1"/>
	<rect x="11" y="10" style="fill:#FDE85C;" width="1" height="1"/>
	<rect x="12" y="10" style="fill:#F9E87A;" width="1" height="1"/>
	<rect x="1" y="11" style="fill:#F2D83B;" width="1" height="1"/>
	<rect x="2" y="11" style="fill:#F7DA24;" width="1" height="1"/>
	<rect x="3" y="11" style="fill:#FFE93E;" width="1" height="1"/>
	<rect x="4" y="11" style="fill:#FFEF4C;" width="1" height="1"/>
	<rect x="5" y="11" style="fill:#FFF25E;" width="1" height="1"/>
	<rect x="6" y="11" style="fill:#FFF665;" width="1" height="1"/>
	<rect x="7" y="11" style="fill:#FFF361;" width="1" height="1"/>
	<rect x="8" y="11" style="fill:#FFEE58;" width="1" height="1"/>
	<rect x="9" y="11" style="fill:#FFE635;" width="1" height="1"/>
	<rect x="10" y="11" style="fill:#FFE938;" width="1" height="1"/>
	<rect x="11" y="11" style="fill:#F7DA23;" width="1" height="1"/>
	<rect x="12" y="11" style="fill:#F3D83B;" width="1" height="1"/>
	<rect x="1" y="12" style="fill:#E1C213;" width="1" height="1"/>
	<rect x="2" y="12" style="fill:#E2C013;" width="1" height="1"/>
	<rect x="3" y="12" style="fill:#E1BF12;" width="1" height="1"/>
	<rect x="4" y="12" style="fill:#E0BE12;" width="1" height="1"/>
	<rect x="5" y="12" style="fill:#E0BE11;" width="1" height="1"/>
	<polygon style="fill:#DFBD10;" points="7,12 6,12 6,13 7,13 8,13 8,12 	"/>
	<rect x="8" y="12" style="fill:#E0BE11;" width="1" height="1"/>
	<rect x="9" y="12" style="fill:#E0BE12;" width="1" height="1"/>
	<rect x="10" y="12" style="fill:#E1BF12;" width="1" height="1"/>
	<rect x="11" y="12" style="fill:#E2C013;" width="1" height="1"/>
	<rect x="12" y="12" style="fill:#E1C213;" width="1" height="1"/>
</g>
</svg>
