<?xml version="1.0" encoding="iso-8859-1"?>
<!-- Generator: Adobe Illustrator 23.1.1, SVG Export Plug-In . SVG Version: 6.00 Build 0)  -->
<svg version="1.1" id="Layer_1" xmlns="http://www.w3.org/2000/svg" xmlns:xlink="http://www.w3.org/1999/xlink" x="0px" y="0px"
	 viewBox="0 0 180 32" style="enable-background:new 0 0 180 32;" xml:space="preserve">
<g>
	<g>
		<path style="fill:#DB222A;" d="M29.5,2.583h-5.612H10.289c-4.292,0-7.771,3.48-7.771,7.771v16.598v2.613h0h2.995h16.216
			c4.292,0,7.771-3.479,7.771-7.77V5.906V2.583L29.5,2.583z"/>
		<g>
			<path style="fill:#FFFFFF;" d="M8.997,25.065c-2.302,0-2.302-2.302-2.302-2.302s0-9.207,0-11.51c0-2.302,2.302-2.302,2.302-2.302
				s2.302,0,4.604,0c2.302,0,4.604,2.302,4.604,2.302s2.302,0,0,0c0-6.704,2.118,2.486,4.604,0c1.627-1.628,2.302,8.056,2.302,8.056
				l-2.302-1.149c0,0,0-2.302-3.453-4.604c-4.283-2.856-9.208-0.975-9.208,3.452c0,9.03,14.962,5.755,14.962,5.755
				s0,2.302-2.302,2.302C20.507,25.065,8.997,25.065,8.997,25.065z"/>
			<path style="fill:#FFFFFF;" d="M20.507,8.952c0-0.635,0.515-3.453,1.15-3.453c0.636,0,1.151,2.818,1.151,3.453
				c0,0.637-0.515,1.15-1.151,1.15C21.022,10.102,20.507,9.589,20.507,8.952z"/>
		</g>
	</g>
	<g>
		<g>
			<polygon style="fill:#010101;" points="52.25,29.097 52.25,12.492 46.43,21.144 43.846,21.144 38.027,12.492 38.027,29.097 
				33.393,29.097 33.393,2.903 37.109,2.903 45.157,14.751 53.206,2.903 56.851,2.903 56.851,29.097 			"/>
		</g>
		<g>
			<path style="fill:#010101;" d="M72.956,29.565c-3.644,0-7.03-1.422-9.537-4.002c-2.528-2.609-3.92-6.004-3.92-9.562
				c0-3.561,1.392-6.956,3.92-9.561c2.506-2.547,5.981-4.006,9.537-4.006c3.592,0,6.989,1.42,9.566,4
				c2.533,2.61,3.926,6.006,3.926,9.566c0,3.559-1.393,6.954-3.92,9.562C79.983,28.146,76.584,29.565,72.956,29.565z M72.956,7.142
				c-2.314,0-4.502,0.932-6.157,2.622c-1.675,1.64-2.593,3.852-2.593,6.237c0,2.385,0.918,4.597,2.585,6.229
				c1.661,1.697,3.848,2.629,6.165,2.629c2.327,0,4.598-0.955,6.229-2.621c1.65-1.652,2.557-3.865,2.557-6.236
				s-0.906-4.586-2.553-6.234C77.552,8.097,75.281,7.142,72.956,7.142z"/>
		</g>
		<g>
			<path style="fill:#010101;" d="M87.299,29.097v-4.42h0.5c7.646,0,9.183-2.673,9.183-6.984V7.25h-9.683V2.938h14.315v14.754
				c0,7.994-4.131,11.404-13.815,11.404H87.299z"/>
		</g>
		<g>
			<path style="fill:#010101;" d="M121.652,29.097l-2.412-6.371h-9.531l-2.447,6.371h-5.002l10.51-26.516h3.342l10.51,26.516
				H121.652z M117.531,18.31l-3.055-8.029l-3.053,8.029H117.531z"/>
		</g>
		<g>
			<polygon style="fill:#010101;" points="144.386,29.097 132.984,12.6 132.984,29.097 128.349,29.097 128.349,2.903 131.919,2.903 
				143.429,19.546 143.429,2.903 148.028,2.903 148.028,29.097 			"/>
		</g>
		<g>
			<path style="fill:#010101;" d="M163.99,29.565c-3.643,0-7.029-1.422-9.537-4.002c-2.527-2.609-3.92-6.004-3.92-9.562
				c0-3.561,1.393-6.956,3.92-9.561c2.507-2.547,5.982-4.006,9.537-4.006c3.592,0,6.99,1.42,9.567,4
				c0.915,0.943,1.687,1.997,2.301,3.139l0.395,0.736h-5.543l-0.234-0.266c-0.083-0.094-0.166-0.188-0.254-0.277
				c-1.637-1.67-3.907-2.625-6.232-2.625c-2.314,0-4.501,0.932-6.157,2.622c-1.675,1.64-2.593,3.852-2.593,6.237
				c0,2.385,0.918,4.597,2.586,6.229c1.66,1.697,3.848,2.629,6.164,2.629c2.328,0,4.598-0.955,6.229-2.621
				c1.119-1.119,1.898-2.508,2.281-4.045h-9.875v-4.707h14.629l0.066,0.423c0.108,0.69,0.163,1.396,0.163,2.093
				c0,3.558-1.393,6.953-3.92,9.562C171.016,28.146,167.617,29.565,163.99,29.565z"/>
		</g>
	</g>
</g>
</svg>
