<?xml version="1.0" encoding="utf-8"?>
<!-- Generator: Adobe Illustrator 24.0.0, SVG Export Plug-In . SVG Version: 6.00 Build 0)  -->
<svg version="1.1" id="collection--c" xmlns="http://www.w3.org/2000/svg" xmlns:xlink="http://www.w3.org/1999/xlink" x="0px"
	 y="0px" viewBox="0 0 198.4 198.4" style="enable-background:new 0 0 198.4 198.4;" xml:space="preserve">

<style type="text/css">
	/*
	Classes Used by IE and MSEdge with Mono Parent Color Fallback for IE
	Chrome, Chromium Edge, and Firefox use the 'fill' Attributes Over the Classes
	==============================================================================  */
	.collection--color1{
		fill: currentColor;
		fill: var(--color-1, currentColor);
	}
	.collection_box-leftrim-opacity{opacity:0.13;}
	.collection_box-rightrim-opacity{opacity:0.27;}
	.collection_box-toprim-opacity{opacity:0.2;}
</style>
<g id="ChestStack" class="collection--color1" fill="var(--color-1, currentColor)">
	<g id="Chest-BottomLeft">
		<g id="FacingRims_1_">
			<path id="LeftRim_2_" class="collection_box-leftrim-opacity" opacity="0.13" d="M55.1,195.7c-0.4,0-0.9-0.1-1.3-0.3L9,173c-0.9-0.5-1.5-1.4-1.5-2.5v-59.6
				c0-1,0.5-1.9,1.3-2.4c0.8-0.5,1.9-0.6,2.7-0.1l44.9,22.4c0.9,0.5,1.5,1.4,1.5,2.5v59.6c0,1-0.5,1.9-1.3,2.4
				C56.1,195.6,55.6,195.7,55.1,195.7z M13,168.8l39.2,19.6v-53.3L13,115.5V168.8z"/>
			<path id="RightRim_2_" class="collection_box-rightrim-opacity" opacity="0.27" d="M55.1,195.7c-0.5,0-1-0.1-1.5-0.4c-0.8-0.5-1.3-1.4-1.3-2.4v-59.5c0-1.1,0.6-2,1.5-2.5
				l44.8-22.4c0.9-0.4,1.9-0.4,2.7,0.1c0.8,0.5,1.3,1.4,1.3,2.4v59.5c0,1.1-0.6,2-1.5,2.5l-44.8,22.4
				C56,195.6,55.5,195.7,55.1,195.7z M57.9,135.1v53.2l39.2-19.6v-53.2L57.9,135.1z"/>
			<path id="TopRim_2_" class="collection_box-toprim-opacity" opacity="0.2" d="M55.1,136.2c-0.4,0-0.9-0.1-1.3-0.3L9,113.4C8,113,7.4,112,7.4,110.9c0-1.1,0.6-2,1.5-2.5
				L53.8,86c0.8-0.4,1.7-0.4,2.5,0l44.9,22.4c0.9,0.5,1.5,1.4,1.5,2.5c0,1.1-0.6,2-1.5,2.5l-44.9,22.4
				C55.9,136.1,55.5,136.2,55.1,136.2z M16.5,110.9l38.6,19.3l38.6-19.3L55.1,91.6L16.5,110.9z"/>
		</g>
		<path id="Lid_Split_1_" d="M98,126.1l-42.5,20.4c-0.2,0.1-0.9,0.2-1.1,0.1l-42.5-20.5c-0.9-0.4-1.5-0.1-1.5,0.8v3
			c0,0.9,0.7,1.9,1.5,2.3l42.5,20.5c0.6,0.3,0.8,0.1,1.4-0.2L98,132.2c0.9-0.4,1.5-1.4,1.5-2.3v-3C99.5,126,98.8,125.7,98,126.1z"/>
		<path id="Border_1_" d="M54.4,196.9c-0.6,0-1.2-0.1-1.8-0.4L7.7,174c-1.3-0.7-2.2-2-2.2-3.5v-59.6c0-1.5,0.8-2.8,2.2-3.5L52.6,85
			c1.1-0.6,2.4-0.6,3.5,0l44.9,22.4c1.3,0.7,2.2,2,2.2,3.5v59.6c0,1.5-0.8,2.8-2.2,3.5l-44.9,22.4C55.6,196.7,55,196.9,54.4,196.9z
			 M13.4,168.1l40.9,20.5l40.9-20.5v-54.7L54.4,92.9l-40.9,20.5V168.1z"/>
		<path id="Lock_1_" d="M21.9,134.9l14.6,7c1.1,0.5,1.9,1.8,1.9,2.9v21.3c0,1.1-0.9,1.5-1.9,1l-14.6-7c-1.1-0.5-1.9-1.8-1.9-2.9
			v-21.3C20,134.9,20.8,134.4,21.9,134.9z"/>
	</g>
	<g id="Chest-BottomRight">
		<g id="FacingRims_2_">
			<path id="LeftRim_1_" class="collection_box-leftrim-opacity" opacity="0.13" d="M144.8,195.7c-0.4,0-0.9-0.1-1.3-0.3L98.7,173c-0.9-0.5-1.5-1.4-1.5-2.5v-59.6
				c0-1,0.5-1.9,1.3-2.4c0.8-0.5,1.9-0.6,2.7-0.1l44.9,22.4c0.9,0.5,1.5,1.4,1.5,2.5v59.6c0,1-0.5,1.9-1.3,2.4
				C145.9,195.6,145.3,195.7,144.8,195.7z M102.8,168.8l39.2,19.6v-53.3l-39.2-19.6V168.8z"/>
			<path id="RightRim_1_" class="collection_box-rightrim-opacity" opacity="0.27" d="M144.9,195.7c-0.5,0-1-0.1-1.5-0.4c-0.8-0.5-1.3-1.4-1.3-2.4v-59.5c0-1.1,0.6-2,1.5-2.5
				l44.8-22.4c0.9-0.4,1.9-0.4,2.7,0.1c0.8,0.5,1.3,1.4,1.3,2.4v59.5c0,1.1-0.6,2-1.5,2.5l-44.8,22.4
				C145.7,195.6,145.3,195.7,144.9,195.7z M147.7,135.1v53.2l39.2-19.6v-53.2L147.7,135.1z"/>
			<path id="TopRim_1_" class="collection_box-toprim-opacity" opacity="0.2" d="M144.8,136.2c-0.4,0-0.9-0.1-1.3-0.3l-44.9-22.4c-0.9-0.5-1.5-1.4-1.5-2.5
				c0-1.1,0.6-2,1.5-2.5L143.6,86c0.8-0.4,1.7-0.4,2.5,0l44.9,22.4c0.9,0.5,1.5,1.4,1.5,2.5c0,1.1-0.6,2-1.5,2.5l-44.9,22.4
				C145.7,136.1,145.3,136.2,144.8,136.2z M106.3,110.9l38.6,19.3l38.6-19.3l-38.6-19.3L106.3,110.9z"/>
		</g>
		<path id="Lid_Split_2_" d="M187.7,126.1l-42.5,20.4c-0.2,0.1-0.9,0.2-1.1,0.1l-42.5-20.5c-0.9-0.4-1.5-0.1-1.5,0.8v3
			c0,0.9,0.7,1.9,1.5,2.3l42.5,20.5c0.6,0.3,0.8,0.1,1.4-0.2l42.3-20.3c0.9-0.4,1.5-1.4,1.5-2.3v-3
			C189.3,126,188.6,125.7,187.7,126.1z"/>
		<path id="Border_2_" d="M144.1,196.9c-0.6,0-1.2-0.1-1.8-0.4L97.5,174c-1.3-0.7-2.2-2-2.2-3.5v-59.6c0-1.5,0.8-2.8,2.2-3.5
			L142.4,85c1.1-0.6,2.4-0.6,3.5,0l44.9,22.4c1.3,0.7,2.2,2,2.2,3.5v59.6c0,1.5-0.8,2.8-2.2,3.5l-44.9,22.4
			C145.3,196.7,144.7,196.9,144.1,196.9z M103.2,168.1l40.9,20.5l40.9-20.5v-54.7l-40.9-20.5l-40.9,20.5V168.1z"/>
		<path id="Lock_2_" d="M111.7,134.9l14.6,7c1.1,0.5,1.9,1.8,1.9,2.9v21.3c0,1.1-0.9,1.5-1.9,1l-14.6-7c-1.1-0.5-1.9-1.8-1.9-2.9
			v-21.3C109.7,134.9,110.6,134.4,111.7,134.9z"/>
	</g>
	<g id="Chest-Top">
		<g id="FacingRims">
			<path id="LeftRim" class="collection_box-leftrim-opacity" opacity="0.13" d="M99.9,112.9c-0.4,0-0.9-0.1-1.3-0.3L53.8,90.2c-0.9-0.5-1.5-1.4-1.5-2.5V28.1
				c0-1,0.5-1.9,1.3-2.4c0.8-0.5,1.9-0.6,2.7-0.1L101.2,48c0.9,0.5,1.5,1.4,1.5,2.5v59.6c0,1-0.5,1.9-1.3,2.4
				C101,112.8,100.4,112.9,99.9,112.9z M57.9,85.9l39.2,19.6V52.3L57.9,32.6V85.9z"/>
			<path id="RightRim" class="collection_box-rightrim-opacity" opacity="0.27" d="M100,112.8c-0.5,0-1-0.1-1.5-0.4c-0.8-0.5-1.3-1.4-1.3-2.4V50.6c0-1.1,0.6-2,1.5-2.5
				l44.8-22.4c0.9-0.4,1.9-0.4,2.7,0.1c0.8,0.5,1.3,1.4,1.3,2.4v59.5c0,1.1-0.6,2-1.5,2.5l-44.8,22.4
				C100.8,112.7,100.4,112.8,100,112.8z M102.8,52.3v53.2l39.2-19.6V32.7L102.8,52.3z"/>
			<path id="TopRim" class="collection_box-toprim-opacity" opacity="0.2" d="M99.9,53.3c-0.4,0-0.9-0.1-1.3-0.3L53.8,30.6c-0.9-0.5-1.5-1.4-1.5-2.5c0-1.1,0.6-2,1.5-2.5
				L98.7,3.2c0.8-0.4,1.7-0.4,2.5,0L146,25.6c0.9,0.5,1.5,1.4,1.5,2.5c0,1.1-0.6,2-1.5,2.5L101.2,53
				C100.8,53.2,100.4,53.3,99.9,53.3z M61.3,28.1l38.6,19.3l38.6-19.3L99.9,8.8L61.3,28.1z"/>
		</g>
		<path id="Lid_Split" d="M142.8,43.2l-42.5,20.4c-0.2,0.1-0.9,0.2-1.1,0.1L56.6,43.2c-0.9-0.4-1.5-0.1-1.5,0.8v3
			c0,0.9,0.7,1.9,1.5,2.3l42.5,20.5c0.6,0.3,0.8,0.1,1.4-0.2l42.3-20.3c0.9-0.4,1.5-1.4,1.5-2.3v-3
			C144.4,43.2,143.7,42.8,142.8,43.2z"/>
		<path id="Border" d="M99.2,114.1c-0.6,0-1.2-0.1-1.8-0.4L52.6,91.2c-1.3-0.7-2.2-2-2.2-3.5V28.1c0-1.5,0.8-2.8,2.2-3.5L97.5,2.2
			c1.1-0.6,2.4-0.6,3.5,0l44.9,22.4c1.3,0.7,2.2,2,2.2,3.5v59.6c0,1.5-0.8,2.8-2.2,3.5L101,113.6C100.4,113.9,99.8,114.1,99.2,114.1
			z M58.3,85.3l40.9,20.5l40.9-20.5V30.6L99.2,10.1L58.3,30.6V85.3z"/>
		<path id="Lock" d="M66.8,52.1l14.6,7c1.1,0.5,1.9,1.8,1.9,2.9v21.3c0,1.1-0.9,1.5-1.9,1l-14.6-7c-1.1-0.5-1.9-1.8-1.9-2.9V53.1
			C64.8,52,65.7,51.6,66.8,52.1z"/>
	</g>
</g>
</svg>
