<?xml version="1.0" encoding="utf-8"?>
<!-- Generator: Adobe Illustrator 24.0.0, SVG Export Plug-In . SVG Version: 6.00 Build 0)  -->
<svg version="1.1" id="mashup--c" xmlns="http://www.w3.org/2000/svg" xmlns:xlink="http://www.w3.org/1999/xlink" x="0px" y="0px"
	 viewBox="0 0 200 200" style="enable-background:new 0 0 200 200;" xml:space="preserve">

<style type="text/css">
	/*
	Classes Used by IE and MSEdge with Mono Parent Color Fallback for IE
	Chrome, Chromium Edge, and Firefox use the 'fill' Attributes Over the Classes
	==============================================================================  */
	.mashup--color1{
		fill: currentColor;
		fill: var(--color-1, currentColor);
	}
	.mashup_world-blockrims-opacity{opacity:0.05;}
	.mashup_world-continents-opacity{opacity:0.5;}
</style>
<g id="World" class="mashup--color1" fill="var(--color-1, currentColor)" >
	<g id="Continents" class="mashup_world-continents-opacity" opacity="0.5">
		<path d="M38.5,94.7c-2.5-1.7-3-1.9-5.9-3.4c-0.1,0-1.7-1.2-1.8-1.2c-1.4-1-3.1-1.4-5-0.8c-3.8,1.2-4.3,5.5-3.2,8.7
			c0,0.1,0,0.1,0,0.2c2.5,6.7,9.1,11.9,10.2,19.1c0.2,1.2,1,5.4,0.3,7.9c2.4,1,4.6,2,6.8,3.3c-0.1-0.4,0-1,0.4-1.4
			c4.1-4.6,8.6-9.7,9-16c0.3-3.5,1.3-7.4-1.9-10.9C45.1,98.1,41.5,96.6,38.5,94.7z"/>
		<path d="M68.5,30.5c-2.2-2.4-5-4.5-8.1-5.1c-0.1,0-0.1,0-0.1,0c-0.7-0.4-1.4-0.7-2.2-0.8c-1-0.2-2-0.1-2.9,0.3
			c-2,0.8-3.6,2.6-3.5,4.9c-0.1,1.3,0.4,2.7,1.5,3.8c2.1,4.2,2.1,4.2,1.4,6.7c-1,4-3.3,8.3,0.6,11.6c3.4,2.9,8.8-1.1,12.1-3.6
			c3.3-2.5,4.7-3.4,5.4-7.4C73.1,39.4,69.5,31.6,68.5,30.5z"/>
		<path d="M78.7,97c0.7,1.4,1.5,2.7,2.5,3.9L98,84l-0.8-0.8c-1.7-0.5-3.6-0.7-5.4-0.8c-1.2,0-2.4,0.1-3.6,0.3
			c-0.1,0.1-0.2,0.1-0.3,0.1c-0.6,0.1-1.2,0.3-1.9,0.4c-0.1,4.4-3.4,7.8-7.7,8.1c-0.1,0.4-0.2,0.7-0.3,1.1
			C78.3,94,78.5,95.5,78.7,97z"/>
		<path d="M11.6,66.2c0.7,2.2,1.9,4,3.1,6c1.5,2.5,2.5,5.1,3.5,7.7c1,2.6,1.8,5.8,3.9,7.7c0.6,0.6,1.3,1,2,1.3c1,0.4,2-0.7,1.5-1.7
			c-0.3-0.6-0.6-1.2-0.8-1.6c-0.5-1.3-0.8-2.9-0.7-4.3c-0.1-1,0.1-2,0.6-2.9c1.1-2,3.6-2.3,5.6-1.5c3.1,2.2,3.6,2.4,7.4,0.6
			c2.4-1.1,2.4-3.1,4.9-7.5c1.9-3.5,15-9.6,10.6-15.7c-3.6-8.8-8.5-0.8-14.6-2.4c-1.7-0.4-1.7-4.4-0.8-6c1.9-3.1,4.1-4.3,8.5-7.4
			s4.9-6.5,3.3-9c-0.3-0.4-1.4-1.2-2.4-1.7L11.6,45.5V66.2z"/>
		<path d="M90,55c0.1-0.6,0.2-1.3,0.5-1.9c0.4-1.2,2.4-0.7,1.9,0.5c-0.1,0.3-0.2,0.5-0.2,0.8c2.1-0.5,4.4-0.8,6.7-0.9l10-10
			l-10.8-5.4c-0.1,0.4-0.3,0.8-0.4,1.2c-0.5,3.3-3.3,4.5-6.1,5.7c-0.2,0.1-0.3,0.1-0.5,0.2c-2.3,1.9-4.2,4.2-5.6,6.8
			c-0.9,1.8-1.8,3.7-1.5,5.7C85.9,56.6,87.9,55.7,90,55z"/>
		<path d="M90.1,81.2l1.5-1.3c0.4-0.3,0.8-0.7,1.1-1l-3.4-3.4c-0.1-0.1-0.2-0.3-0.4-0.4c-1.7,2.2-2.7,4.8-2.8,7.8
			C87.6,82.6,88.9,81.9,90.1,81.2z"/>
	</g>
	<path id="BlockTop_Rim_1_" class="mashup_world-blockrims-opacity" opacity="0.05" d="M62.2,74c0.5,0,1-0.1,1.4-0.3l9.7-4.9c5-9,14.5-15.1,25.5-15.3l12.3-12.3L63.6,17.4
		c-0.9-0.4-1.9-0.4-2.8,0L10.2,42.7c-1,0.5-1.7,1.7-1.7,2.8s0.6,2.3,1.7,2.8l50.6,25.3C61.3,73.9,61.7,74,62.2,74z M62.2,23.8
		l43.5,21.8L62.2,67.3L18.7,45.5L62.2,23.8z"/>
	<path id="BlockLeft_Rim_1_" class="mashup_world-blockrims-opacity" opacity="0.05" d="M58.2,132.5l-43.5-21.7V50.6L59,72.8v58.9l6.3-6.3V70.9c0-1.2-0.6-2.3-1.7-2.8L13,42.7
		c-1-0.5-2.1-0.4-3.1,0.1c-0.9,0.6-1.5,1.6-1.5,2.7v67.2c0,1.2,0.6,2.3,1.7,2.8l43.3,21.7L58.2,132.5z"/>
	<path id="BlockRight_Rim_1_" class="mashup_world-blockrims-opacity" opacity="0.05" d="M65.4,125.3l0-52.5l7.9-4c5-9,14.5-15.2,25.5-15.3l8.9-8.9L60.9,68
		c-1,0.5-1.7,1.6-1.7,2.8v60.7L65.4,125.3z"/>
	<path id="Border" d="M59.1,131.6L16,110V48.2l46.2-23l43.4,21.6l6.6-6.6l-47.9-24c-1.3-0.6-2.8-0.6-4,0L9.6,41.5
		c-1.5,0.8-2.4,2.3-2.4,4v67.2c0,1.7,1,3.2,2.4,4l42.9,21.5L59.1,131.6z"/>
</g>
<g id="Brush" class="mashup--color1" fill="var(--color-1, currentColor)" >
	<g id="BrushBottom">
		<path d="M68.7,122c0.6-0.6,1.3-1.1,1.8-1.3c0,0,0.1,0,0.1-0.1c1.8-1.5,4.2-2.3,6.8-2.3H91v-13.8c0-4.6,3.6-8.2,8.2-8.2
			c7.2,0,13.1-5.9,13.1-13.1c0-7.2-5.9-13.1-13.1-13.1c-2.9,0-5.5,0.9-7.6,2.5c0.1,0.1,0.2,0.2,0.3,0.4L103.2,84l-33.9,34.1
			c-1,1-1.5,2.3-1.5,3.6c0,0.4,0.1,0.8,0.2,1.2L68.7,122z"/>
	</g>
	<g id="BrushTop">
		<path d="M114.4,57.7l27.8-27.8l6.1,6.1l-23.5,23.6c-1,1-1,2.6,0,3.6c0.5,0.5,1.2,0.8,1.8,0.8s1.3-0.3,1.8-0.8L152,39.5l4.5,4.5
			l-19.5,19.6c-1,1-1,2.6,0,3.6c0.5,0.5,1.2,0.8,1.8,0.8c0.6,0,1.3-0.3,1.8-0.8l19.5-19.5l4.5,4.5l-15.4,15.5c-1,1-1,2.6,0,3.6
			c0.5,0.5,1.2,0.8,1.8,0.8c0.6,0,1.3-0.3,1.8-0.8L168.3,56l11.4,11.4l-35,35.1l-16-16c-1.4,11.7-9.8,21.7-21.1,25v6.8h4.6
			l12.7-12.7l12,12c1,1,2.3,1.5,3.6,1.5c1.3,0,2.6-0.5,3.6-1.5c0.1-0.1,0.4-0.4,0.5-0.6l49.8-49.5l-52.1-52.1l-38.5,38.5
			C107.6,54.4,111.2,55.7,114.4,57.7z"/>
	</g>
</g>
<path id="Hanger" class="mashup--color1" fill="var(--color-1, currentColor)" d="M166.9,163.7c-0.3-0.6-0.7-1-1.1-1.6l-37.3-37.3c-0.1-0.1-0.1-0.1-0.3-0.1c-1.3-1.4-3.1-2.4-5.2-2.4h-19.4v-0.1
	v-13.9c12-2,21.4-12.6,21.4-25.2c0-14.1-11.5-25.6-25.6-25.6S73.7,68.9,73.7,83.1c0,2.4,1.8,4.2,4.2,4.2s4.2-1.8,4.2-4.2
	c0-9.5,7.6-17.1,17.1-17.1c9.5,0,17.1,7.6,17.1,17.1c0,9.5-7.6,17.1-17.1,17.1c-2.4,0-4.2,1.8-4.2,4.2v17.7v0.1H77.4
	c-1.7,0-3.3,0.6-4.4,1.6c-0.4,0.3-1,0.6-1.4,1l-37.3,37.3c-0.4,0.4-0.8,1-1.1,1.6c-0.8,1.1-1.3,2.5-1.3,4.1v7.1c0,4,3.1,7.1,7.1,7.1
	h1.7h2.7h113.3h1.4h3.1c4,0,7.1-3.1,7.1-7.1v-7.1C168.4,166.3,167.8,164.9,166.9,163.7z M149.7,174.9c0,0.3,0,0.4,0,0.7H50.4
	c0-0.3,0-0.4,0-0.7v-2.5l31.5-31.5h36.2l31.5,31.5V174.9z"/>
</svg>
