<?xml version="1.0" encoding="utf-8"?>
<!-- Generator: Adobe Illustrator 24.1.0, SVG Export Plug-In . SVG Version: 6.00 Build 0)  -->
<svg version="1.1" id="mc-earth_plate--c" xmlns="http://www.w3.org/2000/svg" xmlns:xlink="http://www.w3.org/1999/xlink"
	 x="0px" y="0px" viewBox="0 0 198.4 198.4" style="enable-background:new 0 0 198.4 198.4;" xml:space="preserve">

<style type="text/css">
	/*
	Classes Used by IE and MSEdge with Mono Parent Color Fallback for IE
	Chrome, Chromium Edge, and Firefox use the 'fill' Attributes Over the Classes
	==============================================================================  */
	.mc-earth_plate--color1{
		fill: currentColor;
		fill: var(--color-1, currentColor);
	}
	.mc-earth_plate-inner-opacity{opacity:0.5;}
</style>
<g id="mc-earth_plate" class="mc-earth_plate--color1" fill="var(--color-1, currentColor)">
	<path id="Outer" d="M99.2,150.5c-0.9,0-1.8-0.2-2.6-0.7L8.9,100.5c-1.7-0.9-2.7-2.7-2.7-4.6c0-1.9,1-3.7,2.7-4.6l87.7-48.7
		c1.6-0.9,3.6-0.9,5.2,0l87.7,48.7c1.7,0.9,2.7,2.7,2.7,4.6c0,1.9-1,3.7-2.7,4.6l-87.7,49.3C101,150.2,100.1,150.5,99.2,150.5z
		M22.4,95.9l76.8,43.2L176,95.9L99.2,53.2L22.4,95.9z"/>
	<path id="Inner" class="mc-earth_plate-inner-opacity" opacity="0.5" d="M99.2,126.7c-0.9,0-1.7-0.2-2.5-0.7L50.4,99.5c-1.6-0.9-2.5-2.5-2.5-4.3s1-3.4,2.5-4.3l46.3-26.6
		c1.5-0.9,3.4-0.9,5,0L148,90.8c1.6,0.9,2.5,2.5,2.5,4.3c0,1.8-1,3.4-2.5,4.3L101.7,126C100.9,126.5,100.1,126.7,99.2,126.7z
		M63,95.1l36.2,20.8l36.2-20.8L99.2,74.3L63,95.1z"/>
</g>
</svg>
