<?xml version="1.0" encoding="utf-8"?>
<!-- Generator: Adobe Illustrator 24.1.0, SVG Export Plug-In . SVG Version: 6.00 Build 0)  -->
<svg version="1.1" id="persona_items--c" xmlns="http://www.w3.org/2000/svg" xmlns:xlink="http://www.w3.org/1999/xlink"
	 x="0px" y="0px" viewBox="0 0 198.4 198.4" style="enable-background:new 0 0 198.4 198.4;" xml:space="preserve">

<style type="text/css">
	/*
	Classes Used by IE and MSEdge with Mono Parent Color Fallback for IE
	Chrome, Chromium Edge, and Firefox use the 'fill' Attributes Over the Classes
	==============================================================================  */
	.persona_items--color1{
		fill: currentColor;
		fill: var(--color-1, currentColor);
	}
	.persona_items-inneredge-opacity{opacity:0.5;}
</style>
<g id="persona_items" class="persona_items--color1" fill="var(--color-1, currentColor)">
	<path d="M179.3,121.2c-6.8-7.4-17.8-12.2-30.3-15.2c0,3.4,0,6.9,0,10.3c13.2,3.6,19.8,8.3,23,11.7c2.7,2.9,3.2,7.2,1.3,10.7
		c-5.9,11.1-23.3,29.7-74.1,29.7c-17.9,0-61-3-74.9-30.6c-1.5-3-1.1-6.5,1.1-9c3.1-3.7,9.7-8.7,23.6-12.5c0-3.4,0-6.9,0-10.3
		c-17.3,4.3-26.4,10.6-31.3,16.3c-4.7,5.6-5.7,13.4-2.4,20c6.8,13.5,26.7,36.1,83.8,36.1c56,0,76-22,82.9-35.1
		C186,136.1,184.9,127.2,179.3,121.2z"/>
	<path class="persona_items-inneredge-opacity" opacity="0.5" d="M143.9,42.7C139.3,46,126.4,52.9,99,52.9c-25.7,0-39.6-7.1-44.9-10.6c-1.9,1.9-2.9,4.8-5.2,6.4
		c1.9,1.4,4.8,3.3,9,5.1c10.7,4.7,24.5,7,41.2,7c16.7,0,30.5-2.4,41.2-7c3.2-1.4,5.7-2.9,7.6-4.1C150.6,47.8,146.9,42.7,143.9,42.7z"
		/>
	<path d="M145.9,101.3c-5.5,3.3-23,11.6-46.9,11.6c-23.9,0-42.4-8.3-47.9-11.6l-5.7,8.1c1.3,1.6,13.1,15.5,53.6,15.5
		s52.3-13.9,53.6-15.5L145.9,101.3z"/>
	<path d="M99,149.2c-42.3,0-53-13.7-54.1-15.2c-0.6-0.8-0.9-1.8-0.9-2.9V44.5c0-0.5,0.1-1,0.2-1.5c0.3-0.9,8-23.2,54.8-23.2
		c19.2,0,34,3.6,44.2,10.8c8.2,5.7,10.3,11.8,10.5,12.4c0.2,0.5,0.2,1,0.2,1.5v85.9c0,1-0.3,1.9-0.8,2.8
		C152.1,134.8,141.3,149.2,99,149.2z M54,129.1c3.2,2.7,14.7,10.1,45,10.1c30.6,0,42-8,45-10.8V45.5c-0.6-1.2-2.6-4.3-7.3-7.4
		c-5.9-3.8-17.2-8.4-37.7-8.4c-20.5,0-31.8,4.6-37.7,8.4c-4.7,3.1-6.7,6.1-7.3,7.4V129.1z"/>
</g>
</svg>
