<?xml version="1.0" encoding="utf-8"?>
<!-- Generator: Adobe Illustrator 24.0.0, SVG Export Plug-In . SVG Version: 6.00 Build 0)  -->
<svg version="1.1" id="realms--c" xmlns="http://www.w3.org/2000/svg" xmlns:xlink="http://www.w3.org/1999/xlink" x="0px" y="0px"
	 viewBox="0 0 200 200" style="enable-background:new 0 0 200 200;" xml:space="preserve">

<style type="text/css">
	/*
	Classes Used by IE and MSEdge with Mono Parent Color Fallback for IE
	Chrome, Chromium Edge, and Firefox use the 'fill' Attributes Over the Classes
	==============================================================================  */
	.realms--color1{
		fill: currentColor;
		fill: var(--color-1, currentColor);
	}
	.realms_box-inner-rims-opacity{opacity:0.2;}
	.realms_box-inner-portal-opacity{opacity:0.5;}
</style>
<g id="Structure" class="realms--color1" fill="var(--color-1, currentColor)" >
	<g id="Inner_Rims">
		<path id="FrontRim" class="realms_box-inner-rims-opacity" opacity="0.2" d="M81.4,190.7c-0.8,0-1.6-0.2-2.3-0.6c-1.3-0.8-2.1-2.2-2.1-3.7V64.6c0-1.6,0.9-3.1,2.4-3.9
			l66.1-33.6c1.3-0.7,2.9-0.6,4.2,0.2c1.3,0.8,2.1,2.2,2.1,3.7v122.8c0,1.6-0.9,3.1-2.4,3.9l-66.1,32.6
			C82.7,190.5,82,190.7,81.4,190.7z M85.7,67.3v112.1l57.5-28.2V38L85.7,67.3z"/>
		<path id="TopRim" class="realms_box-inner-rims-opacity" opacity="0.2" d="M81.1,68.9c-0.6,0-1.3-0.2-1.9-0.5L47.8,52.8c-1.4-0.7-2.3-2.2-2.3-3.9s0.9-3.1,2.3-3.9
			l64.5-34.6c1.2-0.6,2.6-0.6,3.8,0L148.5,27c1.4,0.7,2.3,2.2,2.3,3.9c0,1.6-0.9,3.1-2.3,3.9L83,68.4C82.4,68.7,81.8,68.9,81.1,68.9
			z M59.1,48.9l22.1,10.8l56.1-28.8l-23.1-11.8L59.1,48.9z"/>
	</g>
	<path id="Border_2_" d="M82.2,191.6c-0.9,0-1.9-0.2-2.7-0.6l-31.2-16.6c-2.1-1-3.3-3.1-3.3-5.4V47.9c0-2.3,1.3-4.4,3.3-5.4
		l63.2-33.6c1.7-0.9,3.7-0.9,5.4,0l34.2,16.6c2.1,1,3.3,3.1,3.3,5.4v121.9c0,2.3-1.3,4.4-3.3,5.4l-66.2,32.6
		C84,191.3,83.1,191.6,82.2,191.6z M57,165.1l25.2,13.6l60.2-29.6V34.7l-28.2-13.6L57,51.7V165.1z"/>
</g>
<rect id="Inner_Portal" class="realms--color1 realms_box-inner-portal-opacity" fill="var(--color-1, currentColor)" opacity="0.5" x="107.6" y="73.1" width="14.8" height="65.7"/>
<path id="Inner_Portal_Border" class="realms--color1" fill="var(--color-1, currentColor)" d="M129.7,133.5V68.8c0-3,0-8-4.7-5.8l-23.1,11.3c-3.1,1.6-2.7,4.3-2.7,4.5v65.9
	c0,4.8,2.6,7.1,6.2,5.4L128,139C129.9,138,129.7,136.7,129.7,133.5z M120.8,132.4l-9.6,5.1c-1.5,1.2-2.6-0.4-2.6-3.9V82.7
	c0-0.1-0.2-2.1,1.1-3.2l9.8-5.2c1.3-0.7,2,0.5,2,4.2v50C121.5,130.8,121.6,131.8,120.8,132.4z"/>
</svg>
