<?xml version="1.0" encoding="utf-8"?>
<svg version="1.1" id="skins--c" xmlns="http://www.w3.org/2000/svg" xmlns:xlink="http://www.w3.org/1999/xlink" x="0px" y="0px"
	 viewBox="0 0 100 100" style="enable-background:new 0 0 100 100;" xml:space="preserve">

<style type="text/css">
	/*
	Classes Used by IE and MSEdge with Mono Parent Color Fallback for IE
	Chrome, Chromium Edge, and Firefox use the 'fill' Attributes Over the Classes
	==============================================================================  */
	.skins--color1{
		fill: currentColor;
		fill: var(--color-1, currentColor);
	}
</style>

<g class="skins--color1" fill="var(--color-1, currentColor)" x="0" y="0">
	<path d="M46.5,50.4H34c-1.2,0-2.3,0.4-3.1,1.1c-0.3,0.2-0.7,0.4-1,0.7L3.5,78.6c-0.3,0.3-0.6,0.7-0.8,1.1c-0.6,0.8-0.9,1.8-0.9,2.9
		v5c0,2.8,2.2,5,5,5H8h1.9H90h1h2.2c2.8,0,5-2.2,5-5v-5c0.1-1.1-0.3-2.1-0.9-2.9c-0.2-0.4-0.5-0.7-0.8-1.1L70.1,52.2
		c-0.1-0.1-0.1-0.1-0.2-0.1c-0.9-1-2.2-1.7-3.7-1.7H52.5 M14.9,88.1c0-0.2,0-0.3,0-0.5v-1.8l22.3-22.3h25.6l22.3,22.3v1.8
		c0,0.2,0,0.3,0,0.5H14.9z"/>
	<path d="M49.5,55.9c1.7,0,3-1.3,3-3v-2.6v-9.8c8.5-1.4,15.1-8.9,15.1-17.8c0-10-8.1-18.1-18.1-18.1s-18.1,8.1-18.1,18.1
		c0,1.7,1.3,3,3,3s3-1.3,3-3c0-6.7,5.4-12.1,12.1-12.1S61.6,16,61.6,22.7s-5.4,12.1-12.1,12.1c-1.7,0-3,1.3-3,3v12.5v2.6
		C46.5,54.6,47.9,55.9,49.5,55.9z"/>
</g>
</svg>
