<?xml version="1.0" encoding="utf-8"?>
<!-- Generator: Adobe Illustrator 23.1.1, SVG Export Plug-In . SVG Version: 6.00 Build 0)  -->
<svg version="1.1" id="textures--c" xmlns="http://www.w3.org/2000/svg" xmlns:xlink="http://www.w3.org/1999/xlink" x="0px" y="0px"
	 viewBox="0 0 100 100" style="enable-background:new 0 0 100 100;" xml:space="preserve">

<style type="text/css">
	/*
	Classes Used by IE and MSEdge with Mono Parent Color Fallback for IE
	Chrome, Chromium Edge, and Firefox use the 'fill' Attributes Over the Classes
	==============================================================================  */
	.textures--color1{
		fill: currentColor;
		fill: var(--color-1, currentColor);
	}
</style>

<path class="textures--color1" fill="var(--color-1, currentColor)" d="M99.6,40.6L59.2,0.2L20.7,38.7l0,0c-0.2,0.1-0.3,0.2-0.5,0.4c-1.6,1.6-1.6,4.1,0,5.7l8.7,8.7L2.6,79.9
	c-0.8,0.8-1.2,1.8-1.2,2.8s0.4,2.1,1.2,2.8l11.1,11.1c0.8,0.8,1.8,1.2,2.8,1.2s2-0.4,2.8-1.2l26.4-26.4l9.3,9.3
	c0.8,0.8,1.8,1.2,2.8,1.2c1,0,2-0.4,2.8-1.2c0.1-0.1,0.3-0.3,0.4-0.5l0,0L99.6,40.6z M59.2,11.5l4.7,4.7L45.7,34.5
	c-0.8,0.8-0.8,2,0,2.8c0.4,0.4,0.9,0.6,1.4,0.6c0.5,0,1-0.2,1.4-0.6l18.3-18.3l3.5,3.5L55.2,37.7c-0.8,0.8-0.8,2,0,2.8
	c0.4,0.4,0.9,0.6,1.4,0.6s1-0.2,1.4-0.6l15.1-15.1l3.5,3.5L64.7,40.9c-0.8,0.8-0.8,2,0,2.8c0.4,0.4,0.9,0.6,1.4,0.6
	c0.5,0,1-0.2,1.4-0.6l11.9-11.9l8.8,8.8L61.1,67.8L32,38.7L59.2,11.5z"/>
</svg>
