<?xml version="1.0" encoding="utf-8"?>
<!-- Generator: Adobe Illustrator 23.1.1, SVG Export Plug-In . SVG Version: 6.00 Build 0)  -->
<svg version="1.1" id="world--c" xmlns="http://www.w3.org/2000/svg" xmlns:xlink="http://www.w3.org/1999/xlink" x="0px" y="0px"
	 viewBox="0 0 200 200" style="enable-background:new 0 0 200 200;" xml:space="preserve">

<style type="text/css">
	/*
	Classes Used by IE and MSEdge with Mono Parent Color Fallback for IE
	Chrome, Chromium Edge, and Firefox use the 'fill' Attributes Over the Classes
	==============================================================================  */
	.world--color1{
		fill: currentColor;
		fill: var(--color-1, currentColor);
	}
	.world-leftrim-opacity{opacity:0.05;}
	.world-rightrim-opacity{opacity:0.05;}
	.world-toprim-opacity{opacity:0.05;}
	.world-continents-opacity{opacity:0.5;}
</style>
<g class="world--color1" fill="var(--color-1, currentColor)" >
	<g id="BlockLeft_Rim" class="world-leftrim-opacity" opacity="0.05">
		<path d="M100,197c-0.8,0-1.5-0.2-2.2-0.5l-79.1-39.6c-1.7-0.8-2.7-2.5-2.7-4.4v-105c0-1.7,0.9-3.3,2.3-4.2
			c1.5-0.9,3.3-1,4.8-0.2l79.1,39.6c1.7,0.8,2.7,2.5,2.7,4.4v105.1c0,1.7-0.9,3.3-2.3,4.2C101.8,196.8,100.9,197,100,197z
			 M25.8,149.5L95,184.1v-94L25.8,55.5V149.5z"/>
	</g>
	<g id="BlockRight_Rim" class="world-rightrim-opacity" opacity="0.05">
		<path d="M100.1,196.9c-0.9,0-1.8-0.2-2.6-0.7c-1.5-0.9-2.3-2.5-2.3-4.2V87.1c0-1.9,1.1-3.6,2.7-4.4l79-39.5
			c1.5-0.8,3.4-0.7,4.8,0.2c1.5,0.9,2.3,2.5,2.3,4.2v104.9c0,1.9-1.1,3.6-2.7,4.4l-79,39.5C101.6,196.7,100.8,196.9,100.1,196.9z
			 M105,90.1V184l69.1-34.5V55.6L105,90.1z"/>
	</g>
	<g id="BlockTop_Rim" class="world-toprim-opacity" opacity="0.05">
		<path d="M100,92c-0.8,0-1.5-0.2-2.2-0.5L18.7,51.9C17,51.1,16,49.3,16,47.5s1.1-3.6,2.7-4.4L97.8,3.5
			c1.4-0.7,3-0.7,4.4,0l79.1,39.6c1.7,0.8,2.7,2.5,2.7,4.4s-1.1,3.6-2.7,4.4l-79.1,39.6C101.5,91.8,100.8,92,100,92z M32,47.5l68,34
			l68-34l-68-34L32,47.5z"/>
	</g>
	<g id="Continents" class="world-continents-opacity" opacity="0.5">
		<path d="M62.9,124.3c-3.9-2.6-4.7-2.9-9.2-5.3c-0.1,0-2.7-1.8-2.8-1.8c-2.2-1.5-4.9-2.2-7.8-1.2
			c-5.9,1.9-6.7,8.6-5,13.6c0,0.1,0,0.2,0,0.3c3.9,10.5,14.2,18.6,16,29.8c0.3,1.9,1.5,8.5,0.5,12.4c3.7,1.5,7.2,3.2,10.6,5.2
			c-0.1-0.7,0-1.5,0.6-2.2c6.4-7.2,13.4-15.2,14.1-25c0.4-5.4,2.1-11.5-2.9-17C73.2,129.6,67.6,127.4,62.9,124.3z"/>
		<path d="M129.1,82.4c-0.1-0.2-0.1-0.4-0.1-0.7c0.3-3-0.7-13-5.7-8.9c-2.3,1.9-3.5,5.4-4.5,8.2c-0.5,2.3-0.7,4.6-0.9,7
			c0.4,1,1,2,2,2.6c0.6,0.2,1.2,0.4,1.8,0.7C125.4,90.9,127.7,86.5,129.1,82.4z"/>
		<path d="M109.8,24c-3.4-3.7-7.8-7.1-12.6-8c-0.1,0-0.1,0-0.2,0c-1.1-0.7-2.2-1.1-3.4-1.3c-1.6-0.3-3.2-0.1-4.6,0.5
			c-3.2,1.2-5.7,4.1-5.4,7.7c-0.1,2.1,0.6,4.2,2.4,6c3.3,6.6,3.3,6.6,2.2,10.5c-1.6,6.2-5.1,12.9,0.9,18.1
			c5.3,4.6,13.7-1.7,18.9-5.6c5.2-3.9,7.3-5.3,8.5-11.6C117,38,111.3,25.8,109.8,24z"/>
		<path d="M171.6,116.5c-0.5-0.6-1-1.3-1.6-1.9c-1.8-1.7-4-3.3-6.5-4.5c-5.2-3-11.2-4.7-17.2-4.8
			c-1.8,0-3.7,0.1-5.6,0.4c-0.1,0.1-0.3,0.1-0.4,0.1c-4,0.7-7.9,2.3-10.7,5.3c-2,2.2-4.1,6-4.7,9.7c0.2,2.4,0.5,4.8,0.9,7.2
			c2.4,5.2,6.1,9,10.6,12.2c2.8,0.9,6.5,2.1,10.2,3.3c3,0.3,5.7,1.7,7.1,4.8c2,4.6,1,10.9,5.2,14.4l13.5-6.7c0.3-3,0.2-6,0.5-8.4
			c0.9-8.5,4-19.4,0.6-27.6C173.2,118.6,172.5,117.5,171.6,116.5z"/>
		<path d="M20.9,79.8c1.1,3.4,2.9,6.3,4.8,9.4c2.4,3.9,3.9,7.9,5.4,12.1c1.5,4.1,2.8,9,6.1,12.1c0.9,0.9,2,1.5,3.1,2
			c1.6,0.7,3.1-1.1,2.3-2.7c-0.5-0.9-0.9-1.8-1.2-2.5c-0.8-2.1-1.3-4.5-1.1-6.7c-0.2-1.6,0.1-3.2,0.9-4.6c1.7-3.1,5.6-3.6,8.7-2.3
			c4.8,3.5,5.6,3.7,11.6,1c3.8-1.7,3.8-4.8,7.6-11.7c2.9-5.4,23.4-15,16.5-24.6c-5.7-13.7-13.3-1.2-22.8-3.8
			c-2.7-0.7-2.7-6.9-1.2-9.3c3-4.9,6.4-6.7,13.3-11.6s7.7-10.1,5.1-14c-0.4-0.7-2.2-1.8-3.8-2.7L20.9,47.5V79.8z"/>
		<path d="M155.4,37.8c-0.8,5.1-5.1,7-9.5,8.9c-0.3,0.1-0.5,0.2-0.8,0.3c-3.6,2.9-6.5,6.5-8.7,10.6
			c-1.8,3.4-3.4,7.2-1.7,11c0.9,2,4.3,8.3,7.5,5.1c0.7-1.1,1-2.4,1.1-3.8c0.2-3.7-0.5-7.1,0.9-10.6c0.7-1.9,3.7-1.1,3,0.8
			c-2.2,5.8,1.5,13.1-4.3,17.4c-0.9,0.7-1.9,1.1-2.8,1.3c-1.6,1-3.4,1.8-4.7,3.2c-2.5,2.5-3.7,5.9-5.2,9c0,0.1,0,0.2,0,0.2
			c-2.4,5.2-2.7,12.2,3.4,14.2c3.5,1.1,7.1-0.3,10-2.2l2.4-2c1-0.8,2-1.8,2.9-2.8c4.3-3.4,8.6-6.2,14.7-4.8c2.8,0.6,6,2.2,8.8,4.3
			c0.3,1,0.6,2,0.6,3.1c0.1,3.1,0.8,5.9,2,8.9c0.9,2.4,2.3,4.6,4.1,6.4V47.5L156,35.9C155.8,36.5,155.5,37.1,155.4,37.8z"/>
	</g>
	<path id="Border" d="M100,199c-1.1,0-2.1-0.2-3.1-0.7l-79.1-39.6c-2.3-1.2-3.8-3.6-3.8-6.2v-105c0-2.6,1.5-5,3.8-6.2L96.9,1.7
		c1.9-1,4.2-1,6.2,0l79.1,39.6c2.3,1.2,3.8,3.6,3.8,6.2v105.1c0,2.6-1.5,5-3.8,6.2l-79.1,39.6C102.1,198.8,101.1,199,100,199z
		 M27.8,148.3l72.2,36.1l72.2-36.1V51.7l-72.2-36l-72.2,36V148.3z"/>
</g>
</svg>
