<?xml version="1.0" encoding="utf-8"?>
<!-- Generator: Adobe Illustrator 24.1.0, SVG Export Plug-In . SVG Version: 6.00 Build 0)  -->
<svg version="1.1" id="computer_monitor--c" xmlns="http://www.w3.org/2000/svg" xmlns:xlink="http://www.w3.org/1999/xlink"
	 x="0px" y="0px" viewBox="0 0 198.4 198.4" style="enable-background:new 0 0 198.4 198.4;" xml:space="preserve">

<style type="text/css">
	/*
	Classes Used by IE and MSEdge with Mono Parent Color Fallback for IE
	Chrome, Chromium Edge, and Firefox use the 'fill' Attributes Over the Classes
	==============================================================================  */
	.computer_monitor--color1{
		fill: currentColor;
		fill: var(--color-1, currentColor);
	}
	.computer_monitor-screen-opacity{opacity:0.15;}
</style>
<g id="computer_monitor" class="computer_monitor--color1" fill="var(--color-1, currentColor)">
	<rect x="15.2" y="31.6" class="computer_monitor-screen-opacity" opacity="0.15" width="167.6" height="103.6"/>
	<path d="M191.3,25.4H7.1c-1.2,0-2.2,1-2.2,2.2V147c0,1.2,1,2.2,2.2,2.2h78.5v17H56.8c-2.2,0-4,1.8-4,4v4.9v1.8v3.4
		c0,0.3,0.3,0.6,0.6,0.6h3.4h28.7h27.2H142h3.4v-3.4v-2.4v-4.9c0-2.2-1.8-4-4-4h-28.7v-17h78.6c1.2,0,2.2-1,2.2-2.2V27.6
		C193.5,26.4,192.5,25.4,191.3,25.4z M179.3,132.4H19V34.9h160.3V132.4z"/>
</g>
</svg>
