<?xml version="1.0" encoding="utf-8"?>
<!-- Generator: Adobe Illustrator 24.1.0, SVG Export Plug-In . SVG Version: 6.00 Build 0)  -->
<svg version="1.1" id="gamepad--c" xmlns="http://www.w3.org/2000/svg" xmlns:xlink="http://www.w3.org/1999/xlink" x="0px" y="0px"
	 viewBox="0 0 198.4 198.4" style="enable-background:new 0 0 198.4 198.4;" xml:space="preserve">

<style type="text/css">
	/*
	Classes Used by IE and MSEdge with Mono Parent Color Fallback for IE
	Chrome, Chromium Edge, and Firefox use the 'fill' Attributes Over the Classes
	==============================================================================  */
	.gamepad--color1{
		fill: currentColor;
		fill: var(--color-1, currentColor);
	}
	.gamepad-controls-opacity{opacity:0.70;}
</style>
<g id="gamepad" class="gamepad--color1" fill="var(--color-1, currentColor)">
	<path d="M40.7,174.5c-0.1,0-0.3,0-0.4,0c-8.6-0.7-29.3-2.9-34.5-8C4,164.6,3.7,162,3.9,158c0.6-13.1,7-46.4,12.3-71
		c11.7-54.2,15-51.8,16.5-52.9c4.7-3.9,22.8-7.6,37.1-10.1c2.1-0.4,4.2,0.4,5.6,1.9c1.6,1.8,3.5,4.1,4.8,6.5l19.1-0.2l18,0.2
		c1.3-2.4,3.2-4.7,4.8-6.5c1.4-1.6,3.5-2.3,5.6-1.9c14.3,2.4,32.3,6.2,37.1,10.1c1.4,1.2,4.7-1.3,16.5,52.9
		c5.3,24.6,11.7,57.9,12.3,71c0.2,4-0.1,6.6-1.9,8.4c-5.2,5.1-25.9,7.3-34.5,8c-2.1,0.2-4.1-1.1-4.8-3.1l-15.2-26.1H60.4l-15.2,26.1
		C44.5,173.2,42.7,174.5,40.7,174.5z M57.1,135.8h83.3c2,0,3.8,1.2,4.4,3.1l15.1,25.8c10.8-1.1,20.8-2.9,24.2-4.5
		c0.2-5.9-3.2-28.2-10.3-62.5c-6.9-33.2-13.3-52.1-15.5-56.6c-2.8-1.6-13.9-4.6-30.4-7.5c-1.8,2.2-2.8,3.9-2.9,4.5
		c-0.5,2.2-2.4,3.8-4.6,3.8c0,0,0,0,0,0l-22.2-0.2L77.1,42c0,0,0,0,0,0c-2.2,0-4.2-1.6-4.6-3.8c-0.1-0.6-1.1-2.3-2.9-4.5
		c-16.5,2.9-27.6,5.9-30.4,7.5c-2.2,4.4-8.5,23.4-15.5,56.6c-7.2,34.3-10.5,56.6-10.3,62.5c3.5,1.7,14.3,3.5,24.2,4.5l15.1-25.8
		C53.3,137,55.1,135.8,57.1,135.8z M184.1,161.2L184.1,161.2L184.1,161.2z M13.4,161.2L13.4,161.2L13.4,161.2z"/>
	<path class="gamepad-controls-opacity" opacity="0.70" d="M138.7,48.6c-3.3,0-6,2.7-6,6c0,3.3,2.7,6,6,6c3.3,0,6-2.7,6-6C144.8,51.3,142,48.6,138.7,48.6z"/>
	<path class="gamepad-controls-opacity" opacity="0.70" d="M125.4,63c-3.3,0-6,2.7-6,6c0,3.3,2.7,6,6,6c3.3,0,6-2.7,6-6C131.5,65.7,128.7,63,125.4,63z"/>
	<path class="gamepad-controls-opacity" opacity="0.70" d="M138.7,76.1c-3.3,0-6,2.7-6,6c0,3.3,2.7,6,6,6c3.3,0,6-2.7,6-6C144.8,78.8,142,76.1,138.7,76.1z"/>
	<path class="gamepad-controls-opacity" opacity="0.70" d="M152.6,63c-3.3,0-6,2.7-6,6c0,3.3,2.7,6,6,6c3.3,0,6-2.7,6-6C158.6,65.7,155.9,63,152.6,63z"/>
	<path class="gamepad-controls-opacity" opacity="0.70" d="M88.8,112.1h-8.3v8.5c0,0.3-0.2,0.5-0.5,0.5h-9.6c-0.3,0-0.5-0.2-0.5-0.5v-8.5h-8.3c-0.3,0-0.5-0.2-0.5-0.5V102
		c0-0.3,0.2-0.5,0.5-0.5h8.3v-8.3c0-0.3,0.2-0.5,0.5-0.5H80c0.3,0,0.5,0.2,0.5,0.5v8.3h8.3c0.3,0,0.5,0.2,0.5,0.5v9.6
		C89.3,111.9,89,112.1,88.8,112.1z"/>
	<path class="gamepad-controls-opacity" opacity="0.70" d="M57.5,55.9c7.3,0,13.1,5.8,13.1,13.1s-5.8,13.1-13.1,13.1S44.4,76.3,44.4,69C44.4,61.9,50.2,55.9,57.5,55.9z"/>
	<path class="gamepad-controls-opacity" opacity="0.70" d="M123,93.8c7.3,0,13.1,5.8,13.1,13.1c0,7.3-5.8,13.1-13.1,13.1c-7.3,0-13.1-5.8-13.1-13.1
		C109.9,99.8,115.7,93.8,123,93.8z"/>
</g>
</svg>
