<?xml version="1.0" encoding="utf-8"?>
<!-- Generator: Adobe Illustrator 24.1.0, SVG Export Plug-In . SVG Version: 6.00 Build 0)  -->
<svg version="1.1" id="smart_phone--c" xmlns="http://www.w3.org/2000/svg" xmlns:xlink="http://www.w3.org/1999/xlink" x="0px"
	 y="0px" viewBox="0 0 198.4 198.4" style="enable-background:new 0 0 198.4 198.4;" xml:space="preserve">

<style type="text/css">
	/*
	Classes Used by IE and MSEdge with Mono Parent Color Fallback for IE
	Chrome, Chromium Edge, and Firefox use the 'fill' Attributes Over the Classes
	==============================================================================  */
	.smart_phone--color1{
		fill: currentColor;
		fill: var(--color-1, currentColor);
	}
	.smart_phone-screen-opacity{opacity:0.15;}
	.smart_phone-innerelement-opacity{opacity:0.5;}
</style>
<g id="smart_phone" class="smart_phone--color1" fill="var(--color-1, currentColor)">
	<path d="M132.1,18.5H66.3c-5.1,0-9.2,4.1-9.2,9.2v143c0,5.1,4.1,9.2,9.2,9.2h65.8c5.1,0,9.2-4.1,9.2-9.2v-143
		C141.3,22.6,137.2,18.5,132.1,18.5z M88,27.1c0-0.2,0.1-0.3,0.3-0.3h21.8c0.2,0,0.3,0.1,0.3,0.3v2.4c0,0.2-0.1,0.3-0.3,0.3H88.3
		c-0.2,0-0.3-0.1-0.3-0.3V27.1z M99.2,174.2c-4,0-7.2-3.2-7.2-7.2c0-4,3.2-7.2,7.2-7.2c4,0,7.2,3.2,7.2,7.2
		C106.4,170.9,103.2,174.2,99.2,174.2z M135.8,151.8c0,2-1.6,3.5-3.5,3.5H66.7c-2,0-3.5-1.6-3.5-3.5V38.3c0-2,1.6-3.5,3.5-3.5h65.5
		c2,0,3.5,1.6,3.5,3.5V151.8z"/>
	<rect x="61.1" y="33.2" class="smart_phone-screen-opacity" opacity="0.15" width="76.7" height="123.8"/>
	<rect x="84.7" y="24.6" class="smart_phone-innerelement-opacity" opacity="0.5" width="28.2" height="6.9"/>
	<rect x="86" y="157.9" class="smart_phone-innerelement-opacity" opacity="0.5" width="26.8" height="18.1"/>
</g>
</svg>
