<?xml version="1.0" encoding="utf-8"?>
<!-- Generator: Adobe Illustrator 23.1.1, SVG Export Plug-In . SVG Version: 6.00 Build 0)  -->
<svg version="1.1" id="Layer_1" xmlns="http://www.w3.org/2000/svg" xmlns:xlink="http://www.w3.org/1999/xlink" x="0px" y="0px"
	 viewBox="0 0 15 20" style="enable-background:new 0 0 15 20;" xml:space="preserve">
<style type="text/css">
	.st0{fill:#ECE9EF;}
	.st1{fill:#B4B3B7;}
	.st2{fill:#D2D0D5;}
	.st3{fill:#CFCDD2;}
	.st4{fill:#CDA585;}
	.st5{fill:#CF9C76;}
	.st6{fill:#A56137;}
	.st7{fill:#CB9A73;}
	.st8{fill:#EBCAAE;}
</style>
<path class="st0" d="M7,2h1h1h1V1H9H8H7H6H5v1h1H7z"/>
<path class="st0" d="M5,3V2H4H3v1h1H5z"/>
<path class="st1" d="M6,3h1h1h1h1V2H9H8H7H6H5v1H6z"/>
<path class="st0" d="M11,3h1V2h-1h-1v1H11z"/>
<path class="st2" d="M4,3H3v1h1V3z"/>
<path class="st1" d="M5,3H4v1h1V3z"/>
<path class="st1" d="M11,3h-1v1h1V3z"/>
<path class="st2" d="M12,3h-1v1h1V3z"/>
<path class="st1" d="M11,5v1v1v1v1h1V8V7V6V5V4h-1V5z"/>
<path class="st1" d="M3,6v1v1v1h1V8V7V6V5V4H3v1V6z"/>
<path class="st2" d="M12,6v1v1v1h1V8V7V6V5V4h-1v1V6z"/>
<path class="st3" d="M3,8V7V6V5V4H2v1v1v1v1v1h1V8z"/>
<path class="st4" d="M14,9h-1v1h1V9z"/>
<path class="st5" d="M11.6,9h-1.2H9.3H8.1H6.9H5.7H4.5H3.4H2.2H1v10h1.2h1.2h1.2h1.2h1.2h1.2h1.2h1.2h1.2h1.2H14V9h-1.2H11.6z"/>
<path class="st6" d="M13,11v1v1v1v1v1v1v1h-1h-1h-1H9H8H7H6H5H4H3H2v1h1h1h1h1h1h1h1h1h1h1h1h1v-1v-1v-1v-1v-1v-1v-1v-1v-1h-1V11z"
	/>
<path class="st7" d="M11,11h-1H9H8H7H6H5H4H3H2v1h1h1h1h1h1h1h1h1h1h1h1v-1h-1H11z"/>
<path class="st5" d="M4,13h1h1v-1H5H4H3H2v1h1H4z"/>
<path class="st5" d="M11,12h-1H9v1h1h1h1h1v-1h-1H11z"/>
<path class="st7" d="M4,14h1h1v-1H5H4H3H2v1h1H4z"/>
<path d="M6,14h1v1v1h1v-1v-1h1v-1v-1H8H7H6v1V14z"/>
<path class="st7" d="M11,13h-1H9v1h1h1h1h1v-1h-1H11z"/>
<path class="st5" d="M4,15h1h1h1v-1H6H5H4H3H2v1h1H4z"/>
<path class="st5" d="M11,14h-1H9H8v1h1h1h1h1h1v-1h-1H11z"/>
<path class="st7" d="M4,16h1h1h1v-1H6H5H4H3H2v1h1H4z"/>
<path class="st7" d="M11,15h-1H9H8v1h1h1h1h1h1v-1h-1H11z"/>
<path class="st5" d="M11,16h-1H9H8H7H6H5H4H3H2v1h1h1h1h1h1h1h1h1h1h1h1v-1h-1H11z"/>
<path class="st8" d="M2,17v-1v-1v-1v-1v-1v-1v-1h1h1h1h1h1h1h1h1h1h1h1V9h-1h-1h-1H9H8H7H6H5H4H3H2H1v1v1v1v1v1v1v1v1v1h1V17z"/>
<path class="st7" d="M11,17h-1H9H8H7H6H5H4H3H2v1h1h1h1h1h1h1h1h1h1h1h1v-1h-1H11z"/>
<path class="st4" d="M2,18H1v1h1V18z"/>
<path d="M1,15.7V14v-1.7v-1.7V9H0v1.7v1.7V14v1.7v1.7V19h1v-1.7V15.7z"/>
<path d="M15,15.7V14v-1.7v-1.7V9h-1v1.7v1.7V14v1.7v1.7V19h1v-1.7V15.7z"/>
<path d="M14,19.7v-0.2v-0.2v-0.2V19H1v0.2v0.2v0.2v0.2v0.2V20h13v-0.2V19.7z"/>
<path d="M10,0.7V0.5V0.3V0.2V0H5v0.2v0.2v0.2v0.2v0.2V1h5V0.8V0.7z"/>
<path d="M12,1.7V1.5V1.3V1.2V1h-2v0.2v0.2v0.2v0.2v0.2V2h2V1.8V1.7z"/>
<path d="M5,1.7V1.5V1.3V1.2V1H3v0.2v0.2v0.2v0.2v0.2V2h2V1.8V1.7z"/>
<path d="M10,3.7V3.5V3.3V3.2V3H5v0.2v0.2v0.2v0.2v0.2V4h5V3.8V3.7z"/>
<path d="M11,7.3V6.5V5.7V4.8V4h-1v0.8v0.8v0.8v0.8v0.8V9h1V8.2V7.3z"/>
<path d="M13,3.3V3V2.7V2.3V2h-1v0.3v0.3V3v0.3v0.3V4h1V3.7V3.3z"/>
<path d="M3,3.3V3V2.7V2.3V2H2v0.3v0.3V3v0.3v0.3V4h1V3.7V3.3z"/>
<path d="M2,7.3V6.5V5.7V4.8V4H1v0.8v0.8v0.8v0.8v0.8V9h1V8.2V7.3z"/>
<path d="M14,7.3V6.5V5.7V4.8V4h-1v0.8v0.8v0.8v0.8v0.8V9h1V8.2V7.3z"/>
<path d="M5,7.3V6.5V5.7V4.8V4H4v0.8v0.8v0.8v0.8v0.8V9h1V8.2V7.3z"/>
</svg>
