<?xml version="1.0" encoding="iso-8859-1"?>
<!-- Generator: Adobe Illustrator 23.0.3, SVG Export Plug-In . SVG Version: 6.00 Build 0)  -->
<svg version="1.1" id="Layer_1" xmlns="http://www.w3.org/2000/svg" xmlns:xlink="http://www.w3.org/1999/xlink" x="0px" y="0px"
	 viewBox="0 0 14 5" style="enable-background:new 0 0 14 5;" xml:space="preserve">
<g>
	<rect x="5" style="fill:#FFFFFF;" width="1" height="1"/>
	<polygon style="fill:#FFFFFF;" points="4,2 4,3 5,3 5,2 5,1 4,1 	"/>
	<polygon style="fill:#FFFFFF;" points="7,1 6,1 6,2 6,3 7,3 7,2 	"/>
	<polygon style="fill:#FFFFFF;" points="2,2 1,2 0,2 0,3 1,3 2,3 3,3 3,2 	"/>
	<polygon style="fill:#FFFFFF;" points="13,2 12,2 11,2 10,2 10,3 11,3 12,3 13,3 14,3 14,2 	"/>
	<rect x="3" y="3" style="fill:#FFFFFF;" width="1" height="1"/>
	<rect x="7" y="3" style="fill:#FFFFFF;" width="1" height="1"/>
	<rect x="9" y="3" style="fill:#FFFFFF;" width="1" height="1"/>
	<rect x="8" y="4" style="fill:#FFFFFF;" width="1" height="1"/>
</g>
</svg>
