<?xml version="1.0" encoding="utf-8"?>
<!-- Generator: Adobe Illustrator 23.1.1, SVG Export Plug-In . SVG Version: 6.00 Build 0)  -->
<svg version="1.1" id="Layer_1" xmlns="http://www.w3.org/2000/svg" xmlns:xlink="http://www.w3.org/1999/xlink" x="0px" y="0px"
	 viewBox="0 0 14 12" style="enable-background:new 0 0 14 12;" xml:space="preserve">
<style type="text/css">
	.st0{fill:#A0A0A0;}
	.st1{fill:#AAAAAA;}
	.st2{fill:#050504;}
	.st3{fill:#E19834;}
	.st4{fill:#979797;}
	.st5{fill:#FFA221;}
	.st6{fill:#EEA137;}
	.st7{fill:#676767;}
	.st8{fill:#606060;}
	.st9{fill:#555555;}
	.st10{fill:#DFDFDF;}
	.st11{fill:#2A7125;}
	.st12{fill:#FDDBAB;}
	.st13{fill:#E4887B;}
</style>
<path class="st0" d="M5,1H4v1h1V1z"/>
<path class="st1" d="M6,2h1h1h1V1H8H7H6H5v1H6z"/>
<path class="st0" d="M10,1H9v1h1V1z"/>
<path class="st0" d="M4,2H3v1h1V2z"/>
<path class="st2" d="M5,3h1h1h1h1h1V2H9H8H7H6H5H4v1H5z"/>
<path class="st0" d="M11,2h-1v1h1V2z"/>
<path class="st0" d="M3,3H2v1h1V3z"/>
<path class="st3" d="M9,3H8v1h1h1v1v1v1h1V6V5V4V3h-1H9z"/>
<path class="st0" d="M12,3h-1v1h1V3z"/>
<path class="st4" d="M3,4H2v1h1V4z"/>
<path class="st5" d="M3,5v1v1h1V6V5V4h1h1h1h1V3H7H6H5H4H3v1V5z"/>
<path class="st6" d="M10,4H9H8H7H6H5H4v1v1v1h1h1V6h1V5h1h1v1h1V5V4z"/>
<path class="st4" d="M12,4h-1v1h1V4z"/>
<path class="st7" d="M3,5H2v1h1V5z"/>
<path class="st7" d="M12,5h-1v1h1V5z"/>
<path class="st2" d="M13,5V4V3V2h-1V1h-1V0h-1H9H8H7H6H5H4H3v1H2v1H1v1v1v1H0v1v1v1v1h1v1h1v1v1h1h1h1h1h1h1h1h1h1h1v-1v-1h1V9h1V8
	V7V6V5H13z M13,7v1h-1v1h-1v1v1h-1H9H8H7H6H5H4H3v-1V9H2V8H1V7V6h1V5V4V3h1V2h1V1h1h1h1h1h1h1v1h1v1h1v1v1v1h1V7z"/>
<path class="st7" d="M2,6H1v1h1V6z"/>
<path class="st8" d="M12,6h-1v1v1h1V7V6z"/>
<path class="st7" d="M13,6h-1v1h1V6z"/>
<path class="st9" d="M2,7H1v1h1V7z"/>
<path class="st8" d="M3,7V6H2v1v1h1V7z"/>
<path class="st10" d="M5,7H4v1h1V7z"/>
<path class="st11" d="M6,7H5v1h1V7z"/>
<path class="st11" d="M9,7H8v1h1V7z"/>
<path class="st10" d="M10,7H9v1h1V7z"/>
<path class="st12" d="M11,7h-1v1H9H8V7h1h1V6H9V5H8H7v1H6v1v1H5H4V7H3v1v1v1v1h1h1h1h1h1h1h1h1v-1h-1H9V9h1h1V8V7z M8,10H7H6V9h1h1
	V10z"/>
<path class="st9" d="M13,7h-1v1h1V7z"/>
<path class="st9" d="M3,8H2v1h1V8z"/>
<path class="st9" d="M12,8h-1v1h1V8z"/>
<path class="st13" d="M6,9v1h1h1V9H7H6z"/>
<path class="st8" d="M9,9v1h1h1V9h-1H9z"/>
</svg>
