<?xml version="1.0" encoding="iso-8859-1"?>
<!-- Generator: Adobe Illustrator 23.0.3, SVG Export Plug-In . SVG Version: 6.00 Build 0)  -->
<svg version="1.1" id="Layer_1" xmlns="http://www.w3.org/2000/svg" xmlns:xlink="http://www.w3.org/1999/xlink" x="0px" y="0px"
	 viewBox="0 0 19 16" style="enable-background:new 0 0 19 16;" xml:space="preserve">
<g>
	<polygon style="fill:#050504;" points="4,1 5,1 6,1 7,1 8,1 9,1 10,1 11,1 12,1 13,1 14,1 15,1 16,1 17,1 17,0 16,0 15,0 14,0 
		13,0 12,0 11,0 10,0 9,0 8,0 7,0 6,0 5,0 4,0 3,0 2,0 2,1 3,1 	"/>
	<rect x="1" y="1" style="fill:#050504;" width="1" height="1"/>
	<rect x="2" y="1" style="fill:#FFDC18;" width="1" height="1"/>
	<polygon style="fill:#643B1F;" points="5,2 6,2 7,2 8,2 8,1 7,1 6,1 5,1 4,1 3,1 3,2 4,2 	"/>
	<rect x="8" y="1" style="fill:#4C2C17;" width="1" height="1"/>
	<rect x="9" y="1" style="fill:#5C412E;" width="1" height="1"/>
	<rect x="10" y="1" style="fill:#4C2C17;" width="1" height="1"/>
	<polygon style="fill:#643B1F;" points="12,2 13,2 14,2 15,2 16,2 16,1 15,1 14,1 13,1 12,1 11,1 11,2 	"/>
	<rect x="16" y="1" style="fill:#FFDC18;" width="1" height="1"/>
	<rect x="17" y="1" style="fill:#050504;" width="1" height="1"/>
	<rect x="1" y="2" style="fill:#FFDC18;" width="1" height="1"/>
	<rect x="2" y="2" style="fill:#643B1F;" width="1" height="1"/>
	<rect x="3" y="2" style="fill:#D0B89C;" width="1" height="1"/>
	<rect x="15" y="2" style="fill:#D0B89C;" width="1" height="1"/>
	<rect x="16" y="2" style="fill:#643B1F;" width="1" height="1"/>
	<rect x="17" y="2" style="fill:#FFDC18;" width="1" height="1"/>
	<polygon style="fill:#050504;" points="18,2 18,3 18,4 18,5 18,6 18,7 18,8 18,9 18,10 18,11 18,12 18,13 18,14 18,15 17,15 16,15 
		15,15 14,15 13,15 12,15 11,15 10,15 9,15 8,15 7,15 6,15 5,15 4,15 3,15 2,15 1,15 1,14 1,13 1,12 1,11 1,10 1,9 1,8 1,7 1,6 1,5 
		1,4 1,3 1,2 0,2 0,3 0,4 0,5 0,6 0,7 0,8 0,9 0,10 0,11 0,12 0,13 0,14 0,15 0,16 1,16 2,16 3,16 4,16 5,16 6,16 7,16 8,16 9,16 
		10,16 11,16 12,16 13,16 14,16 15,16 16,16 17,16 18,16 19,16 19,15 19,14 19,13 19,12 19,11 19,10 19,9 19,8 19,7 19,6 19,5 19,4 
		19,3 19,2 	"/>
	<polygon style="fill:#BEAB8B;" points="9,4 9,5 9,6 9,7 9,8 9,9 9,10 9,11 9,12 10,12 10,11 10,10 10,9 10,8 10,7 10,6 10,5 10,4 
		10,3 10,2 9,2 9,3 	"/>
	<path style="fill:#F9EED2;" d="M10,4v1v1v1v1v1v1v1v1h1h1h1h1h1v1h1v-1v-1v-1V9V8V7V6V5V4V3h-1V2h-1h-1h-1h-1h-1v1V4z M11,5V4h1v1
		v1h-1V5z M15,9h-1v1h-1V9h-1v1h-1V9h1V8h1v1h1V8h1V9z M15,5h-1v1h-1V5h1V4h1V5z"/>
	<polygon style="fill:#D0B89C;" points="16,4 16,5 16,6 16,7 16,8 16,9 16,10 16,11 16,12 16,13 17,13 17,12 17,11 17,10 17,9 17,8 
		17,7 17,6 17,5 17,4 17,3 16,3 	"/>
	<polygon style="fill:#643B1F;" points="17,4 17,5 17,6 17,7 17,8 17,9 17,10 17,11 17,12 17,13 18,13 18,12 18,11 18,10 18,9 18,8 
		18,7 18,6 18,5 18,4 18,3 17,3 	"/>
	<polygon style="fill:#D0B89C;" points="2,5 2,6 2,7 2,8 2,9 2,10 2,11 2,12 2,13 3,13 3,12 3,11 3,10 3,9 3,8 3,7 3,6 3,5 3,4 3,3 
		2,3 2,4 	"/>
	<rect x="4" y="4" style="fill:#AD9D84;" width="1" height="1"/>
	<rect x="6" y="4" style="fill:#AD9D84;" width="1" height="1"/>
	<rect x="14" y="4" style="fill:#AD9D84;" width="1" height="1"/>
	<rect x="5" y="5" style="fill:#AD9D84;" width="1" height="1"/>
	<rect x="7" y="5" style="fill:#AD9D84;" width="1" height="1"/>
	<polygon style="fill:#AD9D84;" points="12,5 12,4 11,4 11,5 11,6 12,6 	"/>
	<rect x="13" y="5" style="fill:#AD9D84;" width="1" height="1"/>
	<polygon style="fill:#AD9D84;" points="6,9 6,8 5,8 4,8 4,9 5,9 	"/>
	<rect x="7" y="8" style="fill:#AD9D84;" width="1" height="1"/>
	<rect x="12" y="8" style="fill:#AD9D84;" width="1" height="1"/>
	<rect x="14" y="8" style="fill:#AD9D84;" width="1" height="1"/>
	<rect x="6" y="9" style="fill:#AD9D84;" width="1" height="1"/>
	<rect x="11" y="9" style="fill:#AD9D84;" width="1" height="1"/>
	<rect x="13" y="9" style="fill:#AD9D84;" width="1" height="1"/>
	<polygon style="fill:#643B1F;" points="2,12 2,11 2,10 2,9 2,8 2,7 2,6 2,5 2,4 2,3 1,3 1,4 1,5 1,6 1,7 1,8 1,9 1,10 1,11 1,12 
		1,13 2,13 	"/>
	<path style="fill:#F9EED2;" d="M4,12h1h1h1h1h1v-1v-1V9V8V7V6V5V4V3V2H8H7H6H5H4v1H3v1v1v1v1v1v1v1v1v1v1h1V12z M4,4h1v1h1V4h1v1h1
		v1H7V5H6v1H5V5H4V4z M4,8h1h1v1h1V8h1v1H7v1H6V9H5H4V8z"/>
	<polygon style="fill:#D0B89C;" points="7,12 6,12 5,12 4,12 4,13 5,13 6,13 7,13 8,13 9,13 9,12 8,12 	"/>
	<polygon style="fill:#948065;" points="10,12 9,12 9,13 9,14 10,14 10,13 	"/>
	<polygon style="fill:#D0B89C;" points="14,12 13,12 12,12 11,12 10,12 10,13 11,13 12,13 13,13 14,13 15,13 15,12 	"/>
	<polygon style="fill:#BFA98F;" points="8,13 7,13 6,13 5,13 4,13 3,13 2,13 2,14 3,14 4,14 5,14 6,14 7,14 8,14 9,14 9,13 	"/>
	<polygon style="fill:#BFA98F;" points="15,13 14,13 13,13 12,13 11,13 10,13 10,14 11,14 12,14 13,14 14,14 15,14 16,14 17,14 
		17,13 16,13 	"/>
	<polygon style="fill:#FFDC18;" points="17,14 16,14 16,15 17,15 18,15 18,14 18,13 17,13 	"/>
	<polygon style="fill:#FFDC18;" points="2,14 2,13 1,13 1,14 1,15 2,15 3,15 3,14 	"/>
	<polygon style="fill:#643B1F;" points="7,14 6,14 5,14 4,14 3,14 3,15 4,15 5,15 6,15 7,15 8,15 8,14 	"/>
	<rect x="8" y="14" style="fill:#4C2C17;" width="1" height="1"/>
	<rect x="9" y="14" style="fill:#5C412E;" width="1" height="1"/>
	<rect x="10" y="14" style="fill:#4C2C17;" width="1" height="1"/>
	<polygon style="fill:#643B1F;" points="15,14 14,14 13,14 12,14 11,14 11,15 12,15 13,15 14,15 15,15 16,15 16,14 	"/>
</g>
</svg>
