<?xml version="1.0" encoding="utf-8"?>
<!-- Generator: Adobe Illustrator 24.0.1, SVG Export Plug-In . SVG Version: 6.00 Build 0)  -->
<svg version="1.1" id="Layer_1" xmlns="http://www.w3.org/2000/svg" xmlns:xlink="http://www.w3.org/1999/xlink" x="0px" y="0px"
	 viewBox="0 0 12 12" style="enable-background:new 0 0 12 12;" xml:space="preserve">
<style type="text/css">
	.st0{fill:#850404;}
	.st1{fill:#43060D;}
	.st2{fill:#957546;}
	.st3{fill:#650202;}
	.st4{fill:#423522;}
	.st5{fill:#675231;}
	.st6{fill:#372A17;}
	.st7{fill:#A4A7A1;}
	.st8{fill:#BBC0B7;}
	.st9{fill:#68676A;}
	.st10{fill:#765E38;}
</style>
<path class="st0" d="M3,7v2h1h1V7H4H3z"/>
<path class="st1" d="M6,8H5v2h1h1V8H6z"/>
<path class="st0" d="M7,8H3v1h4V8z"/>
<path class="st2" d="M3,8V6V4V2H1v2v2v2H3z"/>
<path class="st2" d="M7,9v2h2V9V7V5H7v2V9z"/>
<path class="st2" d="M12,3V0h-2v3v3h2V3z"/>
<path class="st3" d="M12,0h-1v1h1V0z"/>
<path class="st0" d="M11,1V0h-1v1v1h1V1z"/>
<path class="st1" d="M12,1h-1v1h1V1z"/>
<path class="st4" d="M11,3v1h1V3V2h-1V3z"/>
<path class="st3" d="M3,2H2v1h1V2z"/>
<path class="st0" d="M2,3V2H1v1v1h1V3z"/>
<path class="st1" d="M3,3H2v1h1V3z"/>
<path class="st5" d="M11,4h-1v1v1h1V5V4z"/>
<path class="st6" d="M11,5v1h1V5V4h-1V5z"/>
<path class="st5" d="M3,4H2v1h1V4z"/>
<path class="st4" d="M2,6v1h1V6V5H2V6z"/>
<path class="st3" d="M9,5H8v1h1V5z"/>
<path class="st7" d="M4,7h1V6H4H3v1H4z"/>
<path class="st0" d="M8,6V5H7v1v1h1V6z"/>
<path class="st1" d="M9,6H8v1h1V6z"/>
<path class="st8" d="M1,7V6H0v1v1h1V7z"/>
<path class="st5" d="M2,7H1v1h1V7z"/>
<path class="st6" d="M3,7H2v1h1V7z"/>
<path class="st7" d="M6,7H5v1h1V7z"/>
<path class="st9" d="M7,7H6v1h1V7z"/>
<path class="st5" d="M9,7H8v1h1V7z"/>
<path class="st7" d="M1,8H0v1h1V8z"/>
<path class="st8" d="M3,9V8H2H1v1h1H3z"/>
<path class="st1" d="M4,8H3v1h1V8z"/>
<path class="st3" d="M5,8H4v1h1V8z"/>
<path class="st3" d="M7,8H6v1h1V8z"/>
<path class="st4" d="M8,9v1h1V9V8H8V9z"/>
<path class="st9" d="M2,9H1v1h1h1V9H2z"/>
<path class="st7" d="M5,10V9H4H3v1h1H5z"/>
<path class="st7" d="M9,10v1h1v-1V9H9V10z"/>
<path class="st9" d="M4,10H3v1h1h1v-1H4z"/>
<path class="st7" d="M7,11v-1H6H5v1h1H7z"/>
<path class="st10" d="M8,10H7v1h1V10z"/>
<path class="st6" d="M9,10H8v1h1V10z"/>
<path class="st9" d="M6,11H5v1h1h1v-1H6z"/>
<path class="st7" d="M8,11H7v1h1h1v-1H8z"/>
<path class="st9" d="M10,11H9v1h1V11z"/>
</svg>
