<?xml version="1.0" encoding="utf-8"?>
<!-- Generator: Adobe Illustrator 23.1.1, SVG Export Plug-In . SVG Version: 6.00 Build 0)  -->
<svg version="1.1" id="LiveOps-Hammer" xmlns="http://www.w3.org/2000/svg" xmlns:xlink="http://www.w3.org/1999/xlink" x="0px"
	 y="0px" viewBox="0 0 14 19" style="enable-background:new 0 0 14 19;" xml:space="preserve">
<style type="text/css">
	.st0{fill:#E09B5A;}
	.st1{fill:#8A5A36;}
	.st2{fill:#050504;}
	.st3{fill:#9F9F9F;}
	.st4{fill:#747474;}
	.st5{fill:#C9C9C9;}
</style>
<path class="st0" d="M7,1H6v1h1V1z"/>
<path class="st1" d="M8,1H7v1h1V1z"/>
<path class="st2" d="M13,1h-1h-1h-1H9V0H8H7H6H5v1H4H3H2H1H0v1v1v1v1v1v1v1v1h1h1h1h1h1v1v1v1v1v1v1v1v1v1v1h1h1h1h1v-1v-1v-1v-1v-1
	v-1v-1v-1v-1V9h1h1h1h1h1V8V7V6V5V4V3V2V1H13z M13,3v1v1v1v1v1h-1h-1h-1H9H8v1v1v1v1v1v1v1v1v1v1H7H6v-1v-1v-1v-1v-1v-1v-1v-1V9V8H5
	H4H3H2H1V7V6V5V4V3V2h1h1h1h1h1V1h1h1v1h1h1h1h1h1V3z"/>
<path class="st3" d="M12,3v1h1V3V2h-1V3z"/>
<path class="st3" d="M10,4H9H8H7H6H5H4H3H2v1v1v1h1h1h1h1h1h1h1h1h1h1V6V5V4h-1H10z"/>
<path class="st4" d="M12,5v1v1h-1h-1H9H8H7H6H5H4H3H2v1h1h1h1h1h1h1h1h1h1h1h1V7V6V5V4h-1V5z"/>
<path class="st5" d="M2,6V5V4h1h1h1h1h1h1h1h1h1h1V3V2h-1h-1H9H8H7H6H5H4H3H2H1v1v1v1v1v1h1V6z"/>
<path class="st3" d="M2,7H1v1h1V7z"/>
<path class="st1" d="M7,9v1v1v1v1v1v1v1v1H6v1h1h1v-1v-1v-1v-1v-1v-1v-1v-1V9V8H7V9z"/>
<path class="st0" d="M7,16v-1v-1v-1v-1v-1v-1V9V8H6v1v1v1v1v1v1v1v1v1h1V16z"/>
</svg>
