<?xml version="1.0" encoding="iso-8859-1"?>
<!-- Generator: Adobe Illustrator 23.0.3, SVG Export Plug-In . SVG Version: 6.00 Build 0)  -->
<svg version="1.1" id="Layer_1" xmlns="http://www.w3.org/2000/svg" xmlns:xlink="http://www.w3.org/1999/xlink" x="0px" y="0px"
	 viewBox="0 0 10 10" style="enable-background:new 0 0 10 10;" xml:space="preserve">
<g>
	<rect x="3" y="1" style="fill:#FFFFFF;" width="1" height="1"/>
	<polygon style="fill:#CB2400;" points="9,1 9,0 8,0 7,0 6,0 6,1 5,1 4,1 4,2 5,2 5,3 5,4 6,4 6,5 7,5 7,4 8,4 8,3 9,3 10,3 10,2 
		10,1 	"/>
	<polygon style="fill:#FFFFFF;" points="2,3 2,4 3,4 3,3 3,2 2,2 	"/>
	<polygon style="fill:#CB2400;" points="2,4 2,3 2,2 3,2 3,1 4,1 4,0 3,0 2,0 1,0 1,1 0,1 0,2 0,3 0,4 0,5 1,5 1,4 	"/>
	<polygon style="fill:#FFFFFF;" points="4,4 5,4 5,3 5,2 4,2 4,3 	"/>
	<polygon style="fill:#FFFFFF;" points="8,3 8,4 9,4 10,4 10,3 9,3 	"/>
	<rect x="1" y="4" style="fill:#FFFFFF;" width="1" height="1"/>
	<rect x="5" y="4" style="fill:#FFFFFF;" width="1" height="1"/>
	<rect x="7" y="4" style="fill:#FFFFFF;" width="1" height="1"/>
	<polygon style="fill:#CB2400;" points="8,4 8,5 7,5 7,6 6,6 6,5 5,5 5,4 4,4 4,3 4,2 3,2 3,3 3,4 2,4 2,5 1,5 1,6 1,7 2,7 2,8 3,8 
		3,9 4,9 4,10 5,10 6,10 6,9 7,9 7,8 8,8 8,7 9,7 9,6 9,5 10,5 10,4 9,4 	"/>
	<rect x="6" y="5" style="fill:#FFFFFF;" width="1" height="1"/>
</g>
</svg>
