<?xml version="1.0" encoding="iso-8859-1"?>
<!-- Generator: Adobe Illustrator 23.0.3, SVG Export Plug-In . SVG Version: 6.00 Build 0)  -->
<svg version="1.1" id="Layer_1" xmlns="http://www.w3.org/2000/svg" xmlns:xlink="http://www.w3.org/1999/xlink" x="0px" y="0px"
	 viewBox="0 0 13 12" style="enable-background:new 0 0 13 12;" xml:space="preserve">
<g>
	<polygon style="fill:#FFCC65;" points="9,1 8,1 7,1 6,1 5,1 4,1 4,2 4,3 4,4 4,5 5,5 6,5 7,5 8,5 9,5 9,4 9,3 9,2 	"/>
	<path d="M12,1h-1h-1V0H9H8H7H6H5H4H3v1H2H1H0v1v1v1h1h1h1v1v1h1v1v1v1v1v1h1v1h1h1h1v-1v-1h1V9V8V7V6h1V5V4h1h1h1V3V2V1H12z M12,3
		h-1h-1H9v1v1H8v1v1H7v1h1v1H7v1v1H6v-1H5V9h1V8H5V7h1V6H5V5H4V4V3H3H2H1V2h1h1h1V1h1h1h1h1h1v1h1h1h1V3z"/>
	<rect x="1" y="2" style="fill:#FFCC65;" width="1" height="1"/>
	<polygon style="fill:#576892;" points="3,2 2,2 2,3 3,3 4,3 4,2 	"/>
	<polygon style="fill:#576892;" points="10,2 9,2 9,3 10,3 11,3 11,2 	"/>
	<rect x="11" y="2" style="fill:#FFCC65;" width="1" height="1"/>
	<polygon style="fill:#FF8C44;" points="6,5 5,5 5,6 6,6 7,6 8,6 8,5 7,5 	"/>
	<rect x="6" y="6" style="fill:#667AA8;" width="1" height="1"/>
	<rect x="7" y="6" style="fill:#42527D;" width="1" height="1"/>
	<rect x="5" y="7" style="fill:#667AA8;" width="1" height="1"/>
	<rect x="6" y="7" style="fill:#869BCD;" width="1" height="1"/>
	<rect x="6" y="8" style="fill:#667AA8;" width="1" height="1"/>
	<rect x="7" y="8" style="fill:#42527D;" width="1" height="1"/>
	<rect x="5" y="9" style="fill:#42527D;" width="1" height="1"/>
	<rect x="6" y="9" style="fill:#869BCD;" width="1" height="1"/>
	<rect x="6" y="10" style="fill:#42527D;" width="1" height="1"/>
</g>
</svg>
