<?xml version="1.0" encoding="iso-8859-1"?>
<!-- Generator: Adobe Illustrator 23.0.3, SVG Export Plug-In . SVG Version: 6.00 Build 0)  -->
<svg version="1.1" id="Layer_1" xmlns="http://www.w3.org/2000/svg" xmlns:xlink="http://www.w3.org/1999/xlink" x="0px" y="0px"
	 viewBox="0 0 12 12" style="enable-background:new 0 0 12 12;" xml:space="preserve">
<g>
	<path d="M11,0h-1H9H8H7H6H5H4H3H2H1H0v1v1v1v1v1v1v1v1v1v1v1v1h1h1h1h1h1h1h1h1h1h1h1h1v-1v-1V9V8V7V6V5V4V3V2V1V0H11z M11,2v1v1v1
		v1v1v1v1v1v1h-1H9H8H7H6H5H4H3H2H1v-1V9V8V7V6V5V4V3V2V1h1h1h1h1h1h1h1h1h1h1V2z"/>
	<polygon style="fill:#CDE6E5;" points="9,1 8,1 7,1 6,1 5,1 4,1 3,1 2,1 1,1 1,2 2,2 3,2 4,2 5,2 6,2 7,2 7,3 8,3 8,2 9,2 10,2 
		10,3 10,4 10,5 10,6 10,7 10,8 10,9 10,10 11,10 11,9 11,8 11,7 11,6 11,5 11,4 11,3 11,2 11,1 10,1 	"/>
	<polygon points="2,4 2,5 2,6 2,7 2,8 2,9 3,9 3,8 3,7 3,6 3,5 3,4 3,3 4,3 5,3 6,3 7,3 7,2 6,2 5,2 4,2 3,2 2,2 2,3 	"/>
	<polygon style="fill:#6DDFD8;" points="5,3 5,4 6,4 7,4 7,3 6,3 	"/>
	<rect x="7" y="3" style="fill:#48D1C8;" width="1" height="1"/>
	<rect x="8" y="3" style="fill:#CDE6E5;" width="1" height="1"/>
	<polygon points="9,4 9,5 9,6 9,7 9,8 9,9 10,9 10,8 10,7 10,6 10,5 10,4 10,3 10,2 9,2 8,2 8,3 9,3 	"/>
	<polygon style="fill:#48D1C8;" points="4,4 5,4 5,3 4,3 3,3 3,4 3,5 4,5 	"/>
	<rect x="4" y="4" style="fill:#6DDFD8;" width="1" height="1"/>
	<polygon style="fill:#C1FAF9;" points="6,5 7,5 7,4 6,4 5,4 5,5 	"/>
	<rect x="7" y="4" style="fill:#6DDFD8;" width="1" height="1"/>
	<rect x="8" y="4" style="fill:#48D1C8;" width="1" height="1"/>
	<polygon style="fill:#6DDFD8;" points="8,6 8,7 9,7 9,6 9,5 8,5 	"/>
	<polygon style="fill:#6DDFD8;" points="4,6 4,5 3,5 3,6 3,7 4,7 	"/>
	<polygon style="fill:#C1FAF9;" points="5,6 5,5 4,5 4,6 4,7 5,7 	"/>
	<polygon style="fill:#EAFAFA;" points="5,7 6,7 7,7 7,6 7,5 6,5 5,5 5,6 	"/>
	<polygon style="fill:#C1FAF9;" points="7,7 8,7 8,6 8,5 7,5 7,6 	"/>
	<rect x="3" y="7" style="fill:#48D1C8;" width="1" height="1"/>
	<rect x="4" y="7" style="fill:#6DDFD8;" width="1" height="1"/>
	<polygon style="fill:#C1FAF9;" points="6,7 5,7 5,8 6,8 7,8 7,7 	"/>
	<rect x="7" y="7" style="fill:#6DDFD8;" width="1" height="1"/>
	<polygon style="fill:#48D1C8;" points="8,8 7,8 7,9 8,9 9,9 9,8 9,7 8,7 	"/>
	<rect x="3" y="8" style="fill:#A5CCD5;" width="1" height="1"/>
	<rect x="4" y="8" style="fill:#48D1C8;" width="1" height="1"/>
	<polygon style="fill:#6DDFD8;" points="7,9 7,8 6,8 5,8 5,9 6,9 	"/>
	<rect x="2" y="9" style="fill:#100C1B;" width="1" height="1"/>
	<rect x="3" y="9" style="fill:#1C1630;" width="1" height="1"/>
	<polygon style="fill:#100C1B;" points="6,9 5,9 5,10 6,10 7,10 7,9 	"/>
	<polygon style="fill:#0C0816;" points="8,9 7,9 7,10 8,10 9,10 10,10 10,9 9,9 	"/>
	<polygon style="fill:#A5CCD5;" points="9,10 8,10 7,10 6,10 5,10 5,9 4,9 4,10 3,10 2,10 2,9 2,8 2,7 2,6 2,5 2,4 2,3 2,2 1,2 1,3 
		1,4 1,5 1,6 1,7 1,8 1,9 1,10 1,11 2,11 3,11 4,11 5,11 6,11 7,11 8,11 9,11 10,11 11,11 11,10 10,10 	"/>
</g>
</svg>
