<?xml version="1.0" encoding="iso-8859-1"?>
<!-- Generator: Adobe Illustrator 23.0.3, SVG Export Plug-In . SVG Version: 6.00 Build 0)  -->
<svg version="1.1" id="Layer_1" xmlns="http://www.w3.org/2000/svg" xmlns:xlink="http://www.w3.org/1999/xlink" x="0px" y="0px"
	 viewBox="0 0 12 12" style="enable-background:new 0 0 12 12;" xml:space="preserve">
<g>
	<polygon points="5,1 6,1 7,1 8,1 9,1 9,0 8,0 7,0 6,0 5,0 4,0 3,0 3,1 4,1 	"/>
	<rect x="2" y="1" width="1" height="1"/>
	<polygon style="fill:#B9B6B5;" points="4,2 5,2 6,2 7,2 8,2 9,2 9,1 8,1 7,1 6,1 5,1 4,1 3,1 3,2 	"/>
	<rect x="9" y="1" width="1" height="1"/>
	<rect x="1" y="2" width="1" height="1"/>
	<rect x="2" y="2" style="fill:#B9B6B5;" width="1" height="1"/>
	<path style="fill:#2F2F2F;" d="M9,2H8H7H6H5H4H3v1H2v1v1v1v1v1v1h1v1h1h1h1h1h1h1V9h1V8V7V6V5V4V3H9V2z M9,5H8v1H7v1H6H5V6V5h1h1V4
		h1h1V5z"/>
	<rect x="9" y="2" style="fill:#B9B6B5;" width="1" height="1"/>
	<rect x="10" y="2" width="1" height="1"/>
	<polygon points="11,3 11,4 11,5 11,6 11,7 11,8 11,9 12,9 12,8 12,7 12,6 12,5 12,4 12,3 	"/>
	<polygon style="fill:#FF1414;" points="7,4 7,5 6,5 6,6 6,7 7,7 7,6 8,6 8,5 9,5 9,4 8,4 	"/>
	<polygon style="fill:#B9B6B5;" points="6,5 5,5 5,6 5,7 6,7 6,6 	"/>
	<polygon points="1,7 1,6 1,5 1,4 1,3 0,3 0,4 0,5 0,6 0,7 0,8 0,9 1,9 1,8 	"/>
	<polygon style="fill:#B9B6B5;" points="11,7 11,6 11,5 11,4 11,3 10,3 10,4 10,5 10,6 10,7 10,8 10,9 11,9 11,8 	"/>
	<polygon style="fill:#B9B6B5;" points="2,8 2,7 2,6 2,5 2,4 2,3 1,3 1,4 1,5 1,6 1,7 1,8 1,9 2,9 	"/>
	<rect x="1" y="9" width="1" height="1"/>
	<rect x="2" y="9" style="fill:#B9B6B5;" width="1" height="1"/>
	<rect x="9" y="9" style="fill:#B9B6B5;" width="1" height="1"/>
	<rect x="10" y="9" width="1" height="1"/>
	<rect x="2" y="10" width="1" height="1"/>
	<polygon style="fill:#B9B6B5;" points="8,10 7,10 6,10 5,10 4,10 3,10 3,11 4,11 5,11 6,11 7,11 8,11 9,11 9,10 	"/>
	<rect x="9" y="10" width="1" height="1"/>
	<polygon points="7,11 6,11 5,11 4,11 3,11 3,12 4,12 5,12 6,12 7,12 8,12 9,12 9,11 8,11 	"/>
</g>
</svg>
