<?xml version="1.0" encoding="iso-8859-1"?>
<!-- Generator: Adobe Illustrator 23.1.1, SVG Export Plug-In . SVG Version: 6.00 Build 0)  -->
<svg version="1.1" id="Layer_1" xmlns="http://www.w3.org/2000/svg" xmlns:xlink="http://www.w3.org/1999/xlink" x="0px" y="0px"
	 viewBox="0 0 12 13" style="enable-background:new 0 0 12 13;" xml:space="preserve">
<path style="fill:#33190E;" d="M5,1h1V0H5H4H3v1h1H5z"/>
<polygon style="fill:#FED639;" points="8.5,2 6,2 3.5,2 1,2 1,12 3.5,12 6,12 8.5,12 11,12 11,2 "/>
<path style="fill:#402114;" d="M8,0H7H6v1h1h1h1V0H8z"/>
<path style="fill:#B4652A;" d="M4,1H3v1h1V1z"/>
<path style="fill:#D39632;" d="M4,1v1h1h1h1h1V1H7H6H5H4z"/>
<path style="fill:#B4652A;" d="M9,1H8v1h1V1z"/>
<path style="fill:#B4652A;" d="M3,2H2v1h1V2z"/>
<path style="fill:#F5CC27;" d="M4,2H3v1h1V2z"/>
<path style="fill:#FED639;" d="M5,2H4v1h1V2z"/>
<path style="fill:#FFEC4F;" d="M7,2H6H5v1h1v1v1v1v1h1h1V6V5V4V3H7V2z"/>
<path style="fill:#FED639;" d="M8,2H7v1h1V2z"/>
<path style="fill:#D39632;" d="M9,2H8v1h1V2z"/>
<path style="fill:#FFEC4F;" d="M5,3H4v1h1V3z"/>
<path style="fill:#9C4F16;" d="M9,4v1v1v1v1v1h1V8V7V6V5V4V3V2H9v1V4z"/>
<path style="fill:#FFF68D;" d="M4,4v1v1v1h1h1V6V5V4V3H5v1H4z"/>
<path style="fill:#FED639;" d="M8,5v1v1h1V6V5V4V3H8v1V5z"/>
<path style="fill:#D39632;" d="M3,5V4V3H2v1v1v1h1V5z"/>
<path style="fill:#B4652A;" d="M3,6H2v1h1V6z"/>
<path style="fill:#FED639;" d="M4,6V5V4V3H3v1v1v1v1h1V6z"/>
<path style="fill:#D39632;" d="M3,7H2v1h1V7z"/>
<path style="fill:#FFF68D;" d="M4,7H3v1h1V7z"/>
<path style="fill:#FEFFBD;" d="M4,7v1h1h1V7H5H4z"/>
<path style="fill:#FFF68D;" d="M7,7H6v1h1h1h1V7H8H7z"/>
<path style="fill:#B4652A;" d="M3,8H2v1h1V8z"/>
<path style="fill:#D39632;" d="M4,8H3v1h1V8z"/>
<path style="fill:#FED639;" d="M7,8H6H5H4v1h1h1h1h1V8H7z"/>
<path style="fill:#D39632;" d="M9,8H8v1h1V8z"/>
<path style="fill:#14110A;" d="M1,9H0v1v1h1v-1V9z"/>
<path style="fill:#D39632;" d="M2,9H1v1h1V9z"/>
<path style="fill:#FFF68D;" d="M3,9H2v1h1V9z"/>
<path style="fill:#FEFFBD;" d="M5,9H4H3v1h1h1h1h1V9H6H5z"/>
<path style="fill:#FFF68D;" d="M8,9H7v1h1h1h1V9H9H8z"/>
<path style="fill:#B4652A;" d="M11,9h-1v1h1V9z"/>
<path style="fill:#B4652A;" d="M2,10H1v1h1V10z"/>
<path style="fill:#FED639;" d="M3,10H2v1h1V10z"/>
<path style="fill:#FFEC4F;" d="M4,10H3v1h1V10z"/>
<path style="fill:#FED639;" d="M6,10H5H4v1h1h1h1v-1H6z"/>
<path style="fill:#FFEC4F;" d="M8,10H7v1h1h1v-1H8z"/>
<path style="fill:#D39632;" d="M10,10H9v1h1V10z"/>
<path style="fill:#9C4F16;" d="M11,10h-1v1h1V10z"/>
<path style="fill:#14110A;" d="M11,11h1v-1V9h-1v1V11z"/>
<path style="fill:#14110A;" d="M2,11H1v1h1V11z"/>
<path style="fill:#9C4F16;" d="M9,11H8H7H6H5H4H3H2v1h1h1h1h1h1h1h1h1v-1H9z"/>
<path style="fill:#14110A;" d="M11,11h-1v1h1V11z"/>
<path style="fill:#14110A;" d="M8,12H7H6H5H4H3H2v1h1h1h1h1h1h1h1h1v-1H9H8z"/>
<path style="fill:#14110A;" d="M7.5,0H6.75H6H5.25H4.5H3.75H3v1h0.75H4.5h0.75H6h0.75H7.5h0.75H9V0H8.25H7.5z"/>
<path style="fill:#14110A;" d="M3,1H2v1h1V1z"/>
<path style="fill:#14110A;" d="M2,2H1v7h1V2z"/>
<path style="fill:#14110A;" d="M10,1H9v1h1V1z"/>
<path style="fill:#14110A;" d="M11,2h-1v7h1V2z"/>
</svg>
