<?xml version="1.0" encoding="iso-8859-1"?>
<!-- Generator: Adobe Illustrator 23.0.3, SVG Export Plug-In . SVG Version: 6.00 Build 0)  -->
<svg version="1.1" id="Layer_1" xmlns="http://www.w3.org/2000/svg" xmlns:xlink="http://www.w3.org/1999/xlink" x="0px" y="0px"
	 viewBox="0 0 12 11" style="enable-background:new 0 0 12 11;" xml:space="preserve">
<g>
	<polygon style="fill:#050504;" points="4,1 5,1 6,1 7,1 8,1 9,1 10,1 10,0 9,0 8,0 7,0 6,0 5,0 4,0 3,0 2,0 2,1 3,1 	"/>
	<rect x="1" y="1" style="fill:#050504;" width="1" height="1"/>
	<rect x="10" y="1" style="fill:#050504;" width="1" height="1"/>
	<polygon style="fill:#A2A2A2;" points="4,3 5,3 6,3 7,3 8,3 9,3 9,2 8,2 7,2 6,2 5,2 4,2 3,2 3,3 	"/>
	<polygon style="fill:#050504;" points="11,2 11,3 11,4 11,5 11,6 11,7 12,7 12,6 12,5 12,4 12,3 12,2 	"/>
	<polygon style="fill:#A2A2A2;" points="5,5 6,5 7,5 8,5 9,5 9,4 8,4 7,4 6,4 5,4 4,4 3,4 3,5 4,5 	"/>
	<polygon style="fill:#050504;" points="1,5 1,4 1,3 1,2 0,2 0,3 0,4 0,5 0,6 0,7 1,7 1,6 	"/>
	<path style="fill:#EFEFEF;" d="M11,5V4V3V2h-1V1H9H8H7H6H5H4H3H2v1H1v1v1v1v1v1h1v1h1v1H2v1h1h1h1V9h1V8h1h1h1h1V7h1V6V5z M3,4h1h1
		h1h1h1h1v1H8H7H6H5H4H3V4z M4,2h1h1h1h1h1v1H8H7H6H5H4H3V2H4z M8,7H7H6H5H4H3V6h1h1h1h1h1h1v1H8z"/>
	<polygon style="fill:#A2A2A2;" points="8,6 7,6 6,6 5,6 4,6 3,6 3,7 4,7 5,7 6,7 7,7 8,7 9,7 9,6 	"/>
	<rect x="1" y="7" style="fill:#050504;" width="1" height="1"/>
	<rect x="10" y="7" style="fill:#050504;" width="1" height="1"/>
	<rect x="2" y="8" style="fill:#050504;" width="1" height="1"/>
	<polygon style="fill:#050504;" points="8,8 7,8 6,8 6,9 7,9 8,9 9,9 10,9 10,8 9,8 	"/>
	<rect x="5" y="9" style="fill:#050504;" width="1" height="1"/>
	<polygon style="fill:#050504;" points="3,10 2,10 2,9 1,9 1,10 1,11 2,11 3,11 4,11 5,11 5,10 4,10 	"/>
</g>
</svg>
