<?xml version="1.0" encoding="iso-8859-1"?>
<!-- Generator: Adobe Illustrator 23.0.3, SVG Export Plug-In . SVG Version: 6.00 Build 0)  -->
<svg version="1.1" id="Layer_1" xmlns="http://www.w3.org/2000/svg" xmlns:xlink="http://www.w3.org/1999/xlink" x="0px" y="0px"
	 viewBox="0 0 31 25" style="enable-background:new 0 0 31 25;" xml:space="preserve">
<g>
	<polygon style="fill:none;" points="14,8 15,8 16,8 17,8 17,7 17,6 16,6 15,6 14,6 14,7 	"/>
	<path d="M21,2V1h-1h-1h-1h-1h-1h-1h-1h-1h-1h-1h-1v1H9v1v1v1v1v1v1v1v1v1v1h1v1h1h1v1v1v1v1v1v1v1v1v1v1v1h1h1h1h1h1h1v-1v-1h1h1h1
		v-1v-1v-1v-1h-1v-1v-1v-1h-1h-1v-1v-1h1h1h1v-1h1v-1v-1V9V8V7V6V5V4V3V2H21z M21,4v1v1v1v1v1v1v1h-1v1h-1h-1h-1v1v1v1v1h1h1v1v1h-1
		h-1v1h1h1h1v1v1h-1h-1h-1v1v1h-1h-1h-1h-1v-1v-1v-1v-1v-1v-1v-1v-1v-1v-1v-1h-1h-1v-1h-1v-1V9V8V7V6V5V4V3h1V2h1h1h1h1h1h1h1h1h1v1
		h1V4z"/>
	<polygon style="fill:#9C7A1E;" points="20,4 20,5 20,6 20,7 20,8 20,9 20,10 20,11 21,11 21,10 21,9 21,8 21,7 21,6 21,5 21,4 
		21,3 20,3 	"/>
	<polygon style="fill:#8C6D1B;" points="15,5 16,5 17,5 18,5 18,4 17,4 16,4 15,4 14,4 13,4 13,5 14,5 	"/>
	<path d="M13,7v1v1h1h1h1h1h1V8V7V6V5h-1h-1h-1h-1h-1v1V7z M15,6h1h1v1v1h-1h-1h-1V7V6H15z"/>
	<polygon style="fill:#DFBB57;" points="18,7 18,8 18,9 19,9 19,8 19,7 19,6 19,5 18,5 18,6 	"/>
	<polygon style="fill:#8C6D1B;" points="13,8 13,7 13,6 13,5 12,5 12,6 12,7 12,8 12,9 13,9 	"/>
	<polygon style="fill:#EBC047;" points="11,9 11,8 11,7 11,6 11,5 11,4 12,4 12,3 13,3 14,3 15,3 16,3 17,3 18,3 19,3 20,3 20,2 
		19,2 18,2 17,2 16,2 15,2 14,2 13,2 12,2 11,2 11,3 10,3 10,4 10,5 10,6 10,7 10,8 10,9 10,10 10,11 11,11 11,10 	"/>
	<polygon style="fill:#DFBB57;" points="16,9 15,9 14,9 13,9 13,10 14,10 15,10 16,10 17,10 18,10 18,9 17,9 	"/>
	<path style="fill:#D4A629;" d="M13,11h1h1h1h1h1h1v-1h1V9V8V7V6V5V4V3h-1h-1h-1h-1h-1h-1h-1h-1v1h-1v1v1v1v1v1v1v1h1H13z M12,8V7V6
		V5h1V4h1h1h1h1h1v1h1v1v1v1v1h-1v1h-1h-1h-1h-1h-1V9h-1V8z"/>
	<polygon style="fill:#8C6D1B;" points="19,10 19,11 18,11 17,11 16,11 15,11 14,11 13,11 12,11 11,11 11,12 12,12 13,12 14,12 
		15,12 16,12 17,12 18,12 19,12 20,12 20,11 20,10 	"/>
	<polygon style="fill:#9C7A1E;" points="15,12 15,13 16,13 16,14 16,15 16,16 16,17 16,18 16,19 16,20 16,21 16,22 16,23 17,23 
		17,22 17,21 18,21 19,21 20,21 20,20 20,19 19,19 19,20 18,20 17,20 17,19 17,18 18,18 19,18 19,17 19,16 18,16 18,17 17,17 17,16 
		17,15 17,14 17,13 17,12 16,12 	"/>
	<rect x="17" y="16" style="fill:#D4A629;" width="1" height="1"/>
	<polygon style="fill:#D4A629;" points="18,20 19,20 19,19 18,19 17,19 17,20 	"/>
	<polygon style="fill:#F0C95E;" points="14,21 14,20 14,19 14,18 14,17 14,16 14,15 14,14 14,13 14,12 13,12 13,13 13,14 13,15 
		13,16 13,17 13,18 13,19 13,20 13,21 13,22 13,23 14,23 14,22 	"/>
	<polygon style="fill:#D4A629;" points="16,21 16,20 16,19 16,18 16,17 16,16 16,15 16,14 16,13 15,13 15,12 14,12 14,13 14,14 
		14,15 14,16 14,17 14,18 14,19 14,20 14,21 14,22 14,23 15,23 16,23 16,22 	"/>
</g>
</svg>
