<?xml version="1.0" encoding="utf-8"?>
<!-- Generator: Adobe Illustrator 23.1.1, SVG Export Plug-In . SVG Version: 6.00 Build 0)  -->
<svg version="1.1" id="Layer_1" xmlns="http://www.w3.org/2000/svg" xmlns:xlink="http://www.w3.org/1999/xlink" x="0px" y="0px"
	 viewBox="0 0 12 12" style="enable-background:new 0 0 12 12;" xml:space="preserve">
<style type="text/css">
	.st0{fill:#FFEECC;}
	.st1{fill:#050504;}
	.st2{fill:#A09376;}
	.st3{fill:#F7E1B4;}
	.st4{fill:#EDD8AD;}
	.st5{fill:#FFFFFF;}
	.st6{fill:#474747;}
	.st7{fill:#F7F4EE;}
</style>
<path class="st0" d="M7,1H6H5H4H3H2H1v1v1v1v1v1v1v1v1v1v1h1h1h1h1v-1H4V9V8H3H2V7h1h1V6H3H2V5h1h1h1V4H4H3H2V3h1h1h1h1h1V2h1V1H7z"
	/>
<path class="st1" d="M8,2H7v1h1V2z"/>
<path class="st1" d="M11,2h-1v1h1V2z"/>
<path class="st2" d="M5,3H4H3H2v1h1h1h1h1V3H5z"/>
<path class="st3" d="M5.8,2H4.5H3.2H2v1h1.2h1.2h1.2H7V2H5.8z"/>
<path class="st3" d="M4.2,4H3.5H2.8H2v1h0.8h0.8h0.8H5V4H4.2z"/>
<path class="st3" d="M3.5,6H3H2.5H2v1h0.5H3h0.5H4V6H3.5z"/>
<path class="st3" d="M3.5,8H3H2.5H2v1h0.5H3h0.5H4V8H3.5z"/>
<path class="st3" d="M3.5,9H3H2.5H2v1h0.5H3h0.5H4V9H3.5z"/>
<path class="st4" d="M6.2,10H4.5H2.8H1v1h1.8h1.8h1.8H8v-1H6.2z"/>
<path class="st1" d="M7,3H6v1h1V3z"/>
<path class="st5" d="M11,3h-1V2H9H8v1H7v1H6v1v1h1V5h1V4h1v1H8v1H7v1v1h1V7h1V6h1V5h1V4V3z"/>
<path class="st1" d="M11,3v1v1h1V4V3H11z"/>
<path class="st1" d="M5,5v1h1V5V4H5V5z"/>
<path class="st6" d="M9,4H8v1h1V4z"/>
<path class="st2" d="M5,5H4H3H2v1h1h1h1V5z"/>
<path class="st6" d="M8,5H7v1h1V5z"/>
<path class="st1" d="M11,5h-1v1h1V5z"/>
<path class="st5" d="M5,7v1h1V7V6H5V7z"/>
<path class="st1" d="M10,6H9v1h1V6z"/>
<path class="st2" d="M3,7H2v1h1h1V7H3z"/>
<path class="st6" d="M6,8h1V7V6H6v1V8z"/>
<path class="st1" d="M8,8H7v1h1v1v1H7H6v-1H5v1H4H3H2H1v-1V9V8V7V6V5V4V3V2V1h1h1h1h1h1h1h1v1h1h1V1H9V0H8H7H6H5H4H3H2H1H0v1v1v1v1
	v1v1v1v1v1v1v1v1h1h1h1h1h1h1h1h1h1v-1v-1V9V8V7H8V8z"/>
<path class="st1" d="M5,8V7V6H4v1v1v1v1h1V9V8z"/>
<path class="st6" d="M6,8H5v1v1h1V9V8z"/>
<path class="st5" d="M7,8H6v1h1V8z"/>
<path class="st1" d="M7,9H6v1h1V9z"/>
<path class="st7" d="M6,10v1h1h1v-1V9H7v1H6z"/>
</svg>
