<?xml version="1.0" encoding="iso-8859-1"?>
<!-- Generator: Adobe Illustrator 23.0.3, SVG Export Plug-In . SVG Version: 6.00 Build 0)  -->
<svg version="1.1" id="Layer_1" xmlns="http://www.w3.org/2000/svg" xmlns:xlink="http://www.w3.org/1999/xlink" x="0px" y="0px"
	 viewBox="0 0 12 12" style="enable-background:new 0 0 12 12;" xml:space="preserve">
<g>
	<polygon style="fill:#F7F4EE;" points="7,1 6,1 5,1 4,1 3,1 2,1 1,1 1,2 1,3 1,4 1,5 1,6 1,7 1,8 1,9 1,10 1,11 2,11 3,11 4,11 
		5,11 5,10 4,10 4,9 4,8 3,8 2,8 2,7 3,7 4,7 4,6 3,6 2,6 2,5 3,5 4,5 5,5 5,4 4,4 3,4 2,4 2,3 3,3 4,3 5,3 6,3 7,3 7,2 8,2 8,1 	
		"/>
	<rect x="7" y="2" style="fill:#050504;" width="1" height="1"/>
	<rect x="10" y="2" style="fill:#050504;" width="1" height="1"/>
	<polygon style="fill:#B0A68F;" points="5,3 4,3 3,3 2,3 2,4 3,4 4,4 5,4 6,4 6,3 	"/>
	<rect x="6" y="3" style="fill:#050504;" width="1" height="1"/>
	<polygon style="fill:#FFFFFF;" points="11,3 10,3 10,2 9,2 8,2 8,3 7,3 7,4 6,4 6,5 6,6 7,6 7,5 8,5 8,4 9,4 9,5 8,5 8,6 7,6 7,7 
		7,8 8,8 8,7 9,7 9,6 10,6 10,5 11,5 11,4 	"/>
	<polygon style="fill:#050504;" points="11,3 11,4 11,5 12,5 12,4 12,3 	"/>
	<polygon style="fill:#050504;" points="5,5 5,6 6,6 6,5 6,4 5,4 	"/>
	<rect x="8" y="4" style="fill:#474747;" width="1" height="1"/>
	<polygon style="fill:#B0A68F;" points="5,5 4,5 3,5 2,5 2,6 3,6 4,6 5,6 	"/>
	<rect x="7" y="5" style="fill:#474747;" width="1" height="1"/>
	<rect x="10" y="5" style="fill:#050504;" width="1" height="1"/>
	<polygon style="fill:#FFFFFF;" points="5,7 5,8 6,8 6,7 6,6 5,6 	"/>
	<rect x="9" y="6" style="fill:#050504;" width="1" height="1"/>
	<polygon style="fill:#B0A68F;" points="3,7 2,7 2,8 3,8 4,8 4,7 	"/>
	<polygon style="fill:#474747;" points="6,8 7,8 7,7 7,6 6,6 6,7 	"/>
	<polygon style="fill:#050504;" points="8,8 7,8 7,9 8,9 8,10 8,11 7,11 6,11 6,10 5,10 5,11 4,11 3,11 2,11 1,11 1,10 1,9 1,8 1,7 
		1,6 1,5 1,4 1,3 1,2 1,1 2,1 3,1 4,1 5,1 6,1 7,1 8,1 8,2 9,2 10,2 10,1 9,1 9,0 8,0 7,0 6,0 5,0 4,0 3,0 2,0 1,0 0,0 0,1 0,2 0,3 
		0,4 0,5 0,6 0,7 0,8 0,9 0,10 0,11 0,12 1,12 2,12 3,12 4,12 5,12 6,12 7,12 8,12 9,12 9,11 9,10 9,9 9,8 9,7 8,7 	"/>
	<polygon style="fill:#050504;" points="5,8 5,7 5,6 4,6 4,7 4,8 4,9 4,10 5,10 5,9 	"/>
	<polygon style="fill:#474747;" points="6,8 5,8 5,9 5,10 6,10 6,9 	"/>
	<rect x="6" y="8" style="fill:#FFFFFF;" width="1" height="1"/>
	<rect x="6" y="9" style="fill:#050504;" width="1" height="1"/>
	<polygon style="fill:#F7F4EE;" points="6,10 6,11 7,11 8,11 8,10 8,9 7,9 7,10 	"/>
</g>
</svg>
