<?xml version="1.0" encoding="iso-8859-1"?>
<!-- Generator: Adobe Illustrator 23.1.1, SVG Export Plug-In . SVG Version: 6.00 Build 0)  -->
<svg version="1.1" id="Layer_1" xmlns="http://www.w3.org/2000/svg" xmlns:xlink="http://www.w3.org/1999/xlink" x="0px" y="0px"
	 viewBox="0 0 16 15" style="enable-background:new 0 0 16 15;" xml:space="preserve">
<g>
	<polygon style="fill:#402114;" points="8,0 1,0 1,1 1,2 1,3 2,3 2,4 8,4 14,4 14,3 15,3 15,2 15,1 15,0 	"/>
	<polygon style="fill:#FED639;" points="10.5,3 8,3 5.5,3 3,3 3,14 5.5,14 8,14 10.5,14 13,14 13,3 	"/>
	<polygon style="fill:#14110A;" points="14,0 13,0 12,0 11,0 10,0 9,0 8,0 7,0 6,0 5,0 4,0 3,0 2,0 1,0 1,1 1,2 1,3 2,3 2,2 2,1 
		3,1 4,1 5,1 6,1 7,1 8,1 9,1 10,1 11,1 12,1 13,1 14,1 14,2 14,3 15,3 15,2 15,1 15,0 	"/>
	<rect x="2" y="1" style="fill:#5F3523;" width="1" height="1"/>
	<rect x="3" y="1" style="fill:#835B4A;" width="1" height="1"/>
	<polygon style="fill:#5F3523;" points="5,2 6,2 6,1 5,1 4,1 4,2 	"/>
	<polygon style="fill:#5F3523;" points="9,2 10,2 11,2 11,1 10,1 9,1 8,1 8,2 	"/>
	<rect x="11" y="1" style="fill:#402114;" width="1" height="1"/>
	<rect x="12" y="1" style="fill:#5F3523;" width="1" height="1"/>
	<rect x="13" y="1" style="fill:#402114;" width="1" height="1"/>
	<rect x="2" y="2" style="fill:#402114;" width="1" height="1"/>
	<rect x="3" y="2" style="fill:#5F3523;" width="1" height="1"/>
	<rect x="4" y="2" style="fill:#402114;" width="1" height="1"/>
	<polygon style="fill:#33190E;" points="7,3 8,3 8,2 7,2 6,2 5,2 5,3 6,3 	"/>
	<polygon style="fill:#402114;" points="10,2 9,2 8,2 8,3 9,3 10,3 11,3 11,2 	"/>
	<rect x="11" y="2" style="fill:#33190E;" width="1" height="1"/>
	<rect x="12" y="2" style="fill:#402114;" width="1" height="1"/>
	<rect x="13" y="2" style="fill:#33190E;" width="1" height="1"/>
	<rect x="5" y="3" style="fill:#B4652A;" width="1" height="1"/>
	<polygon style="fill:#D39632;" points="6,3 6,4 7,4 8,4 9,4 10,4 10,3 9,3 8,3 7,3 	"/>
	<rect x="10" y="3" style="fill:#B4652A;" width="1" height="1"/>
	<polygon style="fill:#14110A;" points="12,3 11,3 11,4 12,4 12,5 12,6 12,7 12,8 12,9 12,10 12,11 13,11 13,10 13,9 13,8 13,7 
		13,6 13,5 13,4 14,4 14,3 13,3 	"/>
	<rect x="4" y="4" style="fill:#B4652A;" width="1" height="1"/>
	<rect x="5" y="4" style="fill:#F5CC27;" width="1" height="1"/>
	<rect x="6" y="4" style="fill:#FED639;" width="1" height="1"/>
	<polygon style="fill:#FFEC4F;" points="9,4 8,4 7,4 7,5 8,5 8,6 8,7 8,8 8,9 9,9 10,9 10,8 10,7 10,6 10,5 9,5 	"/>
	<rect x="9" y="4" style="fill:#FED639;" width="1" height="1"/>
	<rect x="10" y="4" style="fill:#D39632;" width="1" height="1"/>
	<rect x="6" y="5" style="fill:#FFEC4F;" width="1" height="1"/>
	<polygon style="fill:#9C4F16;" points="11,6 11,7 11,8 11,9 11,10 11,11 12,11 12,10 12,9 12,8 12,7 12,6 12,5 12,4 11,4 11,5 	"/>
	<polygon style="fill:#FFF68D;" points="6,6 6,7 6,8 6,9 7,9 8,9 8,8 8,7 8,6 8,5 7,5 7,6 	"/>
	<polygon style="fill:#FED639;" points="10,7 10,8 10,9 11,9 11,8 11,7 11,6 11,5 10,5 10,6 	"/>
	<polygon style="fill:#D39632;" points="5,7 5,6 5,5 4,5 4,6 4,7 4,8 5,8 	"/>
	<rect x="4" y="8" style="fill:#B4652A;" width="1" height="1"/>
	<polygon style="fill:#FED639;" points="6,8 6,7 6,6 6,5 5,5 5,6 5,7 5,8 5,9 6,9 	"/>
	<rect x="4" y="9" style="fill:#D39632;" width="1" height="1"/>
	<rect x="5" y="9" style="fill:#FFF68D;" width="1" height="1"/>
	<polygon style="fill:#FEFFBD;" points="6,9 6,10 7,10 8,10 8,9 7,9 	"/>
	<polygon style="fill:#FFF68D;" points="9,9 8,9 8,10 9,10 10,10 11,10 11,9 10,9 	"/>
	<polygon style="fill:#14110A;" points="4,10 4,9 4,8 4,7 4,6 4,5 4,4 5,4 5,3 4,3 3,3 2,3 2,4 3,4 3,5 3,6 3,7 3,8 3,9 3,10 3,11 
		4,11 	"/>
	<rect x="4" y="10" style="fill:#B4652A;" width="1" height="1"/>
	<rect x="5" y="10" style="fill:#D39632;" width="1" height="1"/>
	<rect x="10" y="10" style="fill:#D39632;" width="1" height="1"/>
	<polygon style="fill:#14110A;" points="3,11 2,11 2,12 2,13 3,13 3,12 	"/>
	<rect x="3" y="11" style="fill:#D39632;" width="1" height="1"/>
	<rect x="4" y="11" style="fill:#FFF68D;" width="1" height="1"/>
	<polygon style="fill:#FEFFBD;" points="7,11 6,11 5,11 5,12 6,12 7,12 8,12 9,12 9,11 8,11 	"/>
	<polygon style="fill:#FFF68D;" points="10,11 9,11 9,12 10,12 11,12 12,12 12,11 11,11 	"/>
	<rect x="12" y="11" style="fill:#B4652A;" width="1" height="1"/>
	<rect x="3" y="12" style="fill:#B4652A;" width="1" height="1"/>
	<rect x="4" y="12" style="fill:#FED639;" width="1" height="1"/>
	<rect x="5" y="12" style="fill:#FFEC4F;" width="1" height="1"/>
	<polygon style="fill:#FED639;" points="8,12 7,12 6,12 6,13 7,13 8,13 9,13 9,12 	"/>
	<polygon style="fill:#FFEC4F;" points="10,12 9,12 9,13 10,13 11,13 11,12 	"/>
	<rect x="11" y="12" style="fill:#D39632;" width="1" height="1"/>
	<rect x="12" y="12" style="fill:#9C4F16;" width="1" height="1"/>
	<polygon style="fill:#14110A;" points="13,13 14,13 14,12 14,11 13,11 13,12 	"/>
	<rect x="3" y="13" style="fill:#14110A;" width="1" height="1"/>
	<polygon style="fill:#9C4F16;" points="11,13 10,13 9,13 8,13 7,13 6,13 5,13 4,13 4,14 5,14 6,14 7,14 8,14 9,14 10,14 11,14 
		12,14 12,13 	"/>
	<rect x="12" y="13" style="fill:#14110A;" width="1" height="1"/>
	<polygon style="fill:#14110A;" points="10,14 9,14 8,14 7,14 6,14 5,14 4,14 4,15 5,15 6,15 7,15 8,15 9,15 10,15 11,15 12,15 
		12,14 11,14 	"/>
</g>
</svg>
