<?xml version="1.0" encoding="utf-8"?>
<!-- Generator: Adobe Illustrator 23.1.1, SVG Export Plug-In . SVG Version: 6.00 Build 0)  -->
<svg version="1.1" id="Layer_1" xmlns="http://www.w3.org/2000/svg" xmlns:xlink="http://www.w3.org/1999/xlink" x="0px" y="0px"
	 viewBox="0 0 12 12" style="enable-background:new 0 0 12 12;" xml:space="preserve">
<style type="text/css">
	.st0{fill:#FFFFFF;}
	.st1{fill:#CB2400;}
</style>
<path class="st0" d="M5,2H4v1h1V2z"/>
<path class="st1" d="M10,2V1H9H8H7v1H6H5v1h1v1v1h1v1h1V5h1V4h1h1V3V2H10z"/>
<path class="st0" d="M3,4v1h1V4V3H3V4z"/>
<path class="st1" d="M3,5V4V3h1V2h1V1H4H3H2v1H1v1v1v1v1h1V5H3z"/>
<path class="st0" d="M5,5h1V4V3H5v1V5z"/>
<path class="st0" d="M9,4v1h1h1V4h-1H9z"/>
<path class="st0" d="M3,5H2v1h1V5z"/>
<path class="st0" d="M7,5H6v1h1V5z"/>
<path class="st0" d="M9,5H8v1h1V5z"/>
<path class="st1" d="M9,5v1H8v1H7V6H6V5H5V4V3H4v1v1H3v1H2v1v1h1v1h1v1h1v1h1h1v-1h1V9h1V8h1V7V6h1V5h-1H9z"/>
<path class="st0" d="M8,6H7v1h1V6z"/>
<rect x="2" width="3" height="1"/>
<rect x="7" width="3" height="1"/>
<rect x="5" y="1" width="2" height="1"/>
<rect x="1" y="1" width="1" height="1"/>
<rect x="10" y="1" width="1" height="1"/>
<rect y="2" width="1" height="4"/>
<rect x="11" y="2" width="1" height="4"/>
<rect x="10" y="6" width="1" height="2"/>
<rect x="1" y="6" width="1" height="2"/>
<rect x="2" y="8" width="1" height="1"/>
<rect x="9" y="8" width="1" height="1"/>
<rect x="8" y="9" width="1" height="1"/>
<rect x="3" y="9" width="1" height="1"/>
<rect x="4" y="10" width="1" height="1"/>
<rect x="7" y="10" width="1" height="1"/>
<rect x="5" y="11" width="2" height="1"/>
</svg>
